<?xml version="1.0" encoding="utf-8"?>
<!-- Generator: Adobe Illustrator 15.0.2, SVG Export Plug-In . SVG Version: 6.00 Build 0)  -->
<!DOCTYPE svg PUBLIC "-//W3C//DTD SVG 1.1//EN" "http://www.w3.org/Graphics/SVG/1.1/DTD/svg11.dtd">
<svg version="1.1" id="Layer_1" xmlns="http://www.w3.org/2000/svg" xmlns:xlink="http://www.w3.org/1999/xlink" x="0px" y="0px"
	 width="230.5px" height="43px" viewBox="0 0 230.5 43" enable-background="new 0 0 230.5 43" xml:space="preserve">
<g>
	<path d="M35.703,7.796c0,1.387-0.52,2.946-1.56,4.68c-1.006,1.595-2.114,2.808-3.328,3.64c-0.59,0.382-1.248,0.919-1.976,1.612
		c0.623,0.278,1.49,0.746,2.6,1.404c1.768,1.006,2.652,2.791,2.652,5.355c0,2.046-0.78,4.022-2.34,5.929
		c-4.75,5.823-10.487,8.735-17.213,8.735c-2.114,0-4.299-0.277-6.552-0.832c-0.278,0.555-0.624,0.832-1.04,0.832
		c-0.623-0.208-1.109-0.382-1.455-0.52c-1.18-0.59-1.769-1.508-1.769-2.756c0-0.59,0.121-1.214,0.364-1.872
		c0-2.946-0.139-7.385-0.416-13.312c-0.416-4.645-0.625-7.332-0.625-8.06c0-1.629,0.209-3.189,0.629-4.681
		c0.551-2.113,1.434-3.275,2.648-3.483c3.153-0.555,9.168-0.832,18.043-0.832c5.27,0,8.528,0.416,9.776,1.248
		C35.183,5.578,35.703,6.548,35.703,7.796z M29.515,11.072V11.02c-0.902-0.624-3.658-0.936-8.268-0.936
		c-7.696,0-11.943,0.503-12.74,1.508c-0.486,0.624-0.729,2.114-0.729,4.472c0,1.04,0.104,1.734,0.312,2.08
		c0.242,0.451,0.779,0.676,1.611,0.676c2.427,0,5.668-0.762,9.725-2.288c3.744-1.421,6.777-2.946,9.1-4.576l0.364-0.26
		C29.238,11.454,29.445,11.246,29.515,11.072z M29.775,27.088c0-1.074-1.318-1.872-3.951-2.393
		c-1.631-0.276-3.363-0.416-5.201-0.416s-3.883,0.174-6.136,0.521c-2.704,0.416-4.628,0.936-5.772,1.56
		c-0.312,0.174-0.467,0.59-0.467,1.248c0,1.734,0.25,2.86,0.754,3.38c0.502,0.521,1.724,0.937,3.666,1.248
		c1.524,0.243,2.929,0.364,4.211,0.364c3.605,0,7.488-1.386,11.648-4.16C29.359,27.92,29.775,27.47,29.775,27.088z"/>
	<path d="M39.043,32.56c0,0.672-0.126,1.624-0.378,2.856c-0.309,1.568-0.658,2.352-1.051,2.352c-0.252,0-0.679-0.14-1.28-0.42
		c-0.603-0.279-0.987-0.546-1.155-0.798c-0.057-0.111-0.084-0.84-0.084-2.185v-2.268c0-2.072-0.098-5.166-0.294-9.282
		c-0.364-3.92-0.546-6.607-0.546-8.063c0-0.98,0.531-2.044,1.596-3.192c0.225-0.084,0.447-0.126,0.672-0.126
		c0.448,0,0.883,0.546,1.303,1.638c0.42,0.98,0.615,1.723,0.588,2.227c-0.252,2.912-0.378,4.521-0.378,4.83
		c0,2.632,0.153,5.572,0.462,8.819c0.027,0.336,0.14,0.938,0.336,1.807C38.973,31.483,39.043,32.084,39.043,32.56z"/>
	<path d="M65.797,21.877c0,0.5-0.196,1.068-0.588,1.706c-0.448,0.776-0.938,1.165-1.47,1.165c-0.309,0-0.785-0.043-1.428-0.127
		c-0.645-0.084-1.135-0.126-1.471-0.126c-1.736,0-3.822,0.253-6.258,0.757c-2.828,0.616-5.544,1.092-8.148,1.428
		c-2.044,0.309-3.065,1.092-3.065,2.352c0,2.493,0.504,3.738,1.512,3.738c0.252,0,0.644-0.069,1.177-0.21
		c5.879-1.68,10.568-2.52,14.069-2.52c0.7,0,1.442,0.111,2.226,0.336c1.092,0.308,1.639,0.728,1.639,1.26
		c0,0.252-0.092,0.672-0.273,1.26s-0.371,0.98-0.566,1.176c-0.252,0.28-0.631,0.42-1.135,0.42c-0.111,0-0.287-0.014-0.525-0.042
		c-0.237-0.027-0.412-0.042-0.524-0.042c-2.101,0-4.452,0.504-7.056,1.513c-2.492,0.924-4.942,1.68-7.35,2.268
		c-0.309,0.084-0.736,0.287-1.281,0.609c-0.547,0.321-1.002,0.51-1.365,0.566c-0.309,0-0.967-0.225-1.975-0.672
		c-1.092-0.532-1.722-0.951-1.89-1.26v0.042c-0.112-0.195-0.168-0.434-0.168-0.714c0-0.252,0.021-0.616,0.063-1.092
		c0.041-0.477,0.062-0.826,0.062-1.051c0-5.571-0.112-9.575-0.336-12.012c-0.28-3.78-0.42-5.978-0.42-6.594
		c0-0.476-0.035-1.001-0.105-1.575c-0.07-0.573-0.104-0.931-0.104-1.071c0-0.672,0.476-1.567,1.428-2.688
		c0.532-0.224,0.841-0.336,0.925-0.336c0.391,0,1.371,0.435,2.939,1.302c3.976-1.147,8.512-1.722,13.607-1.722
		c1.624,0,2.954,0.056,3.99,0.168c2.268,0.252,3.402,0.784,3.402,1.596c0,0.532-0.21,1.106-0.63,1.722
		c-0.477,0.756-0.966,1.135-1.47,1.135c-0.281,0-0.715-0.042-1.303-0.126s-1.021-0.126-1.302-0.126
		c-1.652,0-3.696,0.296-6.132,0.888c-3.641,0.847-5.67,1.312-6.09,1.396c-0.812,0.141-1.611,0.268-2.395,0.381
		c-0.868,0.197-1.638,0.465-2.31,0.804c-0.505,0.254-0.757,0.847-0.757,1.776c0,0.871,0.084,1.447,0.252,1.727
		c0.225,0.393,0.673,0.588,1.345,0.588c0.392,0,0.882-0.098,1.47-0.294c0.812-0.224,1.273-0.35,1.387-0.378
		c3.164-0.7,6.817-1.05,10.961-1.05c1.652,0,2.982,0.056,3.99,0.168C64.649,20.546,65.797,21.073,65.797,21.877z"/>
	<path d="M91.901,33.442c0,0.729-0.084,1.484-0.252,2.269c-0.225,1.148-0.532,1.75-0.925,1.806
		c-1.062,0.196-1.902,0.084-2.516-0.336c-0.308-0.224-0.775-0.588-1.404-1.092s-1.362-1.204-2.2-2.101
		c-1.091-1.176-1.774-1.903-2.054-2.184c-1.51-1.372-3.312-3.15-5.407-5.334c-1.313-1.428-3.381-3.556-6.203-6.384
		c-0.335-0.309-0.587-0.462-0.754-0.462c-0.308,0-0.462,0.854-0.462,2.562c0,1.596,0.099,3.711,0.295,6.342
		c0.052,0.336,0.155,0.952,0.312,1.849c0.156,0.756,0.234,1.358,0.234,1.806c0,0.7-0.141,1.666-0.421,2.897
		c-0.279,1.513-0.615,2.269-1.008,2.269c-0.477,0-0.994-0.168-1.554-0.504c-0.7-0.42-1.05-0.896-1.05-1.428
		c0-0.168,0.021-0.463,0.062-0.883c0.043-0.42,0.063-0.741,0.063-0.966c0-0.14-0.015-0.756-0.042-1.848
		c0-2.101-0.084-5.208-0.252-9.324c-0.309-3.136-0.462-5.151-0.462-6.048c0-0.168-0.028-0.644-0.084-1.428
		c-0.028-0.616-0.028-1.078,0-1.387c0.084-0.644,0.602-1.455,1.554-2.436c0.141-0.056,0.393-0.084,0.756-0.084
		s0.867,0.175,1.512,0.524c0.645,0.351,1.106,0.666,1.387,0.945c2.771,2.997,5.529,5.979,8.273,8.946
		c4.537,4.761,7.238,7.14,8.106,7.14c0.14,0,0.21-0.35,0.21-1.05c0-1.876-0.287-4.802-0.861-8.778
		c-0.574-3.976-0.861-7.014-0.861-9.113c0-1.429,0.406-2.143,1.219-2.143c0.783,0,1.47,0.504,2.059,1.513
		c0.531,0.84,0.797,1.652,0.797,2.436c0,0.252-0.027,0.645-0.084,1.176c-0.057,0.532-0.084,0.938-0.084,1.218
		c0,3.137,0.35,7.085,1.051,11.845c0.195,1.288,0.42,2.576,0.672,3.863C91.775,31.048,91.901,32.35,91.901,33.442z"/>
	<path d="M111.38,10.762c0.111,1.512-0.098,2.716-0.63,3.612c-1.513,2.548-2.87,5.571-4.074,9.071
		c-0.7,2.017-1.652,5.208-2.856,9.576c-0.279,1.036-0.699,2.114-1.26,3.234c-0.812,1.512-1.554,2.295-2.226,2.352
		c-0.672,0.056-1.4-0.546-2.185-1.806c-0.531-0.868-0.98-1.778-1.344-2.73c-0.615-1.791-1.582-4.479-2.897-8.063
		c-0.393-0.896-1.064-2.45-2.017-4.662c-1.092-2.464-1.652-3.892-1.68-4.284c-0.057-0.672,0.126-1.47,0.546-2.394
		c0.505-1.036,1.093-1.582,1.765-1.639c0.336-0.056,0.615,0.183,0.84,0.714c0.084,0.141,0.531,1.387,1.344,3.738
		c0.728,1.988,1.428,3.99,2.1,6.006c0.867,2.297,1.75,4.242,2.646,5.838c0.392,0.673,0.63,1.009,0.714,1.009
		c0.224,0,0.532-0.519,0.924-1.555c0.728-1.651,1.722-4.186,2.981-7.602c0.477-1.624,0.98-3.248,1.513-4.872
		c0.588-1.82,1.218-3.374,1.89-4.662c0.252-0.476,1.189-1.189,2.814-2.142C110.932,9.39,111.296,9.81,111.38,10.762z"/>
	<path d="M138.164,21.877c0,0.5-0.196,1.068-0.588,1.706c-0.448,0.776-0.938,1.165-1.471,1.165c-0.308,0-0.783-0.043-1.428-0.127
		s-1.134-0.126-1.47-0.126c-1.736,0-3.821,0.253-6.258,0.757c-2.829,0.616-5.544,1.092-8.147,1.428
		c-2.045,0.309-3.066,1.092-3.066,2.352c0,2.493,0.504,3.738,1.512,3.738c0.252,0,0.645-0.069,1.176-0.21
		c5.881-1.68,10.57-2.52,14.07-2.52c0.699,0,1.441,0.111,2.227,0.336c1.092,0.308,1.637,0.728,1.637,1.26
		c0,0.252-0.09,0.672-0.272,1.26s-0.371,0.98-0.567,1.176c-0.252,0.28-0.629,0.42-1.133,0.42c-0.113,0-0.288-0.014-0.525-0.042
		c-0.238-0.027-0.414-0.042-0.525-0.042c-2.1,0-4.451,0.504-7.056,1.513c-2.493,0.924-4.942,1.68-7.351,2.268
		c-0.309,0.084-0.734,0.287-1.281,0.609c-0.545,0.321-1.001,0.51-1.364,0.566c-0.309,0-0.966-0.225-1.974-0.672
		c-1.092-0.532-1.723-0.951-1.891-1.26v0.042c-0.112-0.195-0.168-0.434-0.168-0.714c0-0.252,0.021-0.616,0.062-1.092
		c0.043-0.477,0.063-0.826,0.063-1.051c0-5.571-0.112-9.575-0.336-12.012c-0.28-3.78-0.42-5.978-0.42-6.594
		c0-0.476-0.036-1.001-0.104-1.575c-0.07-0.573-0.105-0.931-0.105-1.071c0-0.672,0.476-1.567,1.428-2.688
		c0.531-0.224,0.84-0.336,0.924-0.336c0.393,0,1.372,0.435,2.94,1.302c3.976-1.147,8.512-1.722,13.608-1.722
		c1.623,0,2.953,0.056,3.99,0.168c2.268,0.252,3.401,0.784,3.401,1.596c0,0.532-0.21,1.106-0.63,1.722
		c-0.477,0.756-0.967,1.135-1.471,1.135c-0.279,0-0.713-0.042-1.301-0.126c-0.589-0.084-1.023-0.126-1.303-0.126
		c-1.652,0-3.695,0.296-6.132,0.888c-3.64,0.847-5.67,1.312-6.091,1.396c-0.812,0.141-1.609,0.268-2.393,0.381
		c-0.869,0.197-1.639,0.465-2.311,0.804c-0.504,0.254-0.756,0.847-0.756,1.776c0,0.871,0.084,1.447,0.252,1.727
		c0.224,0.393,0.672,0.588,1.344,0.588c0.392,0,0.882-0.098,1.471-0.294c0.811-0.224,1.273-0.35,1.385-0.378
		c3.164-0.7,6.818-1.05,10.963-1.05c1.651,0,2.981,0.056,3.99,0.168C137.015,20.546,138.164,21.073,138.164,21.877z"/>
	<path d="M164.267,33.442c0,0.729-0.084,1.484-0.252,2.269c-0.225,1.148-0.533,1.75-0.925,1.806
		c-1.063,0.196-1.902,0.084-2.517-0.336c-0.307-0.224-0.775-0.588-1.404-1.092c-0.628-0.504-1.361-1.204-2.199-2.101
		c-1.091-1.176-1.775-1.903-2.055-2.184c-1.51-1.372-3.312-3.15-5.406-5.334c-1.314-1.428-3.381-3.556-6.203-6.384
		c-0.336-0.309-0.587-0.462-0.754-0.462c-0.309,0-0.462,0.854-0.462,2.562c0,1.596,0.099,3.711,0.294,6.342
		c0.053,0.336,0.156,0.952,0.312,1.849c0.156,0.756,0.234,1.358,0.234,1.806c0,0.7-0.141,1.666-0.421,2.897
		c-0.28,1.513-0.616,2.269-1.008,2.269c-0.477,0-0.994-0.168-1.554-0.504c-0.701-0.42-1.051-0.896-1.051-1.428
		c0-0.168,0.021-0.463,0.063-0.883s0.063-0.741,0.063-0.966c0-0.14-0.015-0.756-0.043-1.848c0-2.101-0.084-5.208-0.252-9.324
		c-0.309-3.136-0.461-5.151-0.461-6.048c0-0.168-0.029-0.644-0.084-1.428c-0.029-0.616-0.029-1.078,0-1.387
		c0.084-0.644,0.602-1.455,1.553-2.436c0.141-0.056,0.393-0.084,0.757-0.084c0.363,0,0.867,0.175,1.512,0.524
		c0.644,0.351,1.106,0.666,1.386,0.945c2.772,2.997,5.529,5.979,8.274,8.946c4.536,4.761,7.237,7.14,8.106,7.14
		c0.139,0,0.209-0.35,0.209-1.05c0-1.876-0.287-4.802-0.86-8.778c-0.574-3.976-0.861-7.014-0.861-9.113
		c0-1.429,0.405-2.143,1.218-2.143c0.784,0,1.471,0.504,2.059,1.513c0.531,0.84,0.798,1.652,0.798,2.436
		c0,0.252-0.028,0.645-0.084,1.176c-0.057,0.532-0.084,0.938-0.084,1.218c0,3.137,0.35,7.085,1.05,11.845
		c0.195,1.288,0.42,2.576,0.672,3.863C164.14,31.048,164.267,32.35,164.267,33.442z"/>
	<path d="M169.054,32.371c0,0.672-0.125,1.624-0.377,2.856c-0.309,1.568-0.658,2.352-1.051,2.352c-0.252,0-0.68-0.14-1.281-0.42
		c-0.602-0.279-0.986-0.546-1.154-0.798c-0.057-0.111-0.084-0.84-0.084-2.185v-2.268c0-2.072-0.099-5.166-0.295-9.282
		c-0.363-3.92-0.545-6.607-0.545-8.063c0-0.98,0.531-2.044,1.596-3.192c0.224-0.084,0.447-0.126,0.672-0.126
		c0.447,0,0.882,0.546,1.302,1.638c0.421,0.98,0.616,1.723,0.589,2.227c-0.252,2.912-0.379,4.521-0.379,4.83
		c0,2.632,0.154,5.572,0.463,8.819c0.027,0.336,0.139,0.938,0.336,1.807C168.984,31.293,169.054,31.895,169.054,32.371z"/>
	<path d="M196.859,14.416c0,0.476-0.043,0.924-0.127,1.344c-0.756,3.528-2.66,7.028-5.711,10.5c-2.633,2.968-5.74,5.53-9.324,7.686
		c-1.428,0.868-3.137,1.723-5.125,2.562c-2.436,1.008-4.256,1.512-5.459,1.512c-0.645,0-0.994-0.812-1.051-2.436
		c0-0.448,0-0.98,0-1.597l0.043-1.092c0-4.844-0.084-8.26-0.252-10.248c-0.336-3.416-0.504-5.432-0.504-6.048
		c0-0.308,0.014-0.763,0.041-1.365c0.027-0.602,0.043-1.057,0.043-1.364c0-0.589,0.258-1.288,0.776-2.101
		c0.518-0.812,1.057-1.287,1.617-1.428c2.716-0.672,6.915-1.008,12.6-1.008c4.508,0,7.798,0.378,9.87,1.134
		C196.003,11.139,196.859,12.456,196.859,14.416z M193.247,16.935c0-0.896-0.994-1.539-2.981-1.932
		c-1.232-0.252-2.604-0.378-4.117-0.378c-6.271,0-10.136,0.336-11.592,1.008c-0.756,0.364-1.232,1.092-1.428,2.184
		c-0.057,0.364-0.084,1.288-0.084,2.772c0,1.372,0.07,3.29,0.21,5.754c0.196,3.107,0.392,4.887,0.588,5.334
		c0.14,0.225,0.405,0.336,0.798,0.336c0.363,0,0.883-0.111,1.555-0.336c4.983-1.624,9.449-4.563,13.397-8.82
		C192.029,20.253,193.247,18.279,193.247,16.935z"/>
	<path d="M227.768,22.333c0,4.509-2.083,8.4-6.25,11.676c-3.831,3.053-8.041,4.578-12.627,4.578c-3.243,0-6.18-0.889-8.809-2.667
		c-2.629-1.777-4.587-4.179-5.873-7.203c-0.392-0.867-0.587-1.722-0.587-2.562c0-1.12,0.321-2.338,0.965-3.654
		c1.594-3.444,4.488-6.384,8.684-8.82c4.026-2.295,8.012-3.443,11.955-3.443c3.188,0,6.074,1.218,8.662,3.653
		C226.474,16.327,227.768,19.14,227.768,22.333z M224.408,24.432c0-1.119-0.518-2.394-1.553-3.821
		c-2.493-3.332-5.531-4.998-9.115-4.998c-2.996,0-6.215,0.868-9.66,2.604c-4.592,2.297-6.887,4.341-6.887,6.132
		c0,0.812,0.447,1.737,1.344,2.772c3.584,4.116,7.377,6.174,11.382,6.174c3.079,0,6.132-0.728,9.155-2.184
		C222.63,29.319,224.408,27.093,224.408,24.432z"/>
</g>
</svg>
