<?xml version="1.0" encoding="utf-8"?>
<!-- Generator: Adobe Illustrator 15.0.2, SVG Export Plug-In . SVG Version: 6.00 Build 0)  -->
<!DOCTYPE svg PUBLIC "-//W3C//DTD SVG 1.1//EN" "http://www.w3.org/Graphics/SVG/1.1/DTD/svg11.dtd">
<svg version="1.1" id="Layer_1" xmlns="http://www.w3.org/2000/svg" xmlns:xlink="http://www.w3.org/1999/xlink" x="0px" y="0px"
	 width="353px" height="41.667px" viewBox="0 0 353 41.667" enable-background="new 0 0 353 41.667" xml:space="preserve">
<path d="M33.448,10.957c0,0.624-0.243,1.352-0.728,2.184c-0.486,1.006-1.006,1.508-1.56,1.508c-0.312,0-1.335-0.693-3.068-2.08
	c-1.734-1.386-3.346-2.08-4.836-2.08c-3.016,0-5.842,1.006-8.476,3.016c-5.443,4.16-8.164,7.454-8.164,9.88
	c0,0.867,0.225,1.751,0.676,2.651c1.109,2.254,2.894,3.953,5.356,5.097c2.149,1.04,4.61,1.56,7.384,1.56
	c1.733,0,3.432-0.207,5.096-0.623c0.728-0.174,1.698-0.537,2.912-1.093c0.97-0.415,1.941-0.831,2.912-1.247l1.04-0.469
	c0.762,0,1.144,0.607,1.144,1.82c0,2.947-1.976,5.096-5.928,6.447c-2.704,0.901-5.79,1.353-9.256,1.353
	c-4.264,0-7.783-0.901-10.556-2.704c-3.294-2.148-4.94-5.286-4.94-9.412c0-3.986,1.369-7.696,4.109-11.128
	C12.943,7.768,19.061,3.833,24.92,3.833c1.698,0,3.137,0.659,4.316,1.976c0.797,0.763,1.976,1.959,3.536,3.588
	C33.222,9.883,33.448,10.403,33.448,10.957z"/>
<path d="M57.56,33.989c0.027,0.756-0.168,1.568-0.588,2.436c-0.448,1.036-1.008,1.554-1.68,1.554c-0.7,0-1.134-1.008-1.302-3.024
	c-0.028-0.447-0.057-0.713-0.084-0.797c-0.42-1.597-1.989-2.395-4.704-2.395c-0.309,0-0.7,0-1.176,0
	c-0.532,0.028-0.896,0.042-1.092,0.042c-1.428,0-3.207,0.183-5.334,0.546c-2.884,0.477-4.641,0.742-5.271,0.798
	c-0.63,0.057-1.036,0.378-1.218,0.966s-0.343,1.162-0.483,1.723c-0.28,1.092-0.784,1.834-1.512,2.226
	c-0.225,0.112-0.435,0.168-0.63,0.168c-0.588,0-0.91-0.462-0.966-1.386c-0.084-1.623,0.378-3.934,1.386-6.93v-0.084
	c-0.028-0.448,0.153-0.868,0.546-1.26c2.127-5.545,5.208-10.137,9.24-13.777c0.252-0.224,0.756-0.868,1.512-1.932
	c0.504-0.728,1.12-1.204,1.848-1.428c0.699-0.084,1.567-0.224,2.604-0.42c0.84-0.252,1.315-0.378,1.428-0.378
	c1.064,0,2.576,3.346,4.536,10.038C56.411,26.891,57.392,31.329,57.56,33.989z M51.512,24.706c0-0.756-0.364-2.064-1.092-3.926
	c-0.729-1.862-1.33-3.073-1.806-3.633c-0.336-0.392-0.7-0.588-1.092-0.588c-1.176,0-3.094,1.414-5.754,4.242
	c-2.661,2.828-3.962,4.829-3.906,6.006c0.028,0.616,0.896,0.924,2.604,0.924c1.68,0,3.57-0.126,5.67-0.378
	c2.688-0.363,4.354-0.84,4.998-1.428C51.413,25.616,51.539,25.21,51.512,24.706z"/>
<path d="M92.716,34.241c0,0.588-0.238,1.357-0.714,2.31c-0.588,1.064-1.19,1.596-1.806,1.596c-0.868,0-2.086-2.085-3.654-6.258
	c-1.008-2.743-1.834-5.348-2.478-7.812c-0.728-2.772-1.288-4.159-1.68-4.159c-0.504,0-2.058,2.982-4.662,8.946
	c-0.309,0.896-0.798,2.227-1.47,3.99c-0.084,0.896-0.49,1.988-1.218,3.275c-0.812,1.457-1.638,2.185-2.478,2.185
	c-1.176,0-2.52-2.155-4.032-6.468c-0.84-2.744-1.68-5.516-2.52-8.316c-0.309-0.84-0.504-1.26-0.588-1.26c0,0.028,0,0.057,0,0.084
	c-0.588,0.868-1.33,3.416-2.226,7.645c-0.112,0.924-0.378,2.268-0.798,4.031c-0.28,0.756-0.672,1.611-1.176,2.562
	c-0.672,1.26-1.205,1.89-1.596,1.89c-0.309,0-0.729-0.302-1.26-0.903c-0.532-0.602-0.798-1.084-0.798-1.449
	c0-0.252,0.056-0.518,0.168-0.797c0.252-0.477,0.378-0.729,0.378-0.756c0.336-1.064,0.812-2.66,1.428-4.789
	c0.532-1.596,1.246-4.004,2.142-7.224c0.308-1.147,0.616-2.31,0.924-3.486c0.308-1.372,0.462-2.562,0.462-3.57
	c0-0.868,0.07-1.498,0.21-1.89c0.111-0.308,0.657-0.714,1.638-1.218c0.924-0.447,1.54-0.672,1.848-0.672
	c0.476,0,0.784,0.322,0.924,0.966c0.056,0.477,0.112,0.953,0.168,1.428c0.112,1.092,0.756,3.584,1.932,7.476
	c1.148,3.809,1.988,6.328,2.52,7.561c0.252,0.531,0.476,0.797,0.672,0.797c0.28,0,1.638-2.631,4.074-7.896l2.814-6.048
	c0.952-2.016,1.568-3.255,1.848-3.717c0.279-0.462,1.287-1.084,3.024-1.869c0.644,0.056,1.33,1.876,2.058,5.46
	c0.336,1.876,0.728,4.018,1.176,6.426c1.092,3.612,1.666,5.502,1.722,5.67c0.783,2.296,1.666,4.019,2.646,5.166
	C92.59,33.457,92.716,33.821,92.716,34.241z"/>
<path d="M119.092,13.451c0,1.12-0.42,2.38-1.26,3.78c-0.812,1.288-1.708,2.268-2.688,2.94c-0.477,0.309-1.008,0.742-1.596,1.302
	c0.504,0.224,1.203,0.603,2.1,1.134c1.428,0.812,2.142,2.254,2.142,4.326c0,1.652-0.63,3.248-1.89,4.788
	c-3.836,4.704-8.47,7.056-13.902,7.056c-1.708,0-3.472-0.225-5.292-0.672c-0.225,0.447-0.504,0.672-0.84,0.672
	c-0.504-0.168-0.896-0.309-1.176-0.42c-0.952-0.477-1.428-1.218-1.428-2.227c0-0.475,0.098-0.979,0.294-1.512
	c0-2.379-0.112-5.963-0.336-10.752c-0.336-3.751-0.504-5.922-0.504-6.51c0-1.315,0.168-2.576,0.507-3.78
	c0.445-1.708,1.158-2.646,2.139-2.814c2.547-0.448,7.406-0.672,14.574-0.672c4.256,0,6.888,0.336,7.896,1.008
	C118.672,11.659,119.092,12.442,119.092,13.451z M114.094,16.097v-0.042c-0.729-0.504-2.955-0.756-6.678-0.756
	c-6.216,0-9.646,0.406-10.29,1.218c-0.392,0.504-0.588,1.708-0.588,3.612c0,0.84,0.084,1.4,0.252,1.68
	c0.196,0.364,0.63,0.546,1.302,0.546c1.959,0,4.578-0.616,7.854-1.848c3.024-1.147,5.474-2.379,7.35-3.696l0.294-0.21
	C113.87,16.405,114.038,16.237,114.094,16.097z M114.304,29.032c0-0.867-1.064-1.512-3.192-1.932
	c-1.316-0.224-2.716-0.336-4.2-0.336c-1.484,0-3.136,0.141-4.956,0.42c-2.184,0.336-3.738,0.756-4.662,1.26
	c-0.252,0.141-0.378,0.477-0.378,1.008c0,1.4,0.203,2.311,0.609,2.73s1.393,0.756,2.961,1.008c1.231,0.196,2.366,0.294,3.402,0.294
	c2.912,0,6.048-1.119,9.408-3.36C113.968,29.704,114.304,29.341,114.304,29.032z"/>
<path d="M123.88,32.435c0,0.672-0.126,1.624-0.378,2.855c-0.309,1.568-0.658,2.353-1.05,2.353c-0.252,0-0.679-0.14-1.281-0.42
	c-0.603-0.28-0.987-0.546-1.155-0.798c-0.056-0.111-0.084-0.84-0.084-2.184v-2.269c0-2.071-0.098-5.166-0.294-9.282
	c-0.364-3.919-0.546-6.607-0.546-8.064c0-0.979,0.532-2.043,1.596-3.192c0.224-0.084,0.447-0.126,0.672-0.126
	c0.448,0,0.882,0.546,1.302,1.638c0.42,0.98,0.616,1.722,0.588,2.226c-0.252,2.913-0.378,4.522-0.378,4.83
	c0,2.632,0.153,5.573,0.462,8.821c0.027,0.336,0.14,0.938,0.336,1.805C123.81,31.356,123.88,31.959,123.88,32.435z"/>
<path d="M158.026,22.396c0,4.509-2.083,8.399-6.25,11.677c-3.832,3.052-8.041,4.577-12.627,4.577c-3.244,0-6.18-0.89-8.809-2.667
	s-4.586-4.179-5.873-7.203c-0.392-0.867-0.587-1.722-0.587-2.562c0-1.12,0.322-2.338,0.965-3.654
	c1.594-3.444,4.489-6.384,8.684-8.82c4.027-2.295,8.012-3.444,11.956-3.444c3.188,0,6.075,1.218,8.662,3.654
	S158.026,19.205,158.026,22.396z M154.667,24.497c0-1.12-0.519-2.395-1.554-3.822c-2.493-3.332-5.53-4.998-9.114-4.998
	c-2.997,0-6.216,0.868-9.66,2.604c-4.592,2.296-6.888,4.34-6.888,6.132c0,0.812,0.447,1.736,1.344,2.771
	c3.584,4.116,7.378,6.174,11.382,6.174c3.08,0,6.132-0.728,9.156-2.184C152.888,29.383,154.667,27.157,154.667,24.497z"/>
<path d="M192.973,14.668c0,0.477-0.042,0.924-0.126,1.344c-0.756,3.528-2.66,7.028-5.712,10.5c-2.633,2.969-5.74,5.53-9.324,7.686
	c-1.428,0.869-3.136,1.723-5.124,2.562c-2.436,1.008-4.256,1.512-5.46,1.512c-0.644,0-0.994-0.812-1.05-2.436
	c0-0.447,0-0.98,0-1.596l0.042-1.093c0-4.844-0.084-8.259-0.252-10.248c-0.336-3.416-0.504-5.432-0.504-6.048
	c0-0.308,0.014-0.763,0.042-1.365c0.027-0.602,0.042-1.057,0.042-1.365c0-0.588,0.258-1.288,0.777-2.1
	c0.518-0.812,1.057-1.288,1.617-1.428c2.715-0.672,6.916-1.008,12.6-1.008c4.508,0,7.797,0.378,9.869,1.134
	C192.118,11.393,192.973,12.709,192.973,14.668z M189.361,17.188c0-0.896-0.994-1.54-2.982-1.932
	c-1.232-0.252-2.604-0.378-4.116-0.378c-6.272,0-10.136,0.336-11.592,1.008c-0.756,0.364-1.232,1.092-1.428,2.184
	c-0.056,0.364-0.084,1.288-0.084,2.772c0,1.372,0.07,3.29,0.21,5.754c0.196,3.107,0.392,4.887,0.588,5.334
	c0.14,0.225,0.406,0.336,0.798,0.336c0.363,0,0.882-0.111,1.554-0.336c4.984-1.623,9.45-4.563,13.398-8.82
	C188.143,20.506,189.361,18.533,189.361,17.188z"/>
<path d="M219.727,21.751c0,0.5-0.196,1.068-0.588,1.707c-0.448,0.777-0.938,1.164-1.471,1.164c-0.308,0-0.783-0.041-1.428-0.125
	s-1.134-0.127-1.47-0.127c-1.736,0-3.821,0.252-6.258,0.756c-2.829,0.617-5.544,1.093-8.147,1.429
	c-2.045,0.308-3.066,1.092-3.066,2.353c0,2.492,0.504,3.737,1.512,3.737c0.252,0,0.645-0.069,1.176-0.21
	c5.881-1.68,10.57-2.52,14.07-2.52c0.699,0,1.441,0.111,2.227,0.336c1.092,0.309,1.637,0.729,1.637,1.26
	c0,0.252-0.09,0.672-0.272,1.26s-0.371,0.98-0.567,1.176c-0.252,0.28-0.629,0.42-1.133,0.42c-0.113,0-0.288-0.014-0.525-0.041
	c-0.238-0.028-0.414-0.043-0.525-0.043c-2.1,0-4.451,0.504-7.056,1.512c-2.493,0.925-4.942,1.681-7.351,2.269
	c-0.309,0.084-0.734,0.286-1.281,0.608c-0.545,0.322-1.001,0.512-1.364,0.568c-0.309,0-0.966-0.225-1.974-0.673
	c-1.092-0.532-1.723-0.951-1.891-1.26v0.042c-0.112-0.195-0.168-0.434-0.168-0.714c0-0.253,0.021-0.616,0.062-1.093
	c0.043-0.475,0.063-0.825,0.063-1.049c0-5.572-0.112-9.576-0.336-12.013c-0.28-3.78-0.42-5.978-0.42-6.594
	c0-0.476-0.036-1.001-0.104-1.575c-0.07-0.574-0.105-0.931-0.105-1.071c0-0.672,0.476-1.568,1.428-2.688
	c0.531-0.224,0.84-0.336,0.924-0.336c0.393,0,1.372,0.434,2.94,1.302c3.976-1.148,8.512-1.722,13.608-1.722
	c1.623,0,2.953,0.057,3.99,0.168c2.268,0.252,3.401,0.785,3.401,1.596c0,0.532-0.21,1.106-0.63,1.722
	c-0.477,0.756-0.967,1.134-1.471,1.134c-0.279,0-0.713-0.042-1.301-0.126c-0.589-0.084-1.023-0.126-1.303-0.126
	c-1.652,0-3.695,0.297-6.132,0.889c-3.64,0.847-5.67,1.312-6.091,1.396c-0.812,0.141-1.609,0.268-2.393,0.381
	c-0.869,0.198-1.639,0.465-2.311,0.804c-0.504,0.254-0.756,0.847-0.756,1.777c0,0.871,0.084,1.446,0.252,1.726
	c0.224,0.392,0.672,0.588,1.344,0.588c0.392,0,0.882-0.098,1.471-0.294c0.811-0.224,1.273-0.35,1.385-0.378
	c3.164-0.7,6.818-1.05,10.963-1.05c1.651,0,2.981,0.057,3.99,0.168C218.578,20.42,219.727,20.948,219.727,21.751z"/>
<path d="M259.76,9.179c0,0.59-0.053,1.144-0.156,1.664c-0.936,4.368-3.294,8.702-7.072,13c-3.259,3.675-7.106,6.847-11.543,9.516
	c-1.769,1.075-3.884,2.133-6.345,3.172c-3.017,1.248-5.271,1.872-6.76,1.872c-0.798,0-1.231-1.005-1.3-3.016
	c0-0.554,0-1.214,0-1.976l0.052-1.353c0-5.997-0.104-10.226-0.312-12.688c-0.416-4.229-0.625-6.725-0.625-7.488
	c0-0.381,0.018-0.944,0.053-1.69c0.033-0.745,0.052-1.308,0.052-1.69c0-0.728,0.319-1.594,0.962-2.6
	c0.641-1.005,1.309-1.594,2.002-1.768c3.362-0.832,8.562-1.248,15.6-1.248c5.582,0,9.654,0.468,12.221,1.404
	C258.701,5.123,259.76,6.752,259.76,9.179z M255.287,12.298c0-1.109-1.23-1.906-3.691-2.392c-1.525-0.312-3.225-0.468-5.096-0.468
	c-7.766,0-12.551,0.416-14.353,1.248c-0.937,0.451-1.526,1.352-1.769,2.704c-0.069,0.451-0.104,1.595-0.104,3.432
	c0,1.699,0.086,4.074,0.26,7.124c0.242,3.848,0.485,6.051,0.729,6.604c0.173,0.278,0.502,0.416,0.988,0.416
	c0.449,0,1.092-0.138,1.924-0.416c6.17-2.011,11.699-5.65,16.588-10.92C253.779,16.407,255.287,13.962,255.287,12.298z"/>
<path d="M275.8,34.094c0.027,0.756-0.168,1.568-0.588,2.437c-0.448,1.035-1.009,1.553-1.681,1.553c-0.699,0-1.133-1.008-1.301-3.023
	c-0.029-0.447-0.057-0.714-0.084-0.798c-0.421-1.597-1.989-2.394-4.705-2.394c-0.309,0-0.699,0-1.176,0
	c-0.532,0.027-0.896,0.041-1.092,0.041c-1.428,0-3.207,0.183-5.334,0.547c-2.885,0.477-4.641,0.742-5.271,0.797
	c-0.629,0.057-1.035,0.379-1.218,0.967s-0.343,1.162-0.483,1.722c-0.279,1.093-0.783,1.835-1.512,2.226
	c-0.225,0.112-0.434,0.168-0.63,0.168c-0.588,0-0.91-0.461-0.966-1.385c-0.084-1.624,0.378-3.934,1.387-6.931v-0.084
	c-0.029-0.448,0.152-0.868,0.545-1.26c2.128-5.544,5.209-10.136,9.24-13.776c0.252-0.224,0.756-0.868,1.512-1.932
	c0.504-0.728,1.12-1.204,1.849-1.428c0.699-0.084,1.567-0.224,2.604-0.42c0.84-0.252,1.314-0.378,1.428-0.378
	c1.063,0,2.575,3.346,4.535,10.038C274.651,26.995,275.632,31.434,275.8,34.094z M269.752,24.812c0-0.756-0.364-2.064-1.092-3.927
	c-0.729-1.862-1.33-3.073-1.807-3.633c-0.336-0.392-0.699-0.588-1.092-0.588c-1.176,0-3.094,1.414-5.754,4.242
	c-2.66,2.828-3.963,4.83-3.906,6.005c0.027,0.617,0.896,0.924,2.604,0.924c1.681,0,3.57-0.125,5.671-0.377
	c2.688-0.364,4.354-0.84,4.998-1.428C269.653,25.722,269.779,25.315,269.752,24.812z"/>
<path d="M292.768,11.771c0,0.252-0.112,0.729-0.336,1.428c-0.393,0.952-0.855,1.428-1.387,1.428c-0.111,0-0.293-0.014-0.545-0.042
	c-0.253-0.027-0.463-0.042-0.631-0.042c-0.477,0-1.624,0.112-3.443,0.336c-1.652,0.225-2.479,2.17-2.479,5.838
	c0,2.745,0.168,5.978,0.504,9.703c0.027,0.336,0.126,0.951,0.294,1.848c0.14,0.784,0.21,1.4,0.21,1.848
	c0,0.701-0.126,1.666-0.378,2.898c-0.308,1.483-0.645,2.211-1.008,2.184l-0.126-0.042c-1.036-0.196-1.736-0.524-2.1-0.987
	c-0.365-0.461-0.547-1.196-0.547-2.205c0-0.588,0.027-1.469,0.084-2.646c0.057-1.176,0.084-2.058,0.084-2.646
	c0-2.101-0.084-4.605-0.252-7.519c-0.252-4.116-0.574-6.397-0.966-6.846c-0.196-0.196-0.405-0.294-0.63-0.294
	c-0.448,0-1.33,0.252-2.646,0.756c-1.428,0.504-2.408,0.756-2.939,0.756c-0.336,0-0.784-0.476-1.344-1.428
	c-0.477-0.84-0.715-1.414-0.715-1.722c0-0.588,0.371-1.176,1.113-1.764c0.742-0.588,1.477-0.882,2.205-0.882
	c0.141,0,0.266,0.015,0.379,0.042c3.415-1.176,7.363-1.764,11.844-1.764C290.85,10.006,292.768,10.595,292.768,11.771z"/>
<path d="M321.695,22.564c0,4.509-2.084,8.399-6.25,11.677c-3.832,3.052-8.041,4.577-12.627,4.577c-3.244,0-6.18-0.89-8.809-2.667
	s-4.586-4.179-5.873-7.203c-0.392-0.867-0.588-1.722-0.588-2.562c0-1.12,0.322-2.338,0.965-3.654
	c1.595-3.444,4.489-6.384,8.684-8.82c4.027-2.295,8.013-3.444,11.956-3.444c3.188,0,6.075,1.218,8.661,3.654
	C320.402,16.559,321.695,19.373,321.695,22.564z M318.336,24.665c0-1.12-0.52-2.395-1.555-3.822
	c-2.492-3.332-5.529-4.998-9.113-4.998c-2.997,0-6.217,0.868-9.66,2.604c-4.593,2.296-6.889,4.34-6.889,6.132
	c0,0.812,0.447,1.736,1.344,2.771c3.584,4.116,7.379,6.174,11.383,6.174c3.08,0,6.132-0.728,9.156-2.184
	C316.557,29.551,318.336,27.325,318.336,24.665z"/>
<path d="M350.508,29.956c0,0.812-0.309,1.695-0.924,2.646c-1.344,2.156-3.851,3.963-7.519,5.418c-3.248,1.316-6.3,1.975-9.155,1.975
	c-1.513,0-2.898-0.449-4.158-1.345c-1.4-1.008-2.1-2.239-2.1-3.696c0-0.476,0.098-1.021,0.293-1.638
	c0.252-0.812,0.561-1.218,0.924-1.218c0.225,0,0.602,0.35,1.135,1.05c1.035,1.232,2.365,1.849,3.99,1.849
	c1.848,0,3.92-0.322,6.215-0.967c2.465-0.615,4.396-1.399,5.797-2.352c0.195-0.141,0.294-0.252,0.294-0.336
	c0-0.195-0.435-0.463-1.302-0.799c-1.904-0.699-4.145-1.245-6.721-1.637c-0.98-0.141-3.29-0.406-6.93-0.799
	c-4.061-0.42-6.51-0.966-7.35-1.638c-0.309-0.224-0.463-0.589-0.463-1.093s0.168-1.133,0.504-1.889
	c0.336-0.757,0.7-1.316,1.093-1.681c1.624-1.288,4.018-3.248,7.182-5.88c1.681-1.456,3.808-2.884,6.384-4.284
	c3.052-1.652,5.445-2.478,7.183-2.478c1.147,0,2.288,0.54,3.423,1.617c1.134,1.078,1.701,2.233,1.701,3.465
	c0,0.393-0.127,0.952-0.379,1.68c-0.308,0.84-0.629,1.26-0.965,1.26c-0.113,0-0.352-0.153-0.715-0.462
	c-1.484-1.288-3.094-1.932-4.83-1.932c-2.996,0-7.07,2.086-12.222,6.258c-0.812,0.616-1.218,1.008-1.218,1.176
	c0,0.196,1.05,0.448,3.15,0.756c0.699,0.084,2.085,0.238,4.158,0.462c3.163,0.336,5.838,0.854,8.021,1.555
	C348.674,26.233,350.508,27.885,350.508,29.956z"/>
</svg>
