<?xml version="1.0" encoding="utf-8"?>
<!-- Generator: Adobe Illustrator 15.0.0, SVG Export Plug-In . SVG Version: 6.00 Build 0)  -->
<!DOCTYPE svg PUBLIC "-//W3C//DTD SVG 1.1//EN" "http://www.w3.org/Graphics/SVG/1.1/DTD/svg11.dtd">
<svg version="1.1" id="Layer_1" xmlns="http://www.w3.org/2000/svg" xmlns:xlink="http://www.w3.org/1999/xlink" x="0px" y="0px"
	 width="892px" height="113px" viewBox="0 0 892 113" enable-background="new 0 0 892 113" xml:space="preserve">
<g>
	<path fill="#FFFFFF" stroke="#CCCCCC" stroke-width="3" stroke-miterlimit="10" d="M185.4,62.715
		c-4.011,12.417-13.17,23.135-27.475,32.147c-13.236,8.279-26.105,12.418-38.604,12.418c-8.892,0-16.161-2.439-21.81-7.311
		c-5.65-4.872-8.874-11.415-9.676-19.628c-0.335-2.536-0.067-5.107,0.802-7.712c1.003-3.204,2.974-6.641,5.916-10.313
		c7.486-9.481,18.015-17.459,31.586-23.937c12.901-6.274,24.667-9.412,35.296-9.412c7.353,0,13.452,2.353,18.3,7.06
		c4.846,4.707,7.27,10.532,7.27,17.476C187.004,56.507,186.469,59.578,185.4,62.715z M171.362,65.165
		c0-1.738-0.468-3.676-1.404-5.815c-3.409-8.222-9.493-12.333-18.25-12.333c-5.214,0-11.732,1.303-19.553,3.91
		c-7.487,2.474-14.172,5.449-20.054,8.924c-5.014,2.943-7.922,5.65-8.724,8.122c-0.536,1.604-0.135,3.609,1.203,6.017
		c5.615,10.362,13.336,15.542,23.163,15.542c8.022,0,16.811-2.071,26.372-6.217C165.612,78.235,171.362,72.184,171.362,65.165z"/>
	<path fill="#FFFFFF" stroke="#CCCCCC" stroke-width="3" stroke-miterlimit="10" d="M260.576,61.957
		c0,0.401-0.067,2.441-0.201,6.116c-0.134,2.675-0.2,4.881-0.2,6.619c0,6.953,0.802,11.966,2.406,15.04
		c0.602,1.271,0.668,2.642,0.201,4.111c-0.602,1.873-2.241,4.312-4.914,7.32c-3.143,3.342-5.715,5.014-7.721,5.014
		c-2.073,0-3.61-4.045-4.613-12.133c-0.669-5.816-1.002-12.634-1.002-20.456c0-2.673,0.05-4.629,0.15-5.866
		c0.101-1.236,0.216-3.259,0.351-6.066c0-0.401,0.1-1.168,0.301-2.306c0.133-0.734,0.133-1.103,0-1.103
		c-0.536,0-6.452,7.454-17.748,22.36c-1.604,2.273-4.011,5.65-7.22,10.128c-1.271,2.808-3.61,6.016-7.019,9.625
		c-3.945,4.078-7.187,6.117-9.727,6.117c-4.278,0-6.417-7.687-6.417-23.062c0-2.672,0.066-5.849,0.201-9.526
		c0.133-3.944,0.233-6.082,0.301-6.418c-3.877,5.75-7.755,12.702-11.632,20.856c-1.07,2.274-2.14,4.146-3.208,5.616
		c-1.271,2.005-3.344,4.513-6.217,7.521c-3.477,3.609-5.816,5.415-7.019,5.415c-1.269,0-2.422-0.769-3.459-2.306
		c-1.036-1.539-1.554-3.042-1.554-4.513c0-1.068,0.436-2.138,1.303-3.208c0.669-0.935,1.372-1.871,2.106-2.807
		c1.672-2.809,4.244-6.985,7.721-12.534c2.741-4.077,6.618-10.328,11.632-18.751c1.805-2.94,3.542-5.881,5.214-8.823
		c2.005-3.542,3.442-6.651,4.312-9.326c0.802-2.406,1.654-4.261,2.557-5.564c0.902-1.304,3.124-2.691,6.668-4.163
		c3.074-1.336,5.18-2.005,6.317-2.005c2.006,0,3.008,0.97,3.008,2.908c0,0.536-0.301,2.256-0.902,5.164s-1.003,9.576-1.203,20.004
		c-0.201,10.095-0.101,16.58,0.301,19.453c2.472-3.274,7.453-9.726,14.94-19.353l12.434-15.843
		c4.277-5.415,7.084-8.824,8.422-10.228c1.337-1.403,4.979-3.274,10.93-5.616c1.938,0.135,2.908,3.343,2.908,9.626
		c0,2.742-0.401,6.619-1.203,11.633C261.143,55.907,260.642,59.685,260.576,61.957z"/>
	<path fill="#FFFFFF" stroke="#CCCCCC" stroke-width="3" stroke-miterlimit="10" d="M293.808,46.415
		c-1.271,2.808-2.976,7.019-5.114,12.634c-3.811,11.632-6.117,20.791-6.919,27.475c-0.201,2.073-0.536,3.778-1.003,5.114
		c-0.536,1.74-2.073,4.612-4.613,8.624c-2.875,4.678-4.913,7.019-6.116,7.019c-1.003,0-2.291-0.451-3.861-1.354
		c-1.571-0.902-2.524-1.823-2.857-2.757c-0.201-0.602,0.333-2.874,1.604-6.819c1.604-5.014,3.209-10.027,4.813-15.041
		c1.871-5.816,3.274-10.83,4.211-15.041c0.735-3.542,2.039-8.824,3.911-15.843c1.737-5.214,2.64-7.921,2.707-8.122
		c1.003-2.005,3.442-4.512,7.32-7.52c1.204-0.401,2.171-0.602,2.908-0.602c1.136,0,2.005,1.001,2.607,3.008
		c0.467,1.671,0.702,3.577,0.702,5.715C294.108,44.577,294.008,45.747,293.808,46.415z"/>
	<path fill="#FFFFFF" stroke="#CCCCCC" stroke-width="3" stroke-miterlimit="10" d="M370.804,46.013
		c-0.602,1.67-1.839,3.61-3.71,5.815c-2.273,2.474-4.211,3.709-5.815,3.709c-1.002,0-2.942-1.453-5.816-4.361
		s-5.75-4.362-8.623-4.362c-2.942,0-6.384,0.5-10.328,1.504c-5.482,1.471-12.2,4.848-20.154,10.128
		c-8.624,5.75-13.571,10.528-14.84,14.339c-0.335,1.204-0.401,2.474-0.201,3.811c0.868,4.546,3.542,7.988,8.021,10.328
		c4.011,2.005,9.091,3.007,15.242,3.007c4.612,0,9.158-0.566,13.637-1.704c3.274-0.935,7.787-2.573,13.537-4.913
		c1.002-0.467,1.905-0.703,2.707-0.703c1.871,0,2.808,1.171,2.808,3.509c0,0.804-0.135,1.605-0.401,2.407
		c-2.141,6.484-8.357,11.496-18.651,15.041c-7.688,2.607-15.208,3.911-22.562,3.911c-7.688,0-14.439-1.54-20.255-4.614
		c-7.154-3.676-10.729-8.923-10.729-15.742c0-2.272,0.436-4.646,1.304-7.12c3.008-9.291,8.957-17.713,17.849-25.269
		c20.389-17.312,37.567-25.97,51.54-25.97c4.077,0,7.152,1.37,9.225,4.111c1.337,1.538,3.275,3.977,5.816,7.32
		C371.472,41.735,371.606,43.673,370.804,46.013z"/>
	<path fill="#FFFFFF" stroke="#CCCCCC" stroke-width="3" stroke-miterlimit="10" d="M439.656,43.006
		c-2.206,2.674-3.845,4.01-4.913,4.01c-0.736,0-1.639-0.535-2.708-1.604c-1.403-1.404-2.542-2.372-3.41-2.908
		c-1.804-1.068-3.945-1.604-6.417-1.604c-7.487,0-19.989,5.582-37.501,16.745c3.008,0.536,8.122,1.204,15.341,2.005
		c7.954,0.802,14.84,2.44,20.656,4.913c8.891,3.61,12.367,8.29,10.429,14.039c-0.736,2.473-2.474,5.148-5.214,8.021
		c-5.75,6.017-14.273,11.03-25.57,15.041c-9.961,3.475-18.818,5.214-26.572,5.214c-3.544,0-6.685-0.936-9.426-2.807
		c-3.007-2.141-4.512-4.948-4.512-8.423c0-1.204,0.201-2.489,0.602-3.861c0.401-1.37,1.504-3.191,3.309-5.465
		c2.006-2.607,3.61-3.911,4.814-3.911c1.135,0,2.07,0.636,2.807,1.905c1.069,1.94,1.838,3.143,2.307,3.61
		c1.403,1.338,3.375,2.005,5.915,2.005c4.345,0,9.527-0.703,15.543-2.106c6.282-1.403,11.596-3.208,15.943-5.415
		c-4.211-2.006-9.661-3.542-16.345-4.613c-1.873-0.266-7.788-0.935-17.748-2.005c-9.36-1.069-15.341-2.44-17.949-4.111
		c-1.135-0.734-1.704-1.704-1.704-2.908c0-0.602,0.134-1.304,0.401-2.106c0.534-1.604,1.67-3.542,3.409-5.815
		c1.738-2.272,3.41-3.911,5.014-4.913c5.28-3.476,13.202-8.689,23.765-15.643c5.815-3.875,12.801-7.686,20.957-11.431
		c9.759-4.478,17.079-6.718,21.96-6.718c2.94,0,5.515,1.152,7.721,3.459c2.206,2.306,3.309,5.031,3.309,8.172
		c0,1.204-0.185,2.425-0.552,3.66C442.948,38.678,441.728,40.533,439.656,43.006z"/>
	<path fill="#FFFFFF" stroke="#CCCCCC" stroke-width="3" stroke-miterlimit="10" d="M614.088,33.597
		c-0.536,1.614-1.806,3.43-3.811,5.447c-2.342,2.625-4.613,3.936-6.819,3.936c-0.735,0-1.821-0.083-3.259-0.251
		c-1.438-0.166-2.523-0.25-3.259-0.25c-4.346,0-9.927,0.736-16.745,2.206c-10.095,2.207-15.742,3.409-16.946,3.61
		c-2.141,0.335-4.245,0.669-6.317,1.003c-2.406,0.401-4.512,1.002-6.316,1.804c-0.736,0.336-1.389,1.339-1.956,3.009
		c-0.568,1.672-0.852,2.741-0.852,3.208c0,0.602,0.602,0.902,1.805,0.902c0.936,0,2.172-0.233,3.71-0.702
		c2.206-0.668,3.476-1.036,3.811-1.104c9.091-1.804,19.151-2.707,30.182-2.707c4.345,0,7.837,0.15,10.479,0.451
		c2.64,0.301,4.779,0.953,6.418,1.955c1.637,1.003,2.456,2.106,2.456,3.31c0,0.268-0.034,0.536-0.1,0.802
		c-0.536,1.672-1.739,3.545-3.61,5.615c-2.341,2.607-4.612,3.911-6.818,3.911c-0.803,0-2.005-0.117-3.609-0.351
		c-1.605-0.233-2.842-0.352-3.71-0.352c-4.479,0-10.028,0.703-16.646,2.106c-8.021,1.604-15.643,2.875-22.862,3.81
		c-2.141,0.335-3.644,0.669-4.512,1.003c-1.604,0.601-2.675,1.671-3.209,3.208c-1.203,3.61-1.805,5.683-1.805,6.216
		c0,1.07,0.434,1.604,1.303,1.604c0.468,0,1.337-0.167,2.607-0.501c17.046-4.412,30.282-6.619,39.708-6.619
		c1.737,0,3.743,0.436,6.017,1.304c2.873,1.137,4.311,2.44,4.311,3.91c0,0.268-0.034,0.536-0.1,0.803
		c-0.269,0.936-1.003,2.306-2.206,4.111s-2.24,3.042-3.108,3.709c-1.471,1.138-3.144,1.705-5.014,1.705
		c-0.336,0-0.802-0.033-1.403-0.1c-0.603-0.066-1.003-0.101-1.204-0.101c-5.349,0-11.731,1.271-19.151,3.811
		c-7.421,2.54-14.607,4.578-21.56,6.116c-0.802,0.201-2.09,0.719-3.859,1.555c-1.772,0.834-3.227,1.353-4.362,1.555
		c-1.07,0-2.875-0.704-5.415-2.109c-2.808-1.473-4.344-2.844-4.612-4.116c0.269-0.535,0.67-1.893,1.204-4.066
		c0.535-2.175,0.936-3.597,1.202-4.266c2.473-7.63,4.145-12.883,5.014-15.763c1.806-5.889,3.275-11.11,4.412-15.662
		c0.803-3.882,2.239-9.672,4.312-17.369c0.734-2.61,1.436-5.253,2.104-7.931c0.803-1.939,3.175-4.549,7.12-7.83
		c2.206-0.802,3.542-1.206,4.012-1.206c1.469,0,3.742,1.104,6.817,3.313c11.431-2.945,23.73-4.417,36.9-4.417
		c4.478,0,8.005,0.151,10.579,0.454c2.572,0.305,4.679,0.959,6.317,1.969c1.637,1.009,2.456,2.152,2.456,3.429
		C614.188,32.958,614.153,33.261,614.088,33.597z"/>
	<path fill="#FFFFFF" stroke="#CCCCCC" stroke-width="3" stroke-miterlimit="10" d="M665.81,92.564
		c-0.669,2.341-2.206,4.914-4.613,7.722c-2.674,3.208-5.114,4.813-7.319,4.813c-2.073,0-3.109-1.338-3.109-4.011
		c0-1.404,0.301-3.341,0.903-5.815c0.2-0.802,0.301-1.537,0.301-2.206c0-2.206-1.572-3.576-4.713-4.111
		c-0.536-0.066-3.911-0.1-10.128-0.1c-3.677,0-8.458,0.468-14.339,1.403c-7.956,1.204-12.769,1.905-14.439,2.106
		c-1.069,0.134-2.507,1.839-4.312,5.114c-2.072,3.675-4.58,6.216-7.521,7.621c-1.002,0.333-1.938,0.501-2.808,0.501
		c-1.938,0-2.907-1.204-2.907-3.61c0-0.602,0.1-1.203,0.301-1.805c1.069-4.277,4.245-10.394,9.525-18.349
		c0.401-1.605,1.437-3.11,3.108-4.513c10.494-14.64,22.694-26.805,36.6-36.5c0.602-0.466,2.472-2.205,5.615-5.214
		c2.139-2.071,4.412-3.442,6.818-4.111c1.604-0.133,4.011-0.5,7.22-1.103c2.673-0.602,4.277-0.902,4.813-0.902
		c2.672,0,4.01,8.188,4.01,24.566C668.816,72.044,667.814,84.878,665.81,92.564z M652.874,70.104
		c1.068-0.804,1.604-3.175,1.604-7.12c0-2.54-0.201-5.315-0.602-8.323c-0.401-2.672-0.753-4.327-1.054-4.962
		c-0.301-0.636-0.686-0.953-1.152-0.953c-2.542,0-8.239,3.526-17.098,10.579c-8.857,7.054-13.621,11.849-14.288,14.388
		c-0.135,0.402,1.437,0.602,4.713,0.602c4.412,0,9.158-0.301,14.239-0.903C646.321,72.61,650.868,71.508,652.874,70.104z"/>
	<path fill="#FFFFFF" stroke="#CCCCCC" stroke-width="3" stroke-miterlimit="10" d="M725.769,85.494
		c-0.268,0.802-0.902,2.041-1.905,3.709c-1.203,2.007-2.205,3.31-3.008,3.911c-1.338,1.138-3.344,1.705-6.017,1.705
		c-4.278,0-9.994,1.239-17.146,3.711c-11.231,3.943-17.046,5.982-17.447,6.117c-1.604,0.667-4.078,1.569-7.421,2.708
		c-0.669,0.2-1.236,0.301-1.704,0.301c-1.404,0-2.841-0.669-4.312-2.007s-2.206-2.741-2.206-4.21
		c-0.133-0.736-0.033-1.605,0.301-2.606c0.2-0.602,0.551-1.521,1.053-2.759c0.502-1.235,0.853-2.188,1.053-2.856
		c2.473-7.553,4.145-12.769,5.014-15.643c1.805-5.948,3.274-11.195,4.412-15.742c0.868-3.877,2.339-9.693,4.412-17.448
		c1.469-4.678,2.507-7.52,3.108-8.523c1.136-1.805,3.71-4.376,7.721-7.722c1.003-0.465,1.771-0.701,2.307-0.701
		c1.002,0,1.805,1.037,2.406,3.108c0.535,1.74,0.802,3.745,0.802,6.017c0,1.738-0.167,3.007-0.501,3.811l-0.301,0.801
		c-1.138,2.742-2.774,6.853-4.913,12.333c-3.344,10.362-6.151,21.158-8.423,32.389c0.667,0,1.871-0.233,3.609-0.703
		c13.637-3.81,23.966-5.716,30.984-5.716c1.938,0,3.71,0.336,5.314,1.003c2.006,0.802,3.008,2.041,3.008,3.709
		C725.969,84.526,725.901,84.96,725.769,85.494z"/>
	<path fill="#FFFFFF" stroke="#CCCCCC" stroke-width="3" stroke-miterlimit="10" d="M813.342,33.596
		c-0.537,1.613-1.806,3.43-3.811,5.448c-2.342,2.625-4.613,3.936-6.819,3.936c-0.736,0-1.821-0.083-3.259-0.251
		c-1.438-0.167-2.523-0.25-3.259-0.25c-4.346,0-9.927,0.736-16.745,2.206c-10.095,2.206-15.742,3.409-16.946,3.61
		c-2.141,0.334-4.245,0.669-6.317,1.001c-2.406,0.402-4.512,1.003-6.316,1.805c-0.736,0.335-1.389,1.338-1.956,3.009
		c-0.568,1.671-0.853,2.741-0.853,3.208c0,0.602,0.603,0.902,1.806,0.902c0.936,0,2.172-0.233,3.71-0.702
		c2.206-0.667,3.476-1.036,3.811-1.103c9.091-1.805,19.151-2.708,30.182-2.708c4.345,0,7.837,0.15,10.479,0.451
		c2.64,0.301,4.778,0.953,6.418,1.956c1.637,1.003,2.456,2.106,2.456,3.31c0,0.267-0.034,0.536-0.101,0.802
		c-0.536,1.671-1.738,3.544-3.609,5.616c-2.341,2.606-4.612,3.91-6.818,3.91c-0.803,0-2.005-0.116-3.609-0.352
		c-1.605-0.233-2.843-0.35-3.711-0.35c-4.479,0-10.027,0.702-16.646,2.106c-8.021,1.604-15.642,2.874-22.861,3.81
		c-2.141,0.334-3.645,0.669-4.513,1.003c-1.604,0.601-2.675,1.671-3.208,3.208c-1.203,3.609-1.806,5.683-1.806,6.216
		c0,1.071,0.434,1.605,1.304,1.605c0.468,0,1.336-0.166,2.607-0.501c17.046-4.412,30.282-6.618,39.708-6.618
		c1.737,0,3.743,0.435,6.017,1.304c2.873,1.136,4.311,2.44,4.311,3.91c0,0.269-0.034,0.536-0.1,0.802
		c-0.269,0.938-1.003,2.307-2.206,4.111c-1.203,1.805-2.24,3.043-3.108,3.71c-1.471,1.138-3.144,1.704-5.014,1.704
		c-0.336,0-0.802-0.033-1.404-0.1c-0.602-0.066-1.002-0.1-1.203-0.1c-5.349,0-11.731,1.271-19.151,3.81
		c-7.421,2.54-14.607,4.579-21.56,6.116c-0.802,0.2-2.09,0.718-3.859,1.554c-1.772,0.835-3.227,1.354-4.362,1.555
		c-1.07,0-2.875-0.704-5.415-2.109c-2.808-1.472-4.344-2.844-4.612-4.116c0.269-0.536,0.669-1.892,1.204-4.065
		c0.535-2.175,0.936-3.598,1.202-4.267c2.473-7.629,4.145-12.883,5.014-15.763c1.806-5.889,3.275-11.109,4.412-15.661
		c0.803-3.883,2.238-9.672,4.312-17.369c0.734-2.61,1.436-5.254,2.104-7.932c0.803-1.939,3.175-4.549,7.12-7.829
		c2.206-0.803,3.542-1.205,4.011-1.205c1.47,0,3.743,1.104,6.818,3.312c11.431-2.944,23.729-4.417,36.9-4.417
		c4.478,0,8.005,0.151,10.579,0.454c2.572,0.303,4.678,0.958,6.317,1.968c1.637,1.009,2.456,2.153,2.456,3.429
		C813.441,32.956,813.407,33.26,813.342,33.596z"/>
	<path fill="#FFFFFF" stroke="#CCCCCC" stroke-width="3" stroke-miterlimit="10" d="M886.314,39.471
		c-2.942,9.159-11.565,18.284-25.87,27.374c-2.742,1.739-8.558,5.014-17.447,9.827c1.67,1.471,4.145,3.677,7.42,6.617
		c2.271,2.274,4.211,4.38,5.815,6.318c0.602,0.669,1.254,1.338,1.956,2.005c0.701,0.669,1.053,1.403,1.053,2.206
		c0,1.002-0.938,2.942-2.808,5.816c-4.211,0.802-7.354,1.203-9.426,1.203c-2.942,0-5.716-0.669-8.322-2.006
		c-0.938-0.534-3.209-2.005-6.819-4.411c-2.34-1.604-5.248-3.174-8.723-4.713c-4.146-1.737-7.455-2.607-9.928-2.607
		c-0.401,0-0.568-0.065-0.501-0.2c-0.201,0.268-0.669,1.372-1.404,3.31c-4.146,11.296-7.922,16.945-11.33,16.945
		c-0.536,0-1.905-0.435-4.111-1.303c-2.472-0.87-3.71-2.307-3.71-4.312c0-0.936,0.436-2.672,1.304-5.214
		c0.536-1.871,1.453-4.646,2.757-8.323c1.304-3.676,2.257-6.417,2.858-8.222c1.67-4.946,2.907-9.458,3.71-13.537
		c0.667-3.541,1.905-8.789,3.71-15.742c0.266-0.801,0.718-2.055,1.354-3.761c0.635-1.704,1.086-2.991,1.354-3.86
		c0.603-1.738,2.339-4.145,5.214-7.22c3.142-3.409,5.816-5.247,8.022-5.515c9.158-1.469,22.261-2.205,39.307-2.205
		c7.554,0,12.7,0.235,15.442,0.702c6.482,1.137,9.726,3.71,9.726,7.72C886.916,37.366,886.716,38.403,886.314,39.471z
		 M870.572,45.186c0.065-0.401,0-0.667-0.201-0.802c-0.736-0.401-6.317-0.602-16.745-0.602c-12.635,0-21.192,0.536-25.67,1.604
		c-0.87,0.201-2.206,3.007-4.011,8.423l-2.006,6.316c-1.271,3.745-1.904,6.017-1.904,6.819c0,0.469,0.133,0.702,0.4,0.702
		c0.602,0,1.47-0.133,2.607-0.401c16.979-3.743,31.619-9.993,43.919-18.75C869.101,46.958,870.304,45.855,870.572,45.186z"/>
	<path fill="#FFFFFF" stroke="#CCCCCC" stroke-width="3" stroke-miterlimit="10" d="M113.75,27.293
		c-0.701,2.094-2.444,4.626-5.237,7.592c-3.142,3.318-5.717,4.975-7.724,4.975c-1.485,0-3.972-1.899-7.462-5.695
		c-3.492-3.796-7.026-5.694-10.604-5.694c-7.854,0-16.059,2.618-24.611,7.855C40.221,47.322,30.314,55.788,28.396,61.722
		c-0.612,2.008-0.743,4.058-0.393,6.152c0.959,5.76,4.059,10.081,9.295,12.961c4.799,2.706,10.866,4.058,18.196,4.058
		c5.934,0,11.868-1.026,17.804-3.077c5.934-2.05,11.825-4.167,17.672-6.349c2.792,0,4.19,1.571,4.19,4.713
		c0,1.048-0.131,2.009-0.393,2.879c-2.795,8.729-10.692,15.271-23.695,19.637c-9.34,3.054-18.896,4.582-28.669,4.582
		c-9.949,0-18.154-1.878-24.611-5.629C10.373,97.285,6.665,90.915,6.665,82.536c0-3.489,0.612-7.285,1.833-11.388
		c3.839-11.695,11.389-22.517,22.647-32.467C56.541,16.341,77.792,5.169,94.898,5.169c4.013,0,7.2,1.134,9.557,3.403l5.498,7.593
		c2.792,3.841,4.189,6.676,4.189,8.509C114.142,25.548,114.011,26.421,113.75,27.293z"/>
	<path fill="#FFFFFF" stroke="#CCCCCC" stroke-width="3" stroke-miterlimit="10" d="M558.865,19.158
		c0,2.649-0.513,5.428-1.539,8.333c-2.138,6.324-6.239,12.906-12.307,19.743c-17.095,18.975-36.367,34.273-57.82,45.896
		c-5.384,2.905-11.751,5.77-19.102,8.59c-9.316,3.589-15.983,5.384-20,5.384c-2.82,0-4.23-1.154-4.23-3.461
		c0-1.199,0.343-2.565,1.026-4.102c1.368-3.163,3.89-10.811,7.564-22.948c3.417-11.11,5.683-18.847,6.794-23.204
		c1.025-4.787,2.777-11.924,5.258-21.411c4.27-13.162,9.998-20.684,17.177-22.564c9.059-2.309,25.768-3.462,50.126-3.462
		C549.934,5.952,558.949,10.356,558.865,19.158z M538.224,32.747c0-2.563-5.512-3.846-16.537-3.846
		c-4.616,0-11.368,0.172-20.256,0.512c-11.968,0.513-18.314,1.112-19.039,1.795c-0.728,0.685-2.33,4.872-4.808,12.562
		c-6.07,18.635-9.444,31.538-10.127,38.718c0.597-0.084,1.622-0.385,3.077-0.897c17.605-5.726,34.359-15.256,50.254-28.588
		C532.412,43.088,538.224,36.336,538.224,32.747z"/>
</g>
</svg>
