<?xml version="1.0" encoding="utf-8"?>
<!-- Generator: Adobe Illustrator 15.0.2, SVG Export Plug-In . SVG Version: 6.00 Build 0)  -->
<!DOCTYPE svg PUBLIC "-//W3C//DTD SVG 1.1//EN" "http://www.w3.org/Graphics/SVG/1.1/DTD/svg11.dtd">
<svg version="1.1" id="Layer_1" xmlns="http://www.w3.org/2000/svg" xmlns:xlink="http://www.w3.org/1999/xlink" x="0px" y="0px"
	 width="659.091px" height="229.545px" viewBox="0 0 659.091 229.545" enable-background="new 0 0 659.091 229.545"
	 xml:space="preserve">
<path fill="none" d="M439.208,113.948c-0.2-0.424-0.457-0.636-0.768-0.636c-1.695,0-5.494,2.351-11.4,7.053
	c-0.484,0.645-0.789,1.188-0.905,1.629c-0.09,0.269,0.958,0.402,3.143,0.402c2.942,0,6.108-0.201,9.497-0.604
	c0.527-0.06,1.029-0.121,1.516-0.187c-0.049-1.357-0.174-2.807-0.379-4.349C439.644,115.474,439.41,114.371,439.208,113.948z"/>
<path fill="#F0AD4E" d="M427.041,120.365c5.906-4.702,9.705-7.053,11.4-7.053c0.311,0,0.567,0.211,0.768,0.636
	c0.201,0.423,0.436,1.526,0.703,3.31c0.205,1.542,0.33,2.991,0.379,4.349c0.319-0.042,0.633-0.086,0.935-0.131
	c0.057-4.792,0.487-9.496,1.267-14.081c-1.829,1.169-4.101,2.833-6.828,5.003C431.293,115.879,428.421,118.533,427.041,120.365z"/>
<g>
	<path fill="#ED9C28" d="M59.851,141.324c-6.229,2.037-12.603,3.057-19.121,3.057c-6.636,0-12.107-1.252-16.414-3.754
		c-4.948-2.912-7.421-7.16-7.421-12.748c0-2.328,0.408-4.858,1.223-7.596c1.967-5.993,5.401-11.64,10.289-16.945
		c-1.255,1.046-2.524,2.13-3.812,3.262c-7.509,6.635-12.544,13.853-15.105,21.652c-0.814,2.737-1.222,5.269-1.222,7.596
		c0,5.588,2.473,9.836,7.421,12.747c4.306,2.503,9.779,3.755,16.414,3.755c6.518,0,12.891-1.02,19.121-3.056
		c5.911-1.985,10.236-4.646,12.984-7.981c-0.215-0.469-0.415-0.951-0.594-1.445C62.437,140.386,61.189,140.875,59.851,141.324z"/>
	<path fill="#ED9C28" d="M74.693,95.619c-2.329-2.532-4.687-3.798-7.073-3.798c-5.237,0-10.71,1.747-16.414,5.239
		c-9.745,5.99-15.934,10.853-18.574,14.59c2.755-2.028,6.064-4.233,9.948-6.62c5.704-3.493,11.175-5.239,16.414-5.239
		c2.386,0,4.743,1.267,7.072,3.797c2.328,2.533,3.986,3.798,4.976,3.798c1.339,0,3.056-1.104,5.151-3.317
		c1.693-1.797,2.801-3.354,3.34-4.671C78.532,99.295,76.922,98.044,74.693,95.619z"/>
	<path fill="#ED9C28" d="M126.735,116.293c0-1.16-0.312-2.451-0.936-3.879c-2.273-5.483-6.331-8.226-12.171-8.226
		c-3.478,0-7.825,0.87-13.041,2.608c-4.994,1.649-9.452,3.634-13.375,5.952c-3.344,1.962-5.283,3.768-5.819,5.417
		c-0.11,0.332-0.154,0.693-0.144,1.078c3.246-1.695,6.813-3.189,10.711-4.478c5.216-1.738,9.562-2.608,13.04-2.608
		c5.841,0,9.898,2.742,12.171,8.226c0.624,1.427,0.937,2.72,0.937,3.879c0,1.046-0.202,2.058-0.584,3.039
		C123.659,124.149,126.735,120.48,126.735,116.293z"/>
	<path fill="#ED9C28" d="M71.564,121.271c0.67-2.137,1.984-4.43,3.946-6.878c0.322-0.408,0.654-0.812,0.993-1.211
		c-3.771,2.782-6.981,5.839-9.619,9.18c-1.12,1.398-2.022,2.743-2.721,4.04c2.287-0.805,4.562-1.623,6.829-2.458
		C71.078,123.059,71.265,122.167,71.564,121.271z"/>
	<path fill="#ED9C28" d="M92.028,144.38c-5.93,0-10.777-1.626-14.545-4.875c-2.012-1.735-3.559-3.791-4.649-6.162
		c-2.125,2.579-5.202,4.752-9.22,6.523c0.18,0.494,0.379,0.977,0.594,1.445c1.09,2.371,2.637,4.426,4.648,6.162
		c3.767,3.249,8.615,4.876,14.546,4.876c8.335,0,16.918-2.761,25.746-8.283c4.972-3.132,9.003-6.577,12.11-10.326
		c-1.105,0.805-2.266,1.591-3.484,2.358C108.948,141.62,100.365,144.38,92.028,144.38z"/>
	<path fill="#ED9C28" d="M143.97,128.465c0-1.783,0.044-3.901,0.134-6.354c0.089-2.63,0.156-4.056,0.201-4.279
		c-2.586,3.834-5.173,8.471-7.757,13.909c-0.393,0.835-0.785,1.58-1.178,2.253c-0.016,0.867-0.025,1.69-0.025,2.439
		c0,10.256,1.426,15.381,4.279,15.381c1.694,0,3.856-1.36,6.487-4.079c1.387-1.469,2.505-2.837,3.362-4.107
		c-0.43,0.139-0.84,0.218-1.222,0.218C145.397,143.845,143.97,138.718,143.97,128.465z"/>
	<path fill="#ED9C28" d="M123.273,142.575c-0.691-1.026-1.037-2.028-1.037-3.009c0-0.713,0.291-1.427,0.869-2.141
		c0.447-0.623,0.915-1.248,1.405-1.871c1.115-1.874,2.831-4.66,5.149-8.361c1.828-2.718,4.414-6.887,7.757-12.505
		c1.204-1.961,2.363-3.923,3.478-5.885c1.195-2.112,2.07-3.978,2.66-5.628c-0.638,0.218-1.386,0.512-2.258,0.891
		c-2.125,0.881-3.53,1.717-4.231,2.509c0.066,0.631,0.103,1.277,0.103,1.939c0,2.004-0.357,4.052-1.069,6.144
		c-2.188,6.774-6.676,12.788-13.458,18.042c-0.587,0.92-1.126,1.745-1.608,2.463c-2.318,3.699-4.034,6.486-5.148,8.358
		c-0.49,0.624-0.958,1.249-1.405,1.872c-0.579,0.715-0.869,1.428-0.869,2.141c0,0.98,0.346,1.982,1.037,3.009
		c0.691,1.025,1.461,1.539,2.308,1.539c0.802,0,2.362-1.204,4.68-3.612c1.624-1.699,2.859-3.156,3.716-4.375
		C124.595,144.01,123.902,143.505,123.273,142.575z"/>
	<path fill="#ED9C28" d="M176.205,135.554c-0.447-3.88-0.669-8.428-0.669-13.644c0-1.782,0.033-3.087,0.1-3.912
		c0.067-0.824,0.144-2.173,0.234-4.046c0-0.267,0.067-0.779,0.201-1.538c0.089-0.49,0.089-0.735,0-0.735
		c-0.306,0-3.266,3.675-8.864,11.004c-0.074,1.479-0.14,2.576-0.197,3.284c-0.066,0.824-0.1,2.129-0.1,3.911
		c0,5.217,0.223,9.764,0.668,13.643c0.669,5.394,1.694,8.092,3.077,8.092c1.337,0,3.053-1.114,5.149-3.344
		c1.685-1.896,2.745-3.448,3.196-4.667C177.758,143.257,176.826,140.576,176.205,135.554z"/>
	<path fill="#ED9C28" d="M188.068,141.639c-0.134-0.401,0.223-1.917,1.07-4.548c1.07-3.344,2.141-6.688,3.21-10.031
		c1.248-3.879,2.184-7.223,2.808-10.03c0.49-2.363,1.36-5.885,2.609-10.567c0.324-0.973,0.603-1.811,0.84-2.522
		c-0.251-0.224-0.53-0.342-0.84-0.342c-0.491,0-1.137,0.132-1.939,0.401c-2.586,2.006-4.213,3.678-4.882,5.015
		c-0.044,0.134-0.647,1.939-1.805,5.417c-1.249,4.681-2.118,8.205-2.608,10.566c-0.119,0.535-0.253,1.096-0.395,1.669
		c0.232,2.6,0.707,4.613,1.436,6.011c0.402,0.848,0.446,1.762,0.134,2.742c-0.401,1.249-1.494,2.876-3.276,4.883
		c-1.222,1.299-2.312,2.208-3.275,2.75c-0.214,0.67-0.428,1.338-0.643,2.008c-0.847,2.631-1.203,4.146-1.069,4.548
		c0.222,0.624,0.857,1.236,1.906,1.839c1.047,0.602,1.906,0.903,2.575,0.903c0.802,0,2.161-1.562,4.079-4.681
		c1.021-1.611,1.794-2.942,2.329-4.004c-0.119-0.062-0.231-0.116-0.356-0.188C188.927,142.876,188.291,142.261,188.068,141.639z"/>
	<path fill="#ED9C28" d="M243.766,104.054c-1.962,0-4.257,0.334-6.888,1.003c-3.656,0.981-8.137,3.233-13.441,6.755
		c-4.985,3.323-8.124,6.159-9.425,8.51c0.263-0.178,0.524-0.357,0.798-0.54c5.305-3.522,9.785-5.774,13.441-6.755
		c2.63-0.67,4.926-1.003,6.888-1.003c1.916,0,3.833,0.97,5.751,2.909c1.917,1.939,3.211,2.909,3.879,2.909
		c1.07,0,2.363-0.824,3.879-2.474c1.248-1.471,2.073-2.764,2.475-3.879c0.364-1.062,0.432-1.999,0.216-2.813
		c-0.529-0.446-1.133-1.013-1.823-1.71C247.601,105.024,245.683,104.054,243.766,104.054z"/>
	<path fill="#ED9C28" d="M222.969,144.514c-5.127,0-9.63-1.026-13.508-3.077c-4.771-2.451-7.156-5.951-7.156-10.498
		c0-1.516,0.291-3.1,0.869-4.749c1.346-4.153,3.577-8.046,6.685-11.68c-1.122,0.896-2.254,1.817-3.407,2.797
		c-1.526,1.296-2.919,2.632-4.186,4.005c-0.956,3.61-1.586,6.687-1.892,9.226c-0.134,1.384-0.358,2.52-0.669,3.41
		c-0.357,1.161-1.382,3.077-3.076,5.753c-0.855,1.39-1.593,2.453-2.226,3.225c1.034,2.647,3.176,4.809,6.431,6.48
		c3.879,2.051,8.381,3.078,13.509,3.078c4.904,0,9.92-0.871,15.047-2.609c6.528-2.249,10.591-5.383,12.202-9.402
		c-1.096,0.512-2.288,0.99-3.576,1.434C232.888,143.644,227.873,144.514,222.969,144.514z"/>
	<path fill="#ED9C28" d="M258.255,127.795c0.757,0,1.381,0.425,1.872,1.271c0.713,1.294,1.226,2.096,1.539,2.407
		c0.285,0.271,0.607,0.496,0.961,0.684c2.285,0.257,3.774,0.434,4.455,0.53c0.121,0.02,0.235,0.042,0.355,0.062
		c2.494-0.151,5.336-0.596,8.54-1.343c4.189-0.936,7.734-2.14,10.632-3.611c-2.808-1.338-6.442-2.361-10.899-3.076
		c-1.25-0.177-5.195-0.624-11.837-1.337c-6.242-0.713-10.232-1.627-11.971-2.742c-0.758-0.489-1.137-1.137-1.137-1.939
		c0-0.4,0.09-0.869,0.268-1.404c0.17-0.511,0.438-1.075,0.79-1.687c-1.437,0.946-2.703,1.78-3.798,2.501
		c-1.071,0.668-2.186,1.761-3.344,3.275c-1.16,1.517-1.917,2.809-2.274,3.879c-0.177,0.535-0.267,1.004-0.267,1.404
		c0,0.803,0.379,1.449,1.137,1.939c0.381,0.245,0.876,0.479,1.473,0.703c0.731-0.285,1.491-0.588,2.295-0.915
		c0.669-0.312,1.271-0.469,1.805-0.469c1.248,0,1.873,0.782,1.873,2.341c0,0.153-0.024,0.306-0.039,0.459
		c1.127,0.185,2.366,0.358,3.718,0.522c0.199-0.272,0.41-0.552,0.644-0.847C256.382,128.666,257.452,127.795,258.255,127.795z"/>
	<path fill="#ED9C28" d="M294.033,100.11c-4.994,0-13.332,3.723-25.011,11.167c1.029,0.184,2.435,0.391,4.204,0.621
		c5.197-2.54,9.264-3.82,12.18-3.82c1.649,0,3.076,0.357,4.28,1.07c0.579,0.357,1.337,1.003,2.273,1.94
		c0.713,0.713,1.315,1.069,1.806,1.069c0.712,0,1.805-0.891,3.277-2.674c1.381-1.649,2.195-2.887,2.44-3.712
		c0.245-0.824,0.369-1.638,0.369-2.441c0-0.332-0.025-0.655-0.062-0.974c-0.577-0.529-1.074-0.928-1.478-1.177
		C297.109,100.468,295.681,100.11,294.033,100.11z"/>
	<path fill="#ED9C28" d="M261.732,144.113c-2.364,0-4.459-0.624-6.287-1.871c-1.113-0.793-1.905-1.728-2.401-2.793
		c-0.002-0.002-0.003-0.004-0.005-0.006c-0.313-0.312-0.825-1.114-1.539-2.408c-0.491-0.846-1.115-1.27-1.872-1.27
		c-0.802,0-1.872,0.869-3.21,2.607c-1.203,1.517-1.94,2.731-2.206,3.645c-0.269,0.915-0.402,1.772-0.402,2.575
		c0,2.317,1.004,4.189,3.01,5.617c1.828,1.247,3.923,1.873,6.286,1.873c5.172,0,11.078-1.16,17.722-3.479
		c7.534-2.675,13.218-6.018,17.053-10.031c0.987-1.034,1.772-2.03,2.369-2.987c-3.035,1.887-6.631,3.571-10.796,5.05
		C272.811,142.954,266.904,144.113,261.732,144.113z"/>
	<path fill="#ED9C28" d="M337.376,134.945c-3.591,1.936-7.838,3.847-12.739,5.729c-6.213,2.394-10.66,3.59-13.339,3.59
		c-1.88,0-2.821-0.77-2.821-2.308c0-0.8,0.229-1.712,0.685-2.737c0.913-2.108,2.594-7.209,5.044-15.303
		c2.28-7.41,3.791-12.57,4.532-15.476c0.683-3.192,1.852-7.953,3.507-14.28c0.887-2.734,1.867-5.102,2.943-7.106
		c-0.036,0.009-0.078,0.018-0.115,0.027c-4.788,1.254-8.607,6.271-11.456,15.048c-1.655,6.327-2.823,11.087-3.506,14.279
		c-0.742,2.906-2.252,8.066-4.531,15.477c-2.45,8.094-4.132,13.195-5.045,15.304c-0.456,1.025-0.684,1.937-0.684,2.735
		c0,1.539,0.94,2.309,2.821,2.309c2.679,0,7.126-1.196,13.339-3.59c4.902-1.881,9.148-3.792,12.74-5.729
		c11.442-6.2,21.952-13.972,31.534-23.307c0.02-0.079,0.039-0.159,0.058-0.241C353.156,125.347,345.5,130.542,337.376,134.945z"/>
	<path fill="#ED9C28" d="M371.406,94.673c0-1.71-3.676-2.565-11.029-2.565c-3.078,0-7.581,0.115-13.509,0.342
		c-7.981,0.342-12.214,0.741-12.696,1.197c-0.446,0.418-1.381,2.803-2.806,7.143c1.854-0.13,4.14-0.255,6.876-0.372
		c5.927-0.227,10.431-0.342,13.509-0.342c7.354,0,11.028,0.855,11.028,2.565c0,1.385-1.307,3.483-3.905,6.282
		c0.302-0.247,0.604-0.489,0.904-0.742C367.531,101.569,371.406,97.066,371.406,94.673z"/>
	<path fill="#ED9C28" d="M405.15,118.884c-2.988,0-6.688,0.469-11.102,1.405c-5.35,1.069-10.432,1.917-15.248,2.54
		c-1.428,0.225-2.43,0.447-3.009,0.67c-1.069,0.4-1.783,1.114-2.14,2.141c-0.803,2.406-1.203,3.789-1.203,4.145
		c0,0.289,0.06,0.504,0.154,0.676c2.53-0.359,5.131-0.778,7.803-1.257c8.822-2.062,15.871-3.097,21.133-3.097
		c0.731,0,1.545,0.13,2.42,0.361c0.656-0.426,1.32-1.005,1.993-1.755c1.248-1.381,2.051-2.63,2.408-3.745
		c0.044-0.177,0.066-0.355,0.066-0.534c0-0.446-0.175-0.871-0.513-1.275c-0.098-0.015-0.187-0.024-0.289-0.04
		C406.553,118.963,405.729,118.884,405.15,118.884z"/>
	<path fill="#ED9C28" d="M410.566,101.163c-2.898,0-6.621,0.491-11.168,1.472c-6.732,1.471-10.498,2.273-11.302,2.407
		c-1.428,0.224-2.831,0.447-4.213,0.669c-1.605,0.268-3.01,0.669-4.213,1.203c-0.491,0.225-0.927,0.894-1.305,2.007
		c-0.379,1.115-0.567,1.828-0.567,2.139c0,0.401,0.4,0.602,1.203,0.602c0.623,0,1.448-0.155,2.475-0.468
		c1.471-0.445,2.318-0.69,2.541-0.736c6.062-1.203,12.772-1.805,20.129-1.805c1.682,0,3.166,0.035,4.465,0.102
		c0.73-0.438,1.472-1.071,2.223-1.914c1.338-1.346,2.185-2.556,2.542-3.633c0.044-0.224,0.066-0.427,0.066-0.606
		c0-0.438-0.147-0.852-0.437-1.244c-0.09-0.009-0.172-0.017-0.267-0.029C411.781,101.22,411.056,101.163,410.566,101.163z"/>
	<path fill="#ED9C28" d="M372.582,142.958c-0.535,0.135-1.395,0.48-2.574,1.037c-1.182,0.557-2.152,0.902-2.91,1.037
		c-0.713,0-1.917-0.469-3.611-1.407c-1.872-0.982-2.896-1.896-3.076-2.744c0.18-0.357,0.447-1.263,0.804-2.712
		c0.356-1.451,0.624-2.398,0.802-2.845c1.648-5.09,2.764-8.593,3.344-10.514c1.204-3.927,2.184-7.409,2.942-10.445
		c0.163-0.787,0.37-1.707,0.611-2.729c-2.779,2.708-5.636,5.285-8.57,7.728c-0.019,0.082-0.038,0.162-0.058,0.241
		c-0.24,1.022-0.447,1.942-0.609,2.729c-0.758,3.036-1.738,6.519-2.942,10.446c-0.579,1.92-1.695,5.424-3.345,10.513
		c-0.177,0.446-0.444,1.394-0.801,2.845c-0.357,1.449-0.625,2.355-0.803,2.713c0.178,0.848,1.203,1.762,3.075,2.744
		c1.694,0.938,2.897,1.406,3.611,1.406c0.757-0.134,1.728-0.48,2.909-1.037c1.18-0.557,2.04-0.902,2.575-1.036
		c4.636-1.026,9.429-2.386,14.378-4.079c4.948-1.694,9.205-2.541,12.772-2.541c0.134,0,0.401,0.022,0.803,0.066
		c0.401,0.045,0.712,0.066,0.937,0.066c1.248,0,2.362-0.377,3.344-1.137c0.578-0.444,1.27-1.271,2.072-2.475
		c0.803-1.203,1.293-2.116,1.471-2.741c0.045-0.179,0.068-0.356,0.068-0.536c0-0.42-0.189-0.819-0.542-1.199
		c-3.471,0.07-7.564,0.906-12.299,2.527C382.01,140.574,377.217,141.933,372.582,142.958z"/>
	<path fill="#ED9C28" d="M406.474,140.853c0-0.401,0.066-0.803,0.201-1.204c0.713-2.853,2.831-6.933,6.353-12.237
		c0.268-1.07,0.958-2.074,2.073-3.01c3.065-4.276,6.35-8.236,9.852-11.879c-6.06,4.963-11.576,10.711-16.55,17.248
		c-0.011,0.116-0.015,0.233-0.044,0.35c-0.179,0.624-0.668,1.538-1.471,2.742s-1.494,2.028-2.073,2.474
		c-0.216,0.168-0.44,0.309-0.669,0.438c-3.362,5.11-5.402,9.064-6.098,11.846c-0.134,0.4-0.201,0.803-0.201,1.203
		c0,1.605,0.647,2.408,1.94,2.408c0.579,0,1.204-0.112,1.872-0.335c1.961-0.937,3.633-2.632,5.016-5.083
		c0.627-1.139,1.187-1.986,1.682-2.556C407.105,143.232,406.474,142.433,406.474,140.853z"/>
	<path fill="#ED9C28" d="M437.371,132.093c-2.453,0-5.642,0.312-9.564,0.936c-5.306,0.803-8.515,1.271-9.629,1.404
		c-0.713,0.09-1.672,1.227-2.876,3.41c-1.049,1.861-2.267,3.284-3.651,4.272c1.68-0.239,4.188-0.612,7.531-1.118
		c3.922-0.623,7.11-0.936,9.562-0.936c4.146,0,6.397,0.021,6.754,0.066c2.096,0.357,3.144,1.271,3.144,2.742
		c0,0.445-0.066,0.936-0.2,1.471c-0.401,1.65-0.602,2.941-0.602,3.879c0,1.782,0.69,2.675,2.072,2.675
		c1.468,0,3.09-1.065,4.867-3.193c-1.464-5.03-2.499-10.243-3.064-15.597C440.627,132.096,439.179,132.093,437.371,132.093z"/>
</g>
<path fill="none" d="M262.627,132.158c0.812,0.433,1.804,0.654,2.983,0.654c0.584,0,1.197-0.024,1.827-0.062
	c-0.12-0.02-0.234-0.042-0.355-0.062C266.401,132.591,264.912,132.415,262.627,132.158z"/>
<path fill="none" d="M351.75,100.077c-3.078,0-7.582,0.115-13.509,0.342c-2.736,0.117-5.021,0.242-6.876,0.372
	c-0.13,0.397-0.263,0.805-0.402,1.235c-4.048,12.428-6.297,21.033-6.754,25.822c0.399-0.056,1.082-0.256,2.052-0.6
	c11.41-3.71,22.28-9.824,32.612-18.324c2.599-2.799,3.905-4.897,3.905-6.282C362.779,100.932,359.104,100.077,351.75,100.077z"/>
<path fill="none" d="M373.317,130.855c0.312,0,0.892-0.111,1.739-0.334c1.854-0.48,3.632-0.916,5.35-1.317
	c-2.672,0.479-5.272,0.897-7.803,1.257C372.744,130.712,372.972,130.855,373.317,130.855z"/>
<path fill="none" d="M117.173,120.383c-2.273-5.484-6.331-8.226-12.171-8.226c-3.478,0-7.824,0.87-13.04,2.608
	c-3.897,1.289-7.465,2.783-10.711,4.478c0.021,0.852,0.332,1.828,0.947,2.935c3.745,6.911,8.895,10.365,15.449,10.365
	c5.35,0,11.211-1.381,17.587-4.146c0.81-0.357,1.567-0.724,2.292-1.096c0.382-0.981,0.584-1.993,0.584-3.039
	C118.11,123.103,117.797,121.81,117.173,120.383z"/>
<path fill="#F0AD4E" d="M164.902,113.551l8.293-10.566c0.328-0.416,0.641-0.81,0.943-1.19c-2.019,0.922-3.348,1.704-3.952,2.338
	c-0.893,0.936-2.766,3.209-5.618,6.821l-8.292,10.566c-0.536,0.688-1.049,1.349-1.546,1.989c0.044,1.283,0.113,2.27,0.208,2.948
	C156.587,124.275,159.909,119.972,164.902,113.551z"/>
<path fill="#D2322D" stroke="#EEEEEE" stroke-width="3" stroke-miterlimit="10" d="M136.099,114.659
	c0.712-2.092,1.069-4.14,1.069-6.144c0-0.663-0.037-1.308-0.103-1.939c-0.396-3.786-1.976-7.025-4.746-9.715
	c-3.233-3.139-7.3-4.708-12.204-4.708c-7.089,0-14.937,2.092-23.541,6.277c-8.466,4.041-15.157,8.958-20.072,14.752
	c-0.339,0.4-0.67,0.804-0.993,1.211c-1.962,2.448-3.276,4.741-3.946,6.878c-0.299,0.896-0.487,1.788-0.572,2.673
	c0.709-0.261,1.422-0.515,2.129-0.779c1.862,0,2.794,1.048,2.794,3.144c0,0.697-0.087,1.338-0.261,1.92
	c-0.594,1.854-1.535,3.557-2.819,5.115c1.09,2.371,2.637,4.427,4.649,6.162c3.768,3.249,8.615,4.875,14.545,4.875
	c8.336,0,16.919-2.761,25.747-8.281c1.218-0.768,2.378-1.554,3.484-2.358c0.472-0.343,0.931-0.688,1.382-1.04
	C129.422,127.447,133.911,121.433,136.099,114.659z M117.525,127.301c-0.725,0.372-1.482,0.738-2.292,1.096
	c-6.376,2.766-12.238,4.146-17.587,4.146c-6.554,0-11.704-3.454-15.449-10.365c-0.615-1.106-0.926-2.083-0.947-2.935
	c-0.01-0.385,0.034-0.746,0.144-1.078c0.536-1.648,2.475-3.454,5.819-5.417c3.922-2.318,8.381-4.303,13.375-5.952
	c5.216-1.738,9.563-2.608,13.041-2.608c5.84,0,9.897,2.742,12.171,8.226c0.624,1.428,0.936,2.719,0.936,3.879
	C126.735,120.48,123.659,124.149,117.525,127.301z"/>
<path fill="#D2322D" stroke="#EEEEEE" stroke-width="3" stroke-miterlimit="10" d="M184.43,140.302
	c1.782-2.007,2.875-3.634,3.276-4.883c0.312-0.98,0.269-1.895-0.134-2.742c-0.729-1.397-1.204-3.411-1.436-6.011
	c-0.108-1.214-0.169-2.544-0.169-4.02c0-1.159,0.043-2.631,0.133-4.415c0.089-2.451,0.134-3.811,0.134-4.079
	c0.043-1.515,0.378-4.034,1.003-7.556c0.535-3.344,0.802-5.929,0.802-7.759c0-4.19-0.646-6.33-1.939-6.419
	c-3.968,1.562-6.397,2.809-7.289,3.746c-0.789,0.828-2.35,2.708-4.674,5.63c-0.302,0.38-0.615,0.774-0.943,1.19l-8.293,10.566
	c-4.994,6.421-8.315,10.724-9.964,12.906c-0.095-0.679-0.164-1.665-0.208-2.948c-0.081-2.34-0.079-5.677,0.008-10.025
	c0.133-6.955,0.401-11.402,0.802-13.341c0.401-1.939,0.602-3.086,0.602-3.444c0-1.292-0.668-1.939-2.006-1.939
	c-0.759,0-2.163,0.446-4.213,1.337c-2.363,0.982-3.845,1.906-4.447,2.776c-0.602,0.868-1.17,2.106-1.705,3.71
	c-0.062,0.19-0.145,0.396-0.215,0.592c-0.59,1.65-1.464,3.516-2.66,5.628c-1.115,1.962-2.274,3.924-3.478,5.885
	c-3.344,5.618-5.929,9.787-7.757,12.505c-2.319,3.701-4.034,6.487-5.149,8.361c-0.49,0.623-0.958,1.248-1.405,1.871
	c-0.579,0.714-0.869,1.428-0.869,2.141c0,0.98,0.346,1.982,1.037,3.009c0.628,0.931,1.321,1.436,2.077,1.521
	c0.076,0.008,0.152,0.018,0.23,0.018c0.802,0,2.363-1.203,4.681-3.61c1.916-2.007,3.298-3.679,4.146-5.017
	c0.32-0.44,0.641-0.943,0.962-1.492c0.393-0.673,0.785-1.418,1.178-2.253c2.584-5.438,5.171-10.075,7.757-13.909
	c-0.045,0.224-0.112,1.649-0.201,4.279c-0.09,2.453-0.134,4.571-0.134,6.354c0,10.253,1.427,15.38,4.281,15.38
	c0.382,0,0.792-0.079,1.222-0.218c1.475-0.476,3.228-1.757,5.265-3.861c2.273-2.407,3.833-4.547,4.681-6.42
	c2.14-2.985,3.745-5.238,4.814-6.755c1.065-1.405,2.051-2.7,2.973-3.907c5.598-7.329,8.558-11.004,8.864-11.004
	c0.089,0,0.089,0.245,0,0.735c-0.133,0.759-0.201,1.271-0.201,1.538c-0.09,1.873-0.167,3.222-0.234,4.046
	c-0.067,0.825-0.1,2.13-0.1,3.912c0,5.216,0.223,9.764,0.669,13.644c0.622,5.021,1.554,7.703,2.795,8.049
	c0.092,0.026,0.185,0.042,0.281,0.042c0.558,0,1.185-0.206,1.874-0.593C182.118,142.51,183.208,141.601,184.43,140.302z"/>
<path fill="#D2322D" stroke="#EEEEEE" stroke-width="3" stroke-miterlimit="10" d="M199.704,133.948
	c0.312-0.891,0.536-2.026,0.669-3.41c0.305-2.539,0.936-5.615,1.892-9.226c0.722-2.727,1.628-5.759,2.723-9.098
	c1.426-3.745,2.563-6.553,3.411-8.426c0.134-0.445,0.201-1.225,0.201-2.34c0-1.426-0.157-2.697-0.468-3.812
	c-0.401-1.338-0.981-2.006-1.739-2.006c-0.491,0-1.136,0.134-1.939,0.401c-2.585,2.006-4.212,3.679-4.881,5.016
	c-0.033,0.096-0.355,1.064-0.965,2.895c-0.238,0.711-0.516,1.549-0.84,2.522c-1.249,4.682-2.119,8.204-2.609,10.567
	c-0.625,2.808-1.561,6.151-2.808,10.03c-1.07,3.344-2.14,6.688-3.21,10.031c-0.847,2.631-1.204,4.146-1.07,4.548
	c0.223,0.622,0.858,1.237,1.905,1.839c0.125,0.071,0.238,0.125,0.356,0.188c0.884,0.469,1.63,0.715,2.219,0.715
	c0.445,0,1.067-0.496,1.854-1.455c0.633-0.771,1.371-1.835,2.226-3.225C198.322,137.025,199.347,135.109,199.704,133.948z"/>
<path fill="#D2322D" stroke="#EEEEEE" stroke-width="3" stroke-miterlimit="10" d="M248.849,127.928
	c-0.534,0-1.136,0.157-1.805,0.469c-0.804,0.327-1.563,0.63-2.295,0.915c-2.757,1.079-5.007,1.869-6.733,2.361
	c-2.987,0.76-6.019,1.137-9.095,1.137c-4.102,0-7.49-0.668-10.165-2.005c-2.987-1.561-4.771-3.856-5.35-6.888
	c-0.133-0.893-0.09-1.739,0.134-2.542c0.113-0.339,0.273-0.691,0.473-1.054c1.301-2.351,4.44-5.187,9.425-8.51
	c5.305-3.521,9.786-5.773,13.441-6.755c2.63-0.668,4.926-1.003,6.888-1.003c1.917,0,3.834,0.97,5.751,2.91
	c0.689,0.697,1.294,1.264,1.823,1.71c0.94,0.795,1.628,1.198,2.057,1.198c1.07,0,2.362-0.824,3.878-2.474
	c1.248-1.471,2.074-2.765,2.475-3.878c0.535-1.561,0.445-2.854-0.268-3.879c-1.694-2.229-2.987-3.855-3.879-4.881
	c-1.382-1.828-3.433-2.742-6.152-2.742c-9.318,0-20.776,5.774-34.373,17.32c-1.955,1.661-3.691,3.386-5.22,5.173
	c-3.108,3.634-5.339,7.526-6.685,11.68c-0.579,1.649-0.869,3.233-0.869,4.749c0,4.547,2.385,8.047,7.156,10.498
	c3.878,2.051,8.381,3.077,13.508,3.077c4.904,0,9.919-0.87,15.046-2.608c1.288-0.443,2.48-0.922,3.576-1.434
	c4.749-2.219,7.704-5.085,8.863-8.598c0.126-0.382,0.192-0.764,0.229-1.146c0.015-0.153,0.039-0.306,0.039-0.459
	C250.722,128.71,250.096,127.928,248.849,127.928z"/>
<path fill="#D2322D" stroke="#EEEEEE" stroke-width="3" stroke-miterlimit="10" d="M293.029,115.892
	c-3.878-1.649-8.471-2.742-13.775-3.277c-2.345-0.26-4.349-0.499-6.027-0.717c-1.769-0.229-3.175-0.437-4.204-0.621
	c11.679-7.445,20.017-11.167,25.011-11.167c1.648,0,3.076,0.357,4.279,1.069c0.404,0.249,0.9,0.647,1.478,1.177
	c0.251,0.23,0.513,0.479,0.797,0.763c0.712,0.714,1.314,1.07,1.806,1.07c0.712,0,1.805-0.891,3.277-2.675
	c1.381-1.649,2.194-2.887,2.44-3.712c0.245-0.823,0.368-1.638,0.368-2.44c0-2.096-0.736-3.913-2.206-5.45
	c-1.472-1.538-3.188-2.307-5.149-2.307c-3.255,0-8.137,1.495-14.646,4.48c-5.438,2.498-10.098,5.039-13.976,7.625
	c-7.045,4.637-12.328,8.114-15.85,10.432c-1.069,0.668-2.184,1.762-3.343,3.277c-0.606,0.792-1.097,1.521-1.484,2.191
	c-0.352,0.612-0.62,1.176-0.79,1.687c-0.178,0.535-0.268,1.004-0.268,1.404c0,0.803,0.379,1.45,1.137,1.939
	c1.739,1.115,5.729,2.029,11.971,2.742c6.642,0.713,10.587,1.16,11.837,1.337c4.457,0.715,8.091,1.738,10.899,3.076
	c-2.898,1.472-6.442,2.676-10.632,3.611c-3.204,0.747-6.046,1.191-8.54,1.343c-0.63,0.038-1.243,0.062-1.827,0.062
	c-1.18,0-2.171-0.222-2.983-0.654c-0.354-0.188-0.677-0.413-0.961-0.684c-0.312-0.312-0.826-1.113-1.539-2.407
	c-0.491-0.847-1.115-1.271-1.872-1.271c-0.804,0-1.873,0.87-3.21,2.608c-0.234,0.295-0.445,0.574-0.644,0.847
	c-0.823,1.128-1.348,2.062-1.563,2.798c-0.268,0.915-0.401,1.772-0.401,2.574c0,1.032,0.21,1.971,0.607,2.826
	c0.496,1.065,1.289,2,2.401,2.793c1.828,1.247,3.922,1.871,6.287,1.871c5.171,0,11.078-1.159,17.722-3.478
	c4.165-1.479,7.761-3.163,10.796-5.05c2.455-1.527,4.542-3.187,6.257-4.98c1.828-1.918,2.987-3.7,3.478-5.351
	C301.277,121.42,298.958,118.3,293.029,115.892z"/>
<path fill="#D2322D" stroke="#EEEEEE" stroke-width="3" stroke-miterlimit="10" d="M406.888,132.862
	c0.803-1.204,1.292-2.118,1.471-2.742c0.029-0.116,0.033-0.233,0.044-0.35c0.005-0.062,0.022-0.124,0.022-0.186
	c0-0.979-0.958-1.849-2.875-2.607c-0.558-0.214-1.082-0.374-1.592-0.509c-0.875-0.231-1.688-0.361-2.42-0.361
	c-5.262,0-12.311,1.035-21.133,3.097c-1.718,0.401-3.496,0.837-5.35,1.317c-0.848,0.223-1.428,0.334-1.739,0.334
	c-0.345,0-0.573-0.143-0.714-0.395c-0.095-0.172-0.154-0.387-0.154-0.676c0-0.355,0.4-1.738,1.203-4.145
	c0.356-1.026,1.07-1.74,2.14-2.141c0.579-0.223,1.581-0.445,3.009-0.67c4.816-0.623,9.898-1.471,15.248-2.54
	c4.413-0.937,8.113-1.405,11.102-1.405c0.579,0,1.403,0.079,2.475,0.234c0.103,0.016,0.191,0.025,0.289,0.04
	c0.92,0.127,1.634,0.194,2.117,0.194c1.472,0,2.986-0.87,4.548-2.609c1.247-1.38,2.05-2.629,2.407-3.745
	c0.044-0.177,0.066-0.355,0.066-0.534c0-0.803-0.546-1.538-1.638-2.208c-1.093-0.667-2.52-1.103-4.28-1.303
	c-0.738-0.084-1.584-0.15-2.523-0.199c-1.299-0.067-2.783-0.102-4.465-0.102c-7.356,0-14.066,0.602-20.129,1.805
	c-0.223,0.045-1.07,0.291-2.541,0.736c-1.026,0.313-1.852,0.468-2.475,0.468c-0.803,0-1.203-0.201-1.203-0.602
	c0-0.312,0.188-1.024,0.567-2.139c0.378-1.114,0.813-1.783,1.305-2.007c1.203-0.534,2.607-0.936,4.213-1.203
	c1.382-0.222,2.785-0.445,4.213-0.669c0.804-0.134,4.569-0.936,11.302-2.407c4.547-0.981,8.27-1.472,11.168-1.472
	c0.49,0,1.215,0.057,2.173,0.167c0.095,0.012,0.177,0.02,0.267,0.029c0.822,0.091,1.465,0.139,1.907,0.139
	c1.472,0,2.985-0.875,4.548-2.624c1.338-1.346,2.184-2.557,2.541-3.634c0.044-0.224,0.066-0.425,0.066-0.606
	c0-0.851-0.547-1.614-1.638-2.287c-1.093-0.673-2.498-1.11-4.213-1.313c-1.718-0.202-4.069-0.302-7.056-0.302
	c-8.783,0-16.986,0.981-24.609,2.945c-0.383-0.274-0.739-0.513-1.084-0.737c-1.541,3.672-4.047,7.47-7.53,11.395
	c-2.282,2.534-4.626,4.965-7.025,7.302c-0.241,1.022-0.448,1.942-0.611,2.729c-0.759,3.036-1.738,6.518-2.942,10.445
	c-0.58,1.921-1.695,5.424-3.344,10.514c-0.178,0.446-0.445,1.394-0.802,2.845c-0.356,1.449-0.624,2.354-0.804,2.712
	c0.18,0.848,1.204,1.762,3.076,2.744c1.694,0.938,2.898,1.407,3.611,1.407c0.758-0.135,1.729-0.48,2.91-1.037
	c1.18-0.557,2.039-0.902,2.574-1.037c4.636-1.025,9.429-2.385,14.378-4.078c4.734-1.621,8.828-2.457,12.299-2.527
	c0.157-0.004,0.319-0.014,0.474-0.014c0.135,0,0.401,0.022,0.803,0.066c0.402,0.045,0.712,0.067,0.937,0.067
	c0.973,0,1.863-0.238,2.675-0.7c0.229-0.129,0.453-0.27,0.669-0.438C405.394,134.89,406.085,134.066,406.888,132.862z"/>
<path fill="#D2322D" stroke="#EEEEEE" stroke-width="3" stroke-miterlimit="10" d="M415.301,137.843
	c1.204-2.184,2.163-3.32,2.876-3.41c1.114-0.134,4.323-0.602,9.629-1.404c3.923-0.623,7.111-0.936,9.564-0.936
	c1.809,0,3.257,0.003,4.344,0.012c-0.331-3.136-0.503-6.32-0.503-9.545c0-0.362,0.009-0.723,0.014-1.085
	c-0.302,0.045-0.615,0.089-0.935,0.131c-0.486,0.065-0.988,0.127-1.516,0.187c-3.389,0.402-6.555,0.604-9.497,0.604
	c-2.185,0-3.232-0.134-3.143-0.402c0.116-0.44,0.421-0.984,0.905-1.629c1.381-1.832,4.253-4.486,8.623-7.967
	c2.728-2.171,4.999-3.834,6.828-5.003c0.734-4.316,1.776-8.526,3.102-12.608c-0.804,0.469-1.584,1.065-2.338,1.796
	c-2.098,2.006-3.344,3.166-3.746,3.477c-5.211,3.635-10.064,7.788-14.557,12.463c-3.502,3.643-6.786,7.603-9.852,11.879
	c-1.115,0.936-1.806,1.939-2.073,3.01c-3.521,5.305-5.64,9.385-6.353,12.237c-0.135,0.401-0.201,0.803-0.201,1.204
	c0,1.58,0.631,2.379,1.883,2.403c0.02,0,0.036,0.005,0.057,0.005c0.58,0,1.204-0.112,1.872-0.335
	c0.473-0.226,0.927-0.497,1.364-0.811C413.035,141.127,414.252,139.705,415.301,137.843z"/>
<path fill="#D2322D" stroke="#EEEEEE" stroke-width="3" stroke-miterlimit="10" d="M16.895,127.878
	c0,5.588,2.473,9.836,7.421,12.748c4.307,2.502,9.778,3.754,16.414,3.754c6.518,0,12.891-1.02,19.121-3.057
	c1.339-0.449,2.586-0.938,3.764-1.457c4.018-1.771,7.096-3.944,9.22-6.523c1.284-1.559,2.226-3.262,2.819-5.115
	c0.174-0.582,0.261-1.223,0.261-1.92c0-2.096-0.932-3.144-2.794-3.144c-0.707,0.265-1.42,0.519-2.129,0.779
	c-2.267,0.835-4.542,1.653-6.829,2.458c-0.943,0.332-1.882,0.67-2.829,0.997c-3.959,1.368-7.917,2.052-11.874,2.052
	c-4.889,0-8.936-0.902-12.137-2.707c-3.492-1.921-5.559-4.803-6.199-8.644c-0.233-1.397-0.146-2.764,0.262-4.103
	c0.234-0.726,0.652-1.509,1.245-2.348c2.641-3.737,8.829-8.6,18.574-14.59c5.704-3.492,11.176-5.239,16.414-5.239
	c2.386,0,4.744,1.266,7.073,3.798c2.229,2.425,3.839,3.677,4.841,3.777c0.044,0.005,0.093,0.021,0.135,0.021
	c1.338,0,3.056-1.105,5.151-3.317c1.862-1.979,3.025-3.667,3.493-5.064c0.173-0.581,0.261-1.163,0.261-1.746
	c0-1.223-0.932-3.113-2.793-5.675l-3.667-5.064c-1.572-1.513-3.698-2.27-6.374-2.27c-11.409,0-25.582,7.451-42.52,22.35
	c-1.739,1.537-3.34,3.107-4.814,4.707c-4.888,5.306-8.322,10.953-10.289,16.945C17.303,123.02,16.895,125.55,16.895,127.878z"/>
<path fill="#D2322D" stroke="#EEEEEE" stroke-width="3" stroke-miterlimit="10" d="M318.738,108.44
	c-0.741,2.905-2.252,8.065-4.532,15.476c-2.45,8.094-4.132,13.194-5.044,15.303c-0.455,1.025-0.685,1.938-0.685,2.737
	c0,1.538,0.941,2.308,2.821,2.308c2.679,0,7.125-1.196,13.339-3.59c4.901-1.882,9.148-3.793,12.739-5.729
	c8.124-4.402,15.779-9.598,22.966-15.58c2.935-2.443,5.791-5.021,8.57-7.728c2.399-2.337,4.743-4.768,7.025-7.302
	c3.483-3.925,5.989-7.723,7.53-11.395c0.249-0.593,0.48-1.185,0.678-1.771c0.685-1.938,1.026-3.791,1.026-5.558
	c0.056-5.871-5.957-8.807-18.042-8.807c-16.244,0-27.389,0.77-33.43,2.309c-3.297,0.863-6.136,3.511-8.513,7.942
	c-1.076,2.004-2.057,4.373-2.943,7.106C320.589,100.487,319.421,105.248,318.738,108.44z M358.874,108.924
	c-10.332,8.5-21.202,14.614-32.612,18.324c-0.97,0.344-1.653,0.544-2.052,0.6c0.457-4.789,2.706-13.394,6.754-25.822
	c0.139-0.43,0.272-0.837,0.402-1.235c1.425-4.34,2.359-6.725,2.806-7.143c0.482-0.456,4.715-0.855,12.696-1.197
	c5.928-0.227,10.431-0.342,13.509-0.342c7.354,0,11.029,0.855,11.029,2.565c0,2.394-3.875,6.896-11.628,13.509
	C359.478,108.435,359.175,108.677,358.874,108.924z"/>
<g>
	<path fill="#ED9C28" d="M449.144,111.02c0-2.04-0.162-4.266-0.483-6.68c-0.321-2.145-0.604-3.474-0.846-3.984
		c-0.24-0.508-0.55-0.765-0.925-0.765c-1.597,0-4.75,1.743-9.447,5.207c0.008,1.897,0.066,3.784,0.172,5.656
		c0.199,0.687,0.42,1.842,0.666,3.476c0.246,1.856,0.396,3.6,0.455,5.232c4.646-0.617,7.689-1.428,9.119-2.428
		C448.713,116.088,449.144,114.185,449.144,111.02z"/>
	<path fill="#ED9C28" d="M446.165,141.599c0-1.127,0.242-2.682,0.726-4.668c0.161-0.643,0.241-1.232,0.241-1.771
		c0-1.769-1.261-2.869-3.782-3.3c-0.215-0.025-1.005-0.045-2.367-0.061c1.42,5.399,3.245,10.636,5.443,15.67
		c0.596-0.975,1.037-1.906,1.325-2.799C446.701,144.322,446.165,143.303,446.165,141.599z"/>
	<path fill="#ED9C28" d="M469.822,144.455c-1.287,0.535-3.271,1.26-5.956,2.174c-0.535,0.16-0.991,0.241-1.366,0.241
		c-1.127,0-2.279-0.537-3.461-1.61c-1.18-1.074-1.77-2.199-1.77-3.379c-0.107-0.591-0.027-1.289,0.24-2.092
		c0.162-0.483,0.443-1.221,0.846-2.215c0.403-0.992,0.684-1.757,0.846-2.293c1.984-6.061,3.325-10.247,4.023-12.555
		c1.447-4.773,2.627-8.983,3.54-12.633c0.696-3.112,1.878-7.779,3.54-14.003c0.429-1.363,0.809-2.524,1.146-3.499
		c-0.297-0.333-0.623-0.51-0.984-0.51c-0.429,0-1.046,0.188-1.851,0.561c-3.219,2.685-5.285,4.749-6.196,6.198
		c-0.377,0.629-0.969,2.169-1.771,4.594c0.001,0.145,0.002,0.278,0.002,0.424c0,14.432-0.804,24.732-2.413,30.901
		c-0.537,1.879-1.771,3.942-3.702,6.197c-2.074,2.488-3.971,3.763-5.693,3.847c-0.008,0.023-0.014,0.045-0.021,0.068
		c-0.16,0.537-0.442,1.302-0.846,2.291c-0.357,0.884-0.614,1.553-0.78,2.031c1.087,2.374,2.255,4.703,3.505,6.982
		c0.479,0.186,0.951,0.283,1.42,0.283c0.375,0,0.83-0.08,1.368-0.241c2.683-0.913,4.667-1.638,5.956-2.173
		c0.321-0.107,4.989-1.745,14.001-4.908c5.741-1.984,10.328-2.979,13.761-2.979c2.146,0,3.755-0.454,4.829-1.367
		c0.645-0.483,1.448-1.529,2.413-3.141c0.806-1.339,1.315-2.334,1.531-2.976c0.104-0.429,0.16-0.777,0.16-1.048
		c0-0.353-0.061-0.68-0.172-0.984c-3.215,0.252-7.256,1.216-12.143,2.904C474.812,142.712,470.144,144.347,469.822,144.455z"/>
	<path fill="#ED9C28" d="M562.875,94.562c-3.486,0-7.965,0.591-13.437,1.769c-8.102,1.771-12.634,2.737-13.601,2.899
		c-1.718,0.268-3.407,0.536-5.07,0.803c-1.931,0.322-3.62,0.805-5.069,1.449c-0.592,0.27-1.114,1.074-1.569,2.413
		c-0.456,1.342-0.685,2.201-0.685,2.576c0,0.483,0.484,0.725,1.449,0.725c0.751,0,1.742-0.187,2.977-0.563
		c1.771-0.536,2.79-0.832,3.059-0.884c7.295-1.45,15.371-2.174,24.223-2.174c2.023,0,3.81,0.042,5.374,0.123
		c0.878-0.524,1.769-1.288,2.674-2.302c1.609-1.62,2.627-3.077,3.058-4.372c0.054-0.27,0.079-0.514,0.079-0.73
		c0-0.527-0.177-1.024-0.523-1.496c-0.108-0.012-0.208-0.021-0.321-0.034C564.338,94.629,563.467,94.562,562.875,94.562z"/>
	<path fill="#ED9C28" d="M517.168,144.858c-0.645,0.159-1.678,0.574-3.098,1.245c-1.423,0.671-2.59,1.088-3.502,1.249
		c-0.858,0-2.307-0.565-4.345-1.692c-2.254-1.182-3.486-2.282-3.701-3.305c0.215-0.428,0.536-1.518,0.965-3.261
		c0.43-1.747,0.751-2.889,0.966-3.427c1.984-6.122,3.326-10.338,4.023-12.649c1.448-4.728,2.629-8.915,3.54-12.568
		c0.645-3.117,1.797-7.763,3.461-13.941c0.362-1.285,0.696-2.602,1.038-3.909c-0.289-0.071-0.559-0.117-0.795-0.117
		c-0.377,0-1.45,0.323-3.22,0.967c-3.166,2.633-5.07,4.728-5.714,6.284c-0.537,2.149-1.101,4.27-1.689,6.365
		c-1.665,6.177-2.816,10.824-3.461,13.938c-0.336,1.344-0.709,2.76-1.115,4.247c1.288,0.068,2.486,0.319,3.581,0.774
		c1.61,0.645,2.414,1.638,2.414,2.979c0,0.27-0.054,0.617-0.159,1.045c-0.216,0.645-0.726,1.639-1.529,2.977
		c-0.966,1.611-1.771,2.658-2.415,3.14c-1.073,0.914-2.684,1.369-4.829,1.369c-0.233,0-0.483,0.017-0.729,0.024
		c-0.716,2.263-1.64,5.137-2.783,8.666c-0.214,0.535-0.535,1.679-0.965,3.423c-0.428,1.745-0.751,2.833-0.965,3.263
		c0.214,1.021,1.446,2.123,3.7,3.304c2.038,1.128,3.487,1.692,4.345,1.692c0.912-0.162,2.079-0.577,3.501-1.248
		c1.421-0.671,2.456-1.086,3.099-1.246c5.579-1.234,11.347-2.872,17.301-4.909c5.957-2.038,11.078-3.058,15.371-3.058
		c0.161,0,0.483,0.026,0.966,0.08c0.483,0.055,0.857,0.08,1.126,0.08c1.501,0,2.844-0.455,4.024-1.368
		c0.696-0.536,1.528-1.528,2.494-2.977c0.966-1.449,1.557-2.548,1.77-3.301c0.054-0.214,0.08-0.428,0.08-0.645
		c0-0.506-0.225-0.985-0.65-1.442c-4.175,0.084-9.103,1.091-14.799,3.041C528.515,141.986,522.748,143.624,517.168,144.858z"/>
	<path fill="#ED9C28" d="M556.358,115.888c-3.594,0-8.047,0.562-13.358,1.69c-6.438,1.285-12.554,2.306-18.348,3.057
		c-1.718,0.269-2.925,0.537-3.621,0.805c-1.286,0.484-2.146,1.342-2.574,2.576c-0.967,2.896-1.449,4.561-1.449,4.988
		c0,0.349,0.072,0.607,0.186,0.814c3.049-0.435,6.181-0.939,9.399-1.517c10.611-2.479,19.093-3.724,25.422-3.724
		c0.88,0,1.857,0.155,2.911,0.434c0.79-0.512,1.589-1.207,2.399-2.11c0.243-0.269,0.467-0.534,0.683-0.795
		c0.332-1.62,0.782-3.603,1.351-5.935c-0.008-0.002-0.014-0.002-0.021-0.003C558.048,115.98,557.054,115.888,556.358,115.888z"/>
	<path fill="#ED9C28" d="M600.437,122.003c0.696,0.614,1.573,1.391,2.617,2.322c0.377-0.227,0.715-0.435,1.005-0.619
		c6.988-4.441,12.276-8.891,15.886-13.353c-1.704,1.256-3.532,2.509-5.506,3.764C612.24,115.513,607.571,118.141,600.437,122.003z"
		/>
	<path fill="#ED9C28" d="M591.504,136.248c-1.878-1.287-4.211-2.549-7-3.783c-3.327-1.393-5.983-2.093-7.968-2.093
		c-0.321,0-0.456-0.052-0.401-0.159c-0.161,0.215-0.537,1.1-1.128,2.656c-1.225,3.341-2.411,6.061-3.557,8.171
		c0.838,0.284,1.726,0.62,2.674,1.017c2.788,1.234,5.122,2.494,6.999,3.781c2.898,1.931,4.722,3.111,5.474,3.54
		c2.092,1.073,4.317,1.61,6.679,1.61c1.662,0,4.185-0.321,7.563-0.966c1.503-2.307,2.255-3.864,2.255-4.667
		c0-0.645-0.281-1.234-0.846-1.771c-0.562-0.535-1.086-1.072-1.57-1.607c-0.3-0.365-0.617-0.735-0.946-1.112
		c-0.943-0.264-1.861-0.618-2.754-1.075C596.226,139.361,594.402,138.179,591.504,136.248z"/>
	<path fill="#ED9C28" d="M559.638,141.96c0-0.75,0.35-2.145,1.047-4.184c0.429-1.502,1.165-3.729,2.212-6.681
		c1.047-2.95,1.812-5.148,2.293-6.598c1.341-3.97,2.334-7.591,2.978-10.864c0.066-0.351,0.14-0.725,0.22-1.117
		c-0.214,0.261-0.438,0.524-0.682,0.794c-1.879,2.092-3.702,3.138-5.472,3.138c-0.642,0-1.599-0.093-2.876-0.278
		c-0.568,2.332-1.019,4.314-1.351,5.935c-0.08,0.394-0.153,0.767-0.219,1.116c-0.164,0.834-0.353,1.689-0.562,2.569
		c2.04,0.87,3.074,1.862,3.074,2.971c0,0.216-0.028,0.431-0.079,0.644c-0.216,0.752-0.806,1.853-1.771,3.299
		c-0.966,1.45-1.797,2.443-2.494,2.979c-0.638,0.492-1.324,0.84-2.057,1.067c-0.389,1.116-0.849,2.427-1.383,3.936
		c-1.047,2.951-1.782,5.179-2.213,6.68c-0.696,2.04-1.047,3.433-1.047,4.185c0,1.609,0.994,2.762,2.979,3.461
		c1.77,0.696,2.869,1.046,3.298,1.046c2.387,0,4.997-3.45,7.833-10.347c-0.237-0.089-0.483-0.184-0.752-0.289
		C560.632,144.724,559.638,143.57,559.638,141.96z"/>
	<path fill="#ED9C28" d="M588.366,96.896c-0.697,0.162-1.77,2.414-3.218,6.76l-0.62,1.956c3.641-0.275,8.326-0.413,14.06-0.413
		c5.346,0,9.097,0.066,11.27,0.197c3.455-1.804,6.727-3.806,9.813-6.004c1.716-1.234,2.682-2.119,2.898-2.656
		c0.052-0.321,0-0.535-0.163-0.643c-0.591-0.322-5.069-0.482-13.438-0.482C598.828,95.609,591.959,96.039,588.366,96.896z"/>
	<path fill="#ED9C28" d="M568.711,105.505c0.438,0.268,0.794,0.546,1.086,0.831c0.396-1.615,0.842-3.387,1.349-5.336
		c0.214-0.645,0.575-1.65,1.087-3.019c0.509-1.368,0.87-2.399,1.085-3.098c0.069-0.199,0.164-0.414,0.27-0.635
		c-0.01,0.001-0.019,0.002-0.027,0.004c-1.771,0.216-3.916,1.69-6.438,4.426c-2.005,2.144-3.317,3.883-3.945,5.216
		c0.128,0.015,0.261,0.026,0.384,0.04C565.679,104.178,567.395,104.701,568.711,105.505z"/>
</g>
<g>
	<path fill="#D2322D" stroke="#EEEEEE" stroke-width="4" stroke-miterlimit="10" d="M454.535,140.956
		c1.932-2.255,3.165-4.318,3.702-6.197c1.609-6.169,2.413-16.469,2.413-30.901c0-0.146-0.001-0.28-0.002-0.424
		c-0.023-12.854-1.095-19.292-3.215-19.292c-0.432,0-1.719,0.243-3.864,0.725c-2.575,0.484-4.506,0.778-5.794,0.885
		c-1.93,0.536-3.756,1.637-5.471,3.299c-2.228,2.132-3.656,3.466-4.293,4.008c-0.379,3.682-0.575,7.418-0.575,11.202
		c0,0.179,0.005,0.358,0.007,0.538c4.697-3.464,7.851-5.207,9.447-5.207c0.375,0,0.685,0.256,0.925,0.765
		c0.241,0.511,0.524,1.84,0.846,3.984c0.321,2.414,0.483,4.64,0.483,6.68c0,3.165-0.431,5.068-1.289,5.714
		c-1.43,1-4.473,1.811-9.119,2.428c-0.09,0.013-0.181,0.023-0.271,0.037c0.593,4.287,1.437,8.492,2.517,12.602
		c1.362,0.016,2.152,0.035,2.367,0.061c2.521,0.431,3.782,1.531,3.782,3.3c0,0.538-0.08,1.128-0.241,1.771
		c-0.483,1.986-0.726,3.541-0.726,4.668c0,1.704,0.536,2.723,1.586,3.072c0.272,0.09,0.569,0.147,0.91,0.147
		c0.06,0,0.121-0.015,0.181-0.017C450.564,144.718,452.46,143.444,454.535,140.956z"/>
	<path fill="#D2322D" stroke="#EEEEEE" stroke-width="4" stroke-miterlimit="10" d="M502.414,135.2
		c0.645-0.481,1.449-1.528,2.415-3.14c0.804-1.338,1.313-2.332,1.529-2.977c0.105-0.428,0.159-0.775,0.159-1.045
		c0-1.341-0.804-2.334-2.414-2.979c-1.095-0.455-2.293-0.706-3.581-0.774c-0.226-0.013-0.45-0.03-0.684-0.03
		c-5.633,0-13.923,1.529-24.866,4.587c-1.395,0.378-2.361,0.564-2.896,0.564c1.823-9.013,4.076-17.678,6.76-25.993
		c1.717-4.399,3.03-7.698,3.943-9.899l0.24-0.641c0.269-0.646,0.402-1.664,0.402-3.059c0-1.824-0.213-3.432-0.643-4.829
		c-0.483-1.661-1.127-2.494-1.933-2.494c-0.43,0-1.046,0.188-1.851,0.562c-3.217,2.685-5.283,4.749-6.195,6.197
		c-0.309,0.513-0.76,1.631-1.35,3.341c-0.338,0.975-0.718,2.136-1.146,3.499c-1.662,6.224-2.844,10.891-3.54,14.003
		c-0.913,3.649-2.093,7.859-3.54,12.633c-0.698,2.308-2.039,6.494-4.023,12.555c-0.162,0.536-0.442,1.301-0.846,2.293
		c-0.402,0.994-0.684,1.731-0.846,2.215c-0.268,0.803-0.348,1.501-0.24,2.092c0,1.18,0.59,2.305,1.77,3.379
		c1.182,1.073,2.334,1.61,3.461,1.61c0.375,0,0.831-0.081,1.366-0.241c2.685-0.914,4.669-1.639,5.956-2.174
		c0.322-0.107,4.99-1.742,14.002-4.908c4.887-1.688,8.928-2.652,12.143-2.904c0.306-0.024,0.599-0.037,0.89-0.049
		c0.245-0.008,0.495-0.024,0.729-0.024C499.73,136.569,501.34,136.114,502.414,135.2z"/>
	<path fill="#D2322D" stroke="#EEEEEE" stroke-width="4" stroke-miterlimit="10" d="M558.451,132.705
		c0.966-1.446,1.556-2.547,1.771-3.299c0.051-0.213,0.079-0.428,0.079-0.644c0-1.108-1.034-2.101-3.074-2.971
		c-0.129-0.056-0.248-0.113-0.385-0.167c-0.672-0.257-1.304-0.449-1.917-0.613c-1.054-0.278-2.031-0.434-2.911-0.434
		c-6.329,0-14.811,1.245-25.422,3.724c-2.071,0.485-4.214,1.011-6.446,1.589c-1.021,0.268-1.717,0.4-2.093,0.4
		c-0.415,0-0.691-0.17-0.86-0.473c-0.113-0.207-0.186-0.466-0.186-0.814c0-0.428,0.482-2.093,1.449-4.988
		c0.428-1.234,1.288-2.092,2.574-2.576c0.696-0.268,1.903-0.536,3.621-0.805c5.794-0.751,11.91-1.771,18.348-3.057
		c5.312-1.128,9.765-1.69,13.358-1.69c0.696,0,1.69,0.092,2.979,0.281c0.007,0.001,0.013,0.001,0.021,0.003
		c1.277,0.186,2.234,0.278,2.876,0.278c1.77,0,3.593-1.046,5.472-3.138c0.244-0.271,0.468-0.534,0.682-0.794
		c0.342-1.677,0.814-3.743,1.41-6.181c-0.292-0.285-0.648-0.563-1.086-0.831c-1.316-0.804-3.032-1.327-5.15-1.569
		c-0.123-0.014-0.256-0.025-0.384-0.04c-0.795-0.081-1.679-0.147-2.651-0.199c-1.564-0.081-3.351-0.123-5.374-0.123
		c-8.852,0-16.928,0.725-24.223,2.174c-0.269,0.052-1.287,0.349-3.059,0.884c-1.234,0.376-2.226,0.563-2.977,0.563
		c-0.965,0-1.449-0.242-1.449-0.725c0-0.375,0.229-1.233,0.685-2.576c0.455-1.339,0.978-2.144,1.569-2.413
		c1.449-0.644,3.139-1.127,5.069-1.449c1.663-0.267,3.353-0.535,5.07-0.803c0.967-0.162,5.499-1.128,13.601-2.899
		c5.472-1.178,9.95-1.769,13.437-1.769c0.592,0,1.463,0.066,2.616,0.201c0.113,0.013,0.213,0.022,0.321,0.034
		c0.989,0.109,1.762,0.167,2.294,0.167c1.771,0,3.594-1.053,5.473-3.158c1.609-1.619,2.627-3.078,3.059-4.373
		c0.053-0.27,0.08-0.512,0.08-0.729c0-1.025-0.659-1.942-1.973-2.752c-1.314-0.81-3.005-1.335-5.068-1.579
		c-2.066-0.243-4.897-0.364-8.491-0.364c-10.569,0-20.439,1.182-29.613,3.544c-2.468-1.771-4.292-2.658-5.472-2.658
		c-0.375,0-1.449,0.322-3.22,0.967c-3.165,2.632-5.069,4.727-5.713,6.283c-0.208,0.829-0.438,1.635-0.652,2.455
		c-0.342,1.308-0.676,2.624-1.038,3.909c-1.664,6.178-2.816,10.824-3.461,13.941c-0.911,3.653-2.092,7.84-3.54,12.568
		c-0.697,2.312-2.039,6.527-4.023,12.649c-0.215,0.538-0.536,1.68-0.966,3.427c-0.429,1.743-0.75,2.833-0.965,3.261
		c0.215,1.022,1.447,2.123,3.701,3.305c2.038,1.127,3.486,1.692,4.345,1.692c0.912-0.161,2.079-0.578,3.502-1.249
		c1.42-0.671,2.453-1.086,3.098-1.245c5.579-1.234,11.347-2.872,17.302-4.909c5.696-1.95,10.624-2.957,14.799-3.041
		c0.189-0.004,0.386-0.018,0.57-0.018c0.162,0,0.483,0.027,0.966,0.08c0.484,0.055,0.857,0.08,1.128,0.08
		c0.688,0,1.344-0.107,1.967-0.3c0.732-0.228,1.419-0.575,2.057-1.067C556.654,135.148,557.485,134.155,558.451,132.705z"/>
	<path fill="#D2322D" stroke="#EEEEEE" stroke-width="4" stroke-miterlimit="10" d="M583.942,84.664
		c-1.771,0.216-3.919,1.691-6.438,4.426c-1.978,2.115-3.278,3.833-3.916,5.159c-0.105,0.221-0.2,0.436-0.27,0.635
		c-0.215,0.698-0.576,1.73-1.085,3.098c-0.512,1.369-0.873,2.374-1.087,3.019c-0.507,1.949-0.953,3.721-1.349,5.336
		c-0.596,2.438-1.068,4.504-1.41,6.181c-0.08,0.392-0.153,0.766-0.22,1.117c-0.644,3.273-1.637,6.895-2.978,10.864
		c-0.481,1.449-1.246,3.647-2.293,6.598c-1.047,2.952-1.783,5.179-2.212,6.681c-0.697,2.039-1.047,3.434-1.047,4.184
		c0,1.609,0.994,2.764,2.977,3.461c0.269,0.105,0.515,0.2,0.752,0.289c1.33,0.503,2.183,0.757,2.548,0.757
		c1.729,0,3.572-1.813,5.536-5.428c1.146-2.11,2.332-4.83,3.557-8.171c0.591-1.557,0.967-2.441,1.128-2.656
		c-0.055,0.107,0.08,0.159,0.401,0.159c1.984,0,4.641,0.7,7.968,2.093c2.789,1.234,5.122,2.496,7,3.783
		c2.897,1.932,4.722,3.113,5.474,3.541c0.893,0.457,1.811,0.812,2.754,1.075c1.265,0.351,2.571,0.534,3.924,0.534
		c1.663,0,4.186-0.322,7.565-0.967c1.501-2.305,2.253-3.861,2.253-4.666c0-0.645-0.281-1.234-0.844-1.771
		c-0.565-0.535-1.089-1.071-1.57-1.609c-1.287-1.554-2.844-3.244-4.667-5.07c-1.262-1.133-2.372-2.127-3.339-2.988
		c-1.044-0.932-1.921-1.708-2.617-2.322c7.134-3.862,11.803-6.49,14.002-7.885c1.974-1.255,3.802-2.508,5.506-3.764
		c3.219-2.373,5.952-4.749,8.213-7.127c-0.409-6.919-1.543-13.641-3.33-20.093c-2.306-0.159-5.41-0.239-9.341-0.239
		C601.806,82.895,591.292,83.484,583.942,84.664z M622.569,96.735c-0.217,0.537-1.183,1.422-2.898,2.656
		c-3.087,2.198-6.358,4.2-9.813,6.004c-7.593,3.965-16.069,6.979-25.434,9.043c-0.912,0.215-1.608,0.322-2.093,0.322
		c-0.214,0-0.321-0.187-0.321-0.562c0-0.644,0.509-2.469,1.529-5.473l0.989-3.114l0.62-1.956c1.448-4.346,2.521-6.598,3.218-6.76
		c3.594-0.857,10.462-1.287,20.602-1.287c8.369,0,12.848,0.161,13.438,0.482C622.569,96.2,622.621,96.414,622.569,96.735z"/>
</g>
<g>
	<g id="XMLID_9_">
		<g>
			<path d="M617.536,106.207c0-24.358-9.801-46.427-25.663-62.467c23.507,15.996,38.938,42.954,38.938,73.507
				c0,49.093-39.778,88.872-88.86,88.872c-24.734,0-47.102-10.111-63.208-26.428c14.226,9.69,31.416,15.354,49.934,15.354
				C577.747,195.045,617.536,155.278,617.536,106.207z"/>
			<path d="M541.95,28.408c-49.071,0-88.828,39.79-88.828,88.839c0,24.348,9.779,46.394,25.62,62.444
				c-23.496-15.974-38.916-42.932-38.916-73.484c0-49.082,39.778-88.861,88.85-88.861c24.724,0,47.08,10.088,63.197,26.394
				C577.647,34.061,560.457,28.408,541.95,28.408z"/>
		</g>
		<g>
			<path fill="none" stroke="#000000" stroke-width="10" stroke-miterlimit="10" d="M591.873,43.74
				c15.862,16.04,25.663,38.108,25.663,62.467c0,49.071-39.789,88.839-88.86,88.839c-18.518,0-35.708-5.664-49.934-15.354
				c-23.496-15.974-38.916-42.932-38.916-73.484c0-49.082,39.778-88.861,88.85-88.861C553.399,17.346,575.755,27.434,591.873,43.74z
				"/>
			<path fill="none" stroke="#000000" stroke-width="10" stroke-miterlimit="10" d="M591.873,43.74
				c23.507,15.996,38.938,42.954,38.938,73.507c0,49.093-39.778,88.872-88.86,88.872c-24.734,0-47.102-10.111-63.208-26.428
				c-15.841-16.051-25.62-38.097-25.62-62.444c0-49.049,39.757-88.839,88.828-88.839C560.457,28.408,577.647,34.061,591.873,43.74z"
				/>
		</g>
	</g>
	<g>
		<path stroke="#000000" stroke-width="2" stroke-miterlimit="10" d="M650.117,181.432c1.639,1.343,0.725,5.174-2.046,8.556
			l-15.875,19.393c-2.768,3.384-6.342,5.04-7.979,3.699l-27.193-22.259c-1.639-1.343-0.724-5.171,2.048-8.554l15.874-19.396
			c2.77-3.381,6.341-5.035,7.981-3.695L650.117,181.432z"/>
		<path stroke="#000000" stroke-width="2" stroke-miterlimit="10" d="M627.878,149.592c1.638,1.341,0.723,5.171-2.046,8.554
			l-29.246,35.727c-2.769,3.382-6.342,5.039-7.979,3.697l-2.224-1.821c-1.639-1.342-0.722-5.171,2.045-8.552l29.247-35.729
			c2.767-3.382,6.341-5.038,7.979-3.696L627.878,149.592z"/>
	</g>
	<path fill="#428BCA" stroke="#428BCA" stroke-width="3" stroke-miterlimit="10" d="M466.828,93.82
		c-1.093-6.865-0.857-14.256,0.962-21.703c2.501-10.243,7.596-19.026,14.174-25.536c-16.501,2.69-31.391,17.167-36.298,37.269
		c-2.064,8.461-2.09,16.85-0.441,24.474C451.155,101.164,458.705,96.068,466.828,93.82z"/>
</g>
</svg>
