<?xml version="1.0" encoding="utf-8"?>
<!-- Generator: Adobe Illustrator 15.0.2, SVG Export Plug-In . SVG Version: 6.00 Build 0)  -->
<!DOCTYPE svg PUBLIC "-//W3C//DTD SVG 1.1//EN" "http://www.w3.org/Graphics/SVG/1.1/DTD/svg11.dtd">
<svg version="1.1" id="Layer_1" xmlns="http://www.w3.org/2000/svg" xmlns:xlink="http://www.w3.org/1999/xlink" x="0px" y="0px"
	 width="386.5px" height="43px" viewBox="0 0 386.5 43" enable-background="new 0 0 386.5 43" xml:space="preserve">
<g>
	<path d="M62.613,11.914c0,0.659-0.174,1.37-0.52,2.132c-0.416,0.936-0.937,1.404-1.561,1.404c-0.277,0-0.711-0.242-1.3-0.729
		c-1.526-1.178-2.583-1.94-3.172-2.288c-1.248-0.728-2.479-1.092-3.692-1.092c-1.455,0-3.086,0.26-4.888,0.778
		c-2.462,0.727-5.218,2.387-8.269,4.979c-3.397,2.837-5.096,5.327-5.096,7.472c0,0.657,0.19,1.384,0.572,2.178
		c1.178,2.317,3.12,4.064,5.824,5.24c2.322,1.003,4.992,1.505,8.008,1.505c3.225,0,6.205-0.572,8.943-1.716
		c0.521-0.242,1.595-0.745,3.225-1.509c0.312-0.138,0.572-0.208,0.779-0.208c0.729,0,1.093,0.607,1.093,1.82
		c0,2.843-2.028,5.01-6.084,6.5c-2.946,1.04-6.119,1.56-9.517,1.56c-4.16,0-7.887-0.919-11.18-2.756
		c-4.056-2.288-6.084-5.39-6.084-9.308c0-4.16,1.438-7.921,4.316-11.284C40.842,8.655,47.395,4.686,53.67,4.686
		c1.697,0,3.137,0.56,4.315,1.678c1.005,0.804,1.976,1.625,2.912,2.463C62.041,9.909,62.613,10.938,62.613,11.914z"/>
	<path d="M95.367,23.468c0,4.509-2.084,8.4-6.25,11.676c-3.832,3.053-8.041,4.578-12.627,4.578c-3.244,0-6.18-0.889-8.809-2.667
		c-2.629-1.777-4.586-4.179-5.873-7.203c-0.392-0.867-0.588-1.722-0.588-2.562c0-1.12,0.322-2.338,0.965-3.654
		c1.595-3.444,4.489-6.384,8.684-8.82c4.027-2.295,8.013-3.443,11.956-3.443c3.188,0,6.075,1.218,8.661,3.653
		C94.074,17.462,95.367,20.275,95.367,23.468z M92.008,25.567c0-1.119-0.52-2.394-1.555-3.821c-2.492-3.332-5.529-4.998-9.113-4.998
		c-2.997,0-6.217,0.868-9.66,2.604c-4.593,2.297-6.889,4.341-6.889,6.132c0,0.812,0.447,1.737,1.344,2.772
		c3.584,4.116,7.379,6.174,11.383,6.174c3.08,0,6.132-0.728,9.156-2.184C90.229,30.454,92.008,28.229,92.008,25.567z"/>
	<path d="M127.061,35.337c0,0.588-0.238,1.358-0.715,2.311c-0.588,1.064-1.19,1.596-1.806,1.596c-0.868,0-2.087-2.086-3.654-6.258
		c-1.008-2.744-1.834-5.348-2.478-7.812c-0.729-2.771-1.289-4.157-1.68-4.157c-0.504,0-2.059,2.981-4.662,8.945
		c-0.309,0.896-0.799,2.227-1.471,3.99c-0.084,0.896-0.49,1.988-1.218,3.276c-0.812,1.456-1.638,2.184-2.478,2.184
		c-1.176,0-2.521-2.155-4.032-6.468c-0.841-2.744-1.681-5.516-2.521-8.316c-0.309-0.84-0.504-1.26-0.588-1.26
		c0,0.028,0,0.057,0,0.084c-0.588,0.868-1.33,3.417-2.227,7.645c-0.111,0.924-0.377,2.268-0.797,4.031
		c-0.281,0.756-0.672,1.61-1.176,2.562c-0.673,1.26-1.205,1.89-1.597,1.89c-0.309,0-0.729-0.301-1.26-0.903
		c-0.532-0.602-0.798-1.084-0.798-1.448c0-0.252,0.056-0.519,0.168-0.798c0.252-0.477,0.378-0.729,0.378-0.757
		c0.336-1.063,0.812-2.659,1.428-4.788c0.532-1.596,1.245-4.003,2.142-7.224c0.309-1.147,0.616-2.31,0.924-3.486
		c0.309-1.371,0.463-2.562,0.463-3.569c0-0.868,0.069-1.498,0.21-1.891c0.111-0.308,0.657-0.714,1.638-1.218
		c0.924-0.447,1.539-0.672,1.848-0.672c0.477,0,0.784,0.322,0.924,0.966c0.057,0.477,0.112,0.952,0.168,1.429
		c0.112,1.092,0.757,3.584,1.933,7.476c1.147,3.809,1.987,6.328,2.521,7.56c0.252,0.532,0.475,0.799,0.672,0.799
		c0.279,0,1.638-2.632,4.074-7.896l2.813-6.048c0.952-2.017,1.567-3.255,1.849-3.717c0.279-0.462,1.287-1.085,3.023-1.869
		c0.644,0.057,1.33,1.876,2.058,5.46c0.337,1.876,0.728,4.018,1.177,6.426c1.092,3.612,1.665,5.502,1.722,5.67
		c0.783,2.296,1.665,4.019,2.646,5.166C126.934,34.554,127.061,34.917,127.061,35.337z"/>
	<path d="M157.723,23.493c0,4.509-2.084,8.4-6.25,11.676c-3.832,3.053-8.041,4.578-12.627,4.578c-3.244,0-6.18-0.889-8.809-2.667
		c-2.629-1.777-4.587-4.179-5.873-7.203c-0.393-0.867-0.588-1.722-0.588-2.562c0-1.12,0.322-2.338,0.965-3.654
		c1.594-3.444,4.488-6.384,8.684-8.82c4.027-2.295,8.012-3.443,11.955-3.443c3.188,0,6.075,1.218,8.662,3.653
		C156.429,17.487,157.723,20.301,157.723,23.493z M154.362,25.593c0-1.119-0.519-2.394-1.554-3.821
		c-2.492-3.332-5.53-4.998-9.114-4.998c-2.997,0-6.216,0.868-9.66,2.604c-4.593,2.297-6.888,4.341-6.888,6.132
		c0,0.812,0.447,1.737,1.344,2.772c3.584,4.116,7.378,6.174,11.383,6.174c3.079,0,6.131-0.728,9.155-2.184
		C152.584,30.479,154.362,28.254,154.362,25.593z"/>
	<path d="M196.11,8.427c0,0.624-0.243,1.335-0.728,2.132c-0.556,0.937-1.162,1.404-1.82,1.404c-0.383,0-0.928-0.043-1.639-0.13
		s-1.239-0.13-1.586-0.13c-2.461,0-5.199,0.398-8.216,1.195c-3.016,0.798-6.396,1.474-10.14,2.028
		c-0.729,0.139-1.248,0.26-1.561,0.364c-0.623,0.242-1.022,0.59-1.195,1.04c-0.383,1.144-0.572,2.322-0.572,3.535
		c0,1.526,0.381,2.288,1.145,2.288c0.068,0,0.155-0.017,0.26-0.052c5.928-1.456,11.162-2.184,15.703-2.184
		c5.755,0,8.633,0.728,8.633,2.184c0,0.555-0.227,1.248-0.676,2.08c-0.555,0.971-1.127,1.456-1.717,1.456
		c-0.381,0-0.928-0.052-1.638-0.156c-0.711-0.104-1.257-0.155-1.638-0.155c-1.803,0-4.057,0.295-6.76,0.884
		c-2.254,0.485-4.49,0.936-6.709,1.352c-2.357,0.416-3.64,0.676-3.848,0.78c-0.832,0.451-1.318,1.595-1.456,3.432
		c-0.034,1.11-0.174,2.809-0.416,5.097c-0.278,2.045-0.728,3.067-1.353,3.067c-0.623,0-1.282-0.226-1.975-0.676
		c-0.867-0.52-1.301-1.092-1.301-1.716c0-0.312,0.025-0.763,0.078-1.353c0.052-0.589,0.078-1.021,0.078-1.3
		c0-6.933-0.122-11.89-0.364-14.872c-0.382-4.68-0.571-7.4-0.571-8.164c0-0.624-0.053-1.291-0.156-2.002
		c-0.104-0.71-0.156-1.152-0.156-1.326c0-0.728,0.572-1.768,1.716-3.119c0.832-0.347,1.265-0.521,1.3-0.521
		c0.174,0,0.33,0.087,0.469,0.26l0.26,0.312c1.248,1.768,2.305,2.651,3.172,2.651c0.277,0,0.676-0.052,1.195-0.155
		c6.102-1.109,11.545-1.664,16.328-1.664C193.492,6.295,196.11,7.006,196.11,8.427z"/>
	<path d="M217.727,35.396c0,0.7-0.084,1.583-0.252,2.646c-0.225,1.455-0.49,2.197-0.799,2.226h-0.041
		c-0.449,0-0.932-0.126-1.449-0.378c-0.519-0.252-0.861-0.574-1.029-0.966c-0.141-0.308-0.21-1.161-0.21-2.562
		c0-0.673-0.077-1.127-0.231-1.365s-0.539-0.357-1.154-0.357c-1.736,0-4.69,0.756-8.862,2.269c-2.968,1.148-5.95,2.281-8.946,3.401
		c-1.428-0.7-2.142-1.288-2.142-1.764c0-0.531,0.084-1.231,0.252-2.1c0.252-1.177,0.392-1.862,0.42-2.059
		c0.364-2.071,0.784-5.151,1.261-9.24c0.195-2.799,0.307-4.27,0.336-4.409c0.168-1.652,0.42-3.094,0.756-4.326
		c0.139-0.504,0.867-1.232,2.184-2.185c0.476-0.084,0.882,0.364,1.218,1.345c0.253,0.784,0.378,1.442,0.378,1.974
		c0,0.42-0.041,0.771-0.125,1.05c-0.533,1.456-1.009,3.711-1.429,6.762c-0.448,2.856-0.672,5.152-0.672,6.889
		c0,0.616,0.027,0.994,0.084,1.134c0.084,0.28,0.279,0.42,0.588,0.42c0.42,0,1.05-0.153,1.89-0.462
		c2.688-0.979,4.578-1.651,5.67-2.016c2.128-0.7,4.061-1.232,5.797-1.597c0.924-0.224,1.497-0.469,1.722-0.734
		c0.224-0.267,0.336-0.917,0.336-1.953c0-1.204-0.154-2.716-0.462-4.536c-0.477-2.66-0.742-4.144-0.799-4.452
		c-0.111-1.092-0.168-2.45-0.168-4.074c0-0.476,0.532-1.441,1.597-2.897c0.111-0.084,0.224-0.126,0.336-0.126
		c0.476,0,0.966,0.616,1.47,1.848c0.42,1.064,0.631,1.876,0.631,2.436c0,0.225-0.021,0.589-0.063,1.093s-0.063,0.882-0.063,1.134
		c0,5.937,0.561,11.214,1.68,15.834C217.628,34.052,217.727,34.752,217.727,35.396z"/>
	<path d="M243.094,34.514c0,0.729-0.084,1.484-0.252,2.269c-0.225,1.148-0.531,1.75-0.924,1.806
		c-1.062,0.196-1.902,0.084-2.517-0.336c-0.308-0.224-0.774-0.588-1.403-1.092s-1.363-1.204-2.201-2.101
		c-1.09-1.176-1.773-1.903-2.054-2.184c-1.509-1.372-3.312-3.15-5.407-5.334c-1.312-1.428-3.381-3.556-6.203-6.384
		c-0.334-0.309-0.586-0.462-0.754-0.462c-0.307,0-0.461,0.854-0.461,2.562c0,1.596,0.098,3.711,0.294,6.342
		c0.052,0.336,0.155,0.952,0.312,1.849c0.156,0.756,0.234,1.358,0.234,1.806c0,0.7-0.141,1.666-0.42,2.897
		c-0.279,1.513-0.616,2.269-1.008,2.269c-0.477,0-0.994-0.168-1.555-0.504c-0.699-0.42-1.049-0.896-1.049-1.428
		c0-0.168,0.021-0.463,0.062-0.883s0.062-0.741,0.062-0.966c0-0.14-0.014-0.756-0.041-1.848c0-2.101-0.084-5.208-0.252-9.324
		c-0.309-3.136-0.463-5.151-0.463-6.048c0-0.168-0.027-0.644-0.084-1.428c-0.027-0.616-0.027-1.078,0-1.387
		c0.084-0.644,0.602-1.455,1.555-2.436c0.14-0.056,0.392-0.084,0.756-0.084c0.363,0,0.867,0.175,1.512,0.524
		c0.645,0.351,1.105,0.666,1.387,0.945c2.771,2.997,5.529,5.979,8.273,8.946c4.536,4.761,7.238,7.14,8.105,7.14
		c0.141,0,0.211-0.35,0.211-1.05c0-1.876-0.288-4.802-0.861-8.778c-0.574-3.976-0.861-7.014-0.861-9.113
		c0-1.429,0.406-2.143,1.219-2.143c0.783,0,1.469,0.504,2.058,1.513c0.531,0.84,0.798,1.652,0.798,2.436
		c0,0.252-0.028,0.645-0.084,1.176c-0.057,0.532-0.084,0.938-0.084,1.218c0,3.137,0.35,7.085,1.05,11.845
		c0.196,1.288,0.42,2.576,0.673,3.863C242.969,32.12,243.094,33.422,243.094,34.514z"/>
	<path d="M269.426,17.191c0,0.532-0.14,1.106-0.42,1.722c-0.336,0.756-0.756,1.134-1.26,1.134c-0.225,0-0.574-0.195-1.05-0.588
		c-1.232-0.951-2.086-1.567-2.562-1.848c-1.008-0.588-2.002-0.882-2.982-0.882c-1.176,0-2.492,0.21-3.947,0.629
		c-1.988,0.586-4.215,1.927-6.679,4.021c-2.744,2.291-4.116,4.303-4.116,6.034c0,0.531,0.154,1.118,0.463,1.76
		c0.951,1.871,2.52,3.282,4.703,4.232c1.876,0.811,4.032,1.215,6.469,1.215c2.604,0,5.012-0.462,7.224-1.386
		c0.42-0.195,1.288-0.602,2.604-1.218c0.252-0.112,0.461-0.168,0.629-0.168c0.588,0,0.883,0.49,0.883,1.47
		c0,2.296-1.639,4.046-4.914,5.25c-2.381,0.84-4.942,1.26-7.686,1.26c-3.361,0-6.371-0.742-9.031-2.226
		c-3.275-1.849-4.914-4.354-4.914-7.519c0-3.359,1.162-6.397,3.486-9.113c5.516-6.412,10.809-9.618,15.877-9.618
		c1.371,0,2.533,0.451,3.485,1.354c0.812,0.649,1.597,1.312,2.353,1.989C268.965,15.572,269.426,16.403,269.426,17.191z"/>
	<path d="M274.215,33.613c0,0.672-0.127,1.624-0.379,2.856c-0.309,1.568-0.658,2.352-1.05,2.352c-0.252,0-0.679-0.14-1.28-0.42
		c-0.604-0.279-0.987-0.546-1.156-0.798c-0.056-0.111-0.084-0.84-0.084-2.185v-2.268c0-2.072-0.098-5.166-0.293-9.282
		c-0.365-3.92-0.547-6.607-0.547-8.063c0-0.98,0.532-2.044,1.597-3.192c0.224-0.084,0.447-0.126,0.672-0.126
		c0.448,0,0.882,0.546,1.302,1.638c0.42,0.98,0.615,1.723,0.588,2.227c-0.252,2.912-0.377,4.521-0.377,4.83
		c0,2.632,0.152,5.572,0.461,8.819c0.027,0.336,0.141,0.938,0.336,1.807C274.145,32.536,274.215,33.138,274.215,33.613z"/>
	<path d="M77.857,10.929c-0.396,0.136-1.002,0.213-1.812,0.228c-1.028,0.03-1.605-0.14-1.734-0.51
		c-0.082-0.238-0.141-0.67-0.172-1.296c-0.031-0.628,0-1.046,0.094-1.256c0.048-0.076,0.47-0.251,1.264-0.527l1.342-0.465
		c1.225-0.425,3.021-1.151,5.393-2.181c2.197-1.147,3.727-1.87,4.588-2.169c0.58-0.201,1.383,0.083,2.41,0.854
		c0.123,0.195,0.221,0.396,0.295,0.609c0.146,0.424-0.033,0.946-0.542,1.565c-0.442,0.598-0.816,0.936-1.124,1.013
		c-1.805,0.358-2.797,0.57-2.979,0.633c-1.556,0.54-3.244,1.288-5.063,2.244c-0.189,0.096-0.509,0.325-0.957,0.688
		C78.472,10.641,78.139,10.83,77.857,10.929z"/>
	<path d="M307.851,23.575c0,4.509-2.084,8.4-6.251,11.676c-3.831,3.053-8.041,4.578-12.627,4.578c-3.243,0-6.18-0.889-8.809-2.667
		c-2.629-1.777-4.586-4.179-5.873-7.203c-0.391-0.867-0.587-1.722-0.587-2.562c0-1.12,0.321-2.338,0.965-3.654
		c1.595-3.444,4.489-6.384,8.684-8.82c4.026-2.295,8.013-3.443,11.956-3.443c3.188,0,6.074,1.218,8.661,3.653
		C306.557,17.569,307.851,20.383,307.851,23.575z M304.49,25.675c0-1.119-0.519-2.394-1.554-3.821
		c-2.493-3.332-5.53-4.998-9.114-4.998c-2.996,0-6.216,0.868-9.66,2.604c-4.592,2.297-6.888,4.341-6.888,6.132
		c0,0.812,0.447,1.737,1.344,2.772c3.584,4.116,7.378,6.174,11.382,6.174c3.08,0,6.133-0.728,9.156-2.184
		C302.712,30.562,304.49,28.336,304.49,25.675z"/>
	<path d="M333.496,34.37c0,0.729-0.084,1.484-0.252,2.269c-0.225,1.148-0.531,1.75-0.924,1.806
		c-1.062,0.196-1.902,0.084-2.516-0.336c-0.307-0.224-0.775-0.588-1.404-1.092s-1.361-1.204-2.201-2.101
		c-1.09-1.176-1.773-1.903-2.053-2.184c-1.51-1.372-3.312-3.15-5.408-5.334c-1.312-1.428-3.381-3.556-6.201-6.384
		c-0.336-0.309-0.588-0.462-0.754-0.462c-0.309,0-0.463,0.854-0.463,2.562c0,1.596,0.098,3.711,0.295,6.342
		c0.051,0.336,0.154,0.952,0.311,1.849c0.156,0.756,0.234,1.358,0.234,1.806c0,0.7-0.141,1.666-0.42,2.897
		c-0.279,1.513-0.615,2.269-1.008,2.269c-0.477,0-0.994-0.168-1.553-0.504c-0.701-0.42-1.051-0.896-1.051-1.428
		c0-0.168,0.021-0.463,0.062-0.883c0.043-0.42,0.064-0.741,0.064-0.966c0-0.14-0.016-0.756-0.043-1.848
		c0-2.101-0.084-5.208-0.253-9.324c-0.308-3.136-0.462-5.151-0.462-6.048c0-0.168-0.027-0.644-0.084-1.428
		c-0.028-0.616-0.028-1.078,0-1.387c0.084-0.644,0.604-1.455,1.555-2.436c0.141-0.056,0.393-0.084,0.756-0.084
		s0.867,0.175,1.512,0.524c0.645,0.351,1.105,0.666,1.387,0.945c2.771,2.997,5.529,5.979,8.273,8.946
		c4.537,4.761,7.238,7.14,8.105,7.14c0.141,0,0.211-0.35,0.211-1.05c0-1.876-0.287-4.802-0.861-8.778
		c-0.574-3.976-0.861-7.014-0.861-9.113c0-1.429,0.406-2.143,1.219-2.143c0.783,0,1.471,0.504,2.059,1.513
		c0.531,0.84,0.797,1.652,0.797,2.436c0,0.252-0.027,0.645-0.084,1.176c-0.057,0.532-0.084,0.938-0.084,1.218
		c0,3.137,0.35,7.085,1.051,11.845c0.195,1.288,0.42,2.576,0.672,3.863C333.371,31.977,333.496,33.278,333.496,34.37z"/>
	<path d="M359.305,35.042c0.027,0.756-0.168,1.568-0.588,2.437c-0.449,1.036-1.008,1.554-1.68,1.554
		c-0.701,0-1.135-1.008-1.303-3.024c-0.029-0.447-0.057-0.714-0.084-0.798c-0.42-1.596-1.988-2.394-4.706-2.394
		c-0.307,0-0.699,0-1.176,0c-0.531,0.028-0.896,0.042-1.092,0.042c-1.428,0-3.205,0.183-5.334,0.546
		c-2.882,0.477-4.64,0.742-5.271,0.798c-0.629,0.057-1.035,0.378-1.217,0.966c-0.184,0.588-0.344,1.162-0.482,1.723
		c-0.281,1.092-0.785,1.834-1.514,2.226c-0.223,0.111-0.434,0.168-0.629,0.168c-0.588,0-0.91-0.462-0.967-1.386
		c-0.084-1.624,0.379-3.934,1.387-6.93v-0.085c-0.029-0.447,0.154-0.867,0.545-1.26c2.129-5.544,5.209-10.136,9.239-13.775
		c0.252-0.225,0.756-0.868,1.512-1.933c0.506-0.728,1.121-1.203,1.85-1.428c0.699-0.084,1.566-0.224,2.604-0.42
		c0.84-0.252,1.316-0.378,1.428-0.378c1.065,0,2.577,3.346,4.536,10.038C358.156,27.944,359.137,32.383,359.305,35.042z
		 M353.256,25.761c0-0.757-0.363-2.065-1.093-3.928c-0.729-1.861-1.33-3.072-1.807-3.633c-0.336-0.392-0.699-0.588-1.092-0.588
		c-1.176,0-3.094,1.414-5.754,4.242c-2.659,2.828-3.962,4.83-3.905,6.006c0.027,0.616,0.896,0.924,2.604,0.924
		c1.68,0,3.568-0.126,5.67-0.378c2.688-0.363,4.354-0.84,4.999-1.428C353.158,26.671,353.283,26.265,353.256,25.761z"/>
	<g>
		<path d="M384.736,10.597c0,2.53-1.041,5.131-3.121,7.8c-1.838,2.392-3.951,4.281-6.344,5.668c-1.941,1.109-4.074,2.08-6.396,2.912
			c-2.773,1.04-5.061,1.56-6.863,1.56c-0.902,0-1.352-0.554-1.352-1.664c0-0.866,0.277-1.819,0.832-2.859
			c0.588-1.179,1.299-1.854,2.131-2.028c1.906-0.347,3.814-0.693,5.721-1.04c1.941-0.45,3.691-1.23,5.252-2.34
			c3.432-2.322,5.148-4.004,5.148-5.044c0-1.698-2.791-2.548-8.373-2.548c-1.316,0-3.016,0.052-5.096,0.155
			c-1.768,0.104-3.865,0.556-6.291,1.353c-0.383,0.139-0.676,0.208-0.885,0.208c-0.623,0-0.936-0.347-0.936-1.04
			c0-0.763,0.234-1.612,0.701-2.548c0.469-0.937,1.049-1.577,1.742-1.925c1.664-0.865,3.918-1.56,6.76-2.079
			c2.566-0.521,4.922-0.78,7.072-0.78c2.566,0,4.732,0.364,6.5,1.092C383.471,6.523,384.736,8.239,384.736,10.597z M373.867,34.568
			c-0.277,0.416-0.701,1.04-1.273,1.872s-1.066,1.352-1.482,1.56c-0.555,0.278-1.629,0.711-3.223,1.3
			c-1.77,0.59-2.879,0.885-3.328,0.885c-0.971,0-1.83-0.312-2.574-0.937c-0.746-0.624-1.119-1.421-1.119-2.392
			c0-0.485,0.121-0.937,0.365-1.353c0.277-0.658,1.957-1.352,5.043-2.08c2.773-0.657,4.801-0.987,6.084-0.987
			c0.174,0,0.381,0.052,0.625,0.155C373.156,32.835,373.451,33.494,373.867,34.568z"/>
	</g>
	<g>
		<path d="M2.098,33.454C2.069,30.925,3.08,28.313,5.13,25.62c1.811-2.413,3.902-4.326,6.278-5.74
			c1.929-1.132,4.051-2.127,6.363-2.985c2.762-1.072,5.042-1.617,6.845-1.638c0.902-0.011,1.358,0.538,1.37,1.648
			c0.01,0.866-0.256,1.822-0.799,2.869c-0.574,1.185-1.277,1.869-2.107,2.052c-1.902,0.369-3.807,0.737-5.709,1.106
			c-1.936,0.472-3.677,1.271-5.225,2.398c-3.404,2.361-5.102,4.062-5.09,5.104c0.02,1.697,2.82,2.516,8.401,2.451
			c1.316-0.015,3.015-0.086,5.094-0.214c1.766-0.124,3.858-0.6,6.274-1.423c0.381-0.144,0.674-0.217,0.883-0.219
			c0.623-0.008,0.939,0.336,0.947,1.029c0.009,0.763-0.216,1.614-0.672,2.556c-0.458,0.941-1.031,1.589-1.721,1.944
			c-1.653,0.884-3.899,1.604-6.735,2.156c-2.56,0.55-4.912,0.837-7.062,0.861c-2.566,0.028-4.736-0.31-6.512-1.018
			C3.41,37.514,2.125,35.812,2.098,33.454z M12.692,9.36c0.272-0.419,0.689-1.048,1.252-1.887c0.563-0.839,1.052-1.363,1.464-1.576
			c0.553-0.284,1.621-0.729,3.208-1.336c1.763-0.61,2.869-0.919,3.318-0.924c0.971-0.011,1.833,0.292,2.585,0.908
			c0.753,0.614,1.135,1.407,1.146,2.378c0.006,0.485-0.11,0.938-0.35,1.356c-0.27,0.661-1.94,1.374-5.019,2.138
			c-2.766,0.689-4.789,1.043-6.072,1.057c-0.174,0.003-0.381-0.047-0.627-0.147C13.424,11.086,13.121,10.43,12.692,9.36z"/>
	</g>
</g>
</svg>
