<?xml version="1.0" encoding="utf-8"?>
<!-- Generator: Adobe Illustrator 15.0.2, SVG Export Plug-In . SVG Version: 6.00 Build 0)  -->
<!DOCTYPE svg PUBLIC "-//W3C//DTD SVG 1.1//EN" "http://www.w3.org/Graphics/SVG/1.1/DTD/svg11.dtd">
<svg version="1.1" id="Layer_1" xmlns="http://www.w3.org/2000/svg" xmlns:xlink="http://www.w3.org/1999/xlink" x="0px" y="0px"
	 width="300.334px" height="43px" viewBox="0 0 300.334 43" enable-background="new 0 0 300.334 43" xml:space="preserve">
<g>
	<path d="M62.751,10.891c0,0.659-0.174,1.37-0.52,2.132c-0.416,0.936-0.936,1.404-1.56,1.404c-0.278,0-0.711-0.242-1.3-0.729
		c-1.526-1.178-2.583-1.94-3.172-2.288c-1.248-0.728-2.479-1.092-3.692-1.092c-1.456,0-3.086,0.26-4.888,0.778
		c-2.462,0.727-5.218,2.387-8.268,4.979c-3.398,2.837-5.096,5.327-5.096,7.472c0,0.657,0.19,1.384,0.572,2.178
		c1.178,2.317,3.12,4.064,5.824,5.24c2.322,1.003,4.992,1.505,8.008,1.505c3.224,0,6.205-0.572,8.944-1.716
		c0.52-0.242,1.594-0.745,3.224-1.509c0.312-0.138,0.572-0.208,0.78-0.208c0.728,0,1.092,0.607,1.092,1.82
		c0,2.843-2.028,5.01-6.084,6.5c-2.947,1.04-6.119,1.56-9.516,1.56c-4.16,0-7.887-0.919-11.18-2.756
		c-4.056-2.288-6.084-5.39-6.084-9.308c0-4.16,1.438-7.921,4.316-11.284C40.98,7.632,47.532,3.662,53.807,3.662
		c1.698,0,3.137,0.56,4.316,1.678c1.005,0.804,1.976,1.625,2.912,2.463C62.179,8.886,62.751,9.915,62.751,10.891z"/>
	<path d="M95.505,22.444c0,4.509-2.083,8.4-6.25,11.676c-3.832,3.053-8.041,4.578-12.627,4.578c-3.244,0-6.18-0.889-8.809-2.667
		c-2.629-1.777-4.586-4.179-5.873-7.203c-0.392-0.867-0.587-1.722-0.587-2.562c0-1.12,0.322-2.338,0.965-3.654
		c1.594-3.444,4.489-6.384,8.684-8.82c4.027-2.295,8.012-3.443,11.956-3.443c3.188,0,6.075,1.218,8.662,3.653
		C94.211,16.438,95.505,19.252,95.505,22.444z M92.145,24.544c0-1.119-0.519-2.394-1.554-3.821c-2.493-3.332-5.53-4.998-9.114-4.998
		c-2.997,0-6.216,0.868-9.66,2.604c-4.592,2.297-6.888,4.341-6.888,6.132c0,0.812,0.447,1.737,1.344,2.772
		c3.584,4.116,7.378,6.174,11.382,6.174c3.08,0,6.132-0.728,9.156-2.184C90.367,29.431,92.145,27.205,92.145,24.544z"/>
	<path d="M127.198,34.313c0,0.588-0.238,1.358-0.714,2.311c-0.588,1.064-1.19,1.596-1.806,1.596c-0.868,0-2.086-2.086-3.654-6.258
		c-1.008-2.744-1.834-5.348-2.478-7.812c-0.728-2.771-1.288-4.157-1.68-4.157c-0.504,0-2.058,2.981-4.662,8.945
		c-0.309,0.896-0.798,2.227-1.47,3.99c-0.084,0.896-0.49,1.988-1.218,3.276c-0.812,1.456-1.638,2.184-2.478,2.184
		c-1.176,0-2.52-2.155-4.032-6.468c-0.84-2.744-1.68-5.516-2.52-8.316c-0.309-0.84-0.504-1.26-0.588-1.26c0,0.028,0,0.057,0,0.084
		c-0.588,0.868-1.33,3.417-2.226,7.645c-0.112,0.924-0.378,2.268-0.798,4.031c-0.28,0.756-0.672,1.61-1.176,2.562
		c-0.672,1.26-1.205,1.89-1.596,1.89c-0.309,0-0.729-0.301-1.26-0.903c-0.532-0.602-0.798-1.084-0.798-1.448
		c0-0.252,0.056-0.519,0.168-0.798c0.252-0.477,0.378-0.729,0.378-0.757c0.336-1.063,0.812-2.659,1.428-4.788
		c0.532-1.596,1.246-4.003,2.142-7.224c0.308-1.147,0.616-2.31,0.924-3.486c0.308-1.371,0.462-2.562,0.462-3.569
		c0-0.868,0.07-1.498,0.21-1.891c0.111-0.308,0.657-0.714,1.638-1.218c0.924-0.447,1.54-0.672,1.848-0.672
		c0.476,0,0.784,0.322,0.924,0.966c0.056,0.477,0.112,0.952,0.168,1.429c0.112,1.092,0.756,3.584,1.932,7.476
		c1.148,3.809,1.988,6.328,2.52,7.56c0.252,0.532,0.476,0.799,0.672,0.799c0.28,0,1.638-2.632,4.074-7.896l2.814-6.048
		c0.952-2.017,1.568-3.255,1.848-3.717c0.279-0.462,1.287-1.085,3.024-1.869c0.644,0.057,1.33,1.876,2.058,5.46
		c0.336,1.876,0.728,4.018,1.176,6.426c1.092,3.612,1.666,5.502,1.722,5.67c0.783,2.296,1.666,4.019,2.646,5.166
		C127.072,33.53,127.198,33.894,127.198,34.313z"/>
	<path d="M157.86,22.47c0,4.509-2.083,8.4-6.25,11.676c-3.832,3.053-8.041,4.578-12.627,4.578c-3.244,0-6.18-0.889-8.809-2.667
		c-2.629-1.777-4.586-4.179-5.873-7.203c-0.392-0.867-0.587-1.722-0.587-2.562c0-1.12,0.322-2.338,0.965-3.654
		c1.594-3.444,4.489-6.384,8.684-8.82c4.027-2.295,8.012-3.443,11.956-3.443c3.188,0,6.075,1.218,8.662,3.653
		C156.566,16.464,157.86,19.277,157.86,22.47z M154.5,24.569c0-1.119-0.519-2.394-1.554-3.821c-2.493-3.332-5.53-4.998-9.114-4.998
		c-2.997,0-6.216,0.868-9.66,2.604c-4.592,2.297-6.888,4.341-6.888,6.132c0,0.812,0.447,1.737,1.344,2.772
		c3.584,4.116,7.378,6.174,11.382,6.174c3.08,0,6.132-0.728,9.156-2.184C152.722,29.456,154.5,27.23,154.5,24.569z"/>
	<path d="M77.996,9.905c-0.397,0.136-1.002,0.213-1.812,0.228c-1.029,0.03-1.606-0.14-1.735-0.51
		c-0.082-0.238-0.14-0.67-0.171-1.296c-0.032-0.628,0-1.046,0.093-1.256c0.048-0.076,0.47-0.251,1.264-0.527l1.341-0.465
		c1.225-0.425,3.022-1.151,5.392-2.181c2.198-1.147,3.728-1.87,4.588-2.169c0.58-0.201,1.383,0.083,2.411,0.854
		c0.123,0.195,0.221,0.396,0.294,0.609c0.146,0.424-0.034,0.946-0.542,1.565c-0.442,0.598-0.816,0.936-1.124,1.013
		c-1.805,0.358-2.797,0.57-2.98,0.633c-1.556,0.54-3.244,1.288-5.063,2.244c-0.189,0.096-0.509,0.325-0.958,0.688
		C78.609,9.617,78.277,9.807,77.996,9.905z"/>
	<g>
		<path d="M297.478,10.425c0,2.53-1.041,5.131-3.121,7.8c-1.838,2.392-3.951,4.281-6.344,5.668c-1.941,1.109-4.074,2.08-6.396,2.912
			c-2.773,1.04-5.061,1.56-6.863,1.56c-0.902,0-1.352-0.554-1.352-1.664c0-0.866,0.277-1.819,0.832-2.859
			c0.588-1.179,1.299-1.854,2.131-2.028c1.906-0.347,3.814-0.693,5.721-1.04c1.941-0.45,3.691-1.23,5.252-2.34
			c3.432-2.322,5.148-4.004,5.148-5.044c0-1.698-2.791-2.548-8.373-2.548c-1.316,0-3.016,0.052-5.096,0.155
			c-1.768,0.104-3.865,0.556-6.291,1.353c-0.383,0.139-0.676,0.208-0.885,0.208c-0.623,0-0.936-0.347-0.936-1.04
			c0-0.763,0.234-1.612,0.701-2.548c0.469-0.937,1.049-1.577,1.742-1.925c1.664-0.865,3.918-1.56,6.76-2.079
			c2.566-0.521,4.922-0.78,7.072-0.78c2.566,0,4.732,0.364,6.5,1.092C296.212,6.352,297.478,8.067,297.478,10.425z M286.608,34.396
			c-0.277,0.416-0.701,1.04-1.273,1.872s-1.066,1.352-1.482,1.56c-0.555,0.278-1.629,0.711-3.223,1.3
			c-1.77,0.59-2.879,0.885-3.328,0.885c-0.971,0-1.83-0.312-2.574-0.937c-0.746-0.624-1.119-1.421-1.119-2.392
			c0-0.485,0.121-0.937,0.365-1.353c0.277-0.658,1.957-1.352,5.043-2.08c2.773-0.657,4.801-0.987,6.084-0.987
			c0.174,0,0.381,0.052,0.625,0.155C285.897,32.663,286.192,33.322,286.608,34.396z"/>
	</g>
	<g>
		<path d="M2.236,32.431c-0.029-2.529,0.982-5.141,3.032-7.834c1.811-2.413,3.902-4.326,6.279-5.74
			c1.928-1.132,4.05-2.127,6.362-2.985c2.762-1.072,5.042-1.617,6.845-1.638c0.902-0.011,1.358,0.538,1.37,1.648
			c0.01,0.866-0.256,1.822-0.799,2.869c-0.575,1.185-1.277,1.869-2.107,2.052c-1.902,0.369-3.807,0.737-5.708,1.106
			c-1.937,0.472-3.677,1.271-5.225,2.398c-3.405,2.361-5.102,4.062-5.09,5.104c0.02,1.697,2.82,2.516,8.402,2.451
			c1.316-0.015,3.015-0.086,5.094-0.214c1.766-0.124,3.858-0.6,6.275-1.423c0.381-0.144,0.673-0.217,0.882-0.219
			c0.623-0.008,0.939,0.336,0.947,1.029c0.009,0.763-0.216,1.614-0.672,2.556c-0.458,0.941-1.031,1.589-1.72,1.944
			c-1.654,0.884-3.9,1.604-6.736,2.156c-2.56,0.55-4.912,0.837-7.062,0.861c-2.566,0.028-4.736-0.31-6.512-1.018
			C3.548,36.49,2.263,34.789,2.236,32.431z M12.83,8.337c0.273-0.419,0.689-1.048,1.252-1.887c0.563-0.839,1.051-1.363,1.464-1.576
			c0.552-0.284,1.621-0.729,3.208-1.336c1.763-0.61,2.869-0.919,3.318-0.924c0.971-0.011,1.833,0.292,2.584,0.908
			C25.41,4.137,25.792,4.93,25.803,5.9c0.006,0.485-0.11,0.938-0.35,1.356c-0.27,0.661-1.941,1.374-5.019,2.138
			c-2.766,0.689-4.789,1.043-6.072,1.057c-0.174,0.003-0.381-0.047-0.627-0.147C13.561,10.062,13.258,9.406,12.83,8.337z"/>
	</g>
	<path d="M193.908,9.695c0,1.491-0.572,3.086-1.716,4.784c-3.19,4.854-7.124,8.615-11.804,11.284
		c-2.288,1.317-4.836,2.531-7.644,3.64c-0.486,0.174-1.196,0.503-2.132,0.988c-0.312,0.243-0.642,1.907-0.988,4.992
		c-0.278,2.912-0.763,4.402-1.456,4.472h-0.104c-0.971,0.034-1.786-0.32-2.444-1.065c-0.659-0.745-0.988-1.604-0.988-2.574
		c0-0.901,0.043-2.306,0.13-4.212c0.086-1.906,0.13-3.328,0.13-4.265c0-1.594-0.156-3.969-0.468-7.124
		c-0.312-3.153-0.468-5.494-0.468-7.02c0-1.629,0.206-3.189,0.62-4.68c0.626-2.08,1.512-3.259,2.656-3.536
		c3.016-0.693,7.644-1.04,13.884-1.04c6.933,0,10.885,0.763,11.856,2.288C193.596,7.563,193.908,8.587,193.908,9.695z
		 M188.448,12.399c0-0.624-1.058-1.057-3.172-1.3c-1.006-0.138-2.514-0.208-4.524-0.208c-3.744,0-7.142,0.278-10.192,0.832
		c-1.352,0.278-2.028,2.15-2.028,5.616c0,3.362,0.19,5.408,0.572,6.136c0.138,0.278,0.468,0.416,0.988,0.416
		c2.392,0,5.815-1.308,10.27-3.926c4.454-2.617,7.098-4.948,7.93-6.994C188.396,12.729,188.448,12.539,188.448,12.399z"/>
	<path d="M206.729,34.817c0.027,0.756-0.168,1.568-0.588,2.437c-0.448,1.036-1.008,1.554-1.68,1.554c-0.7,0-1.134-1.008-1.302-3.024
		c-0.028-0.447-0.057-0.714-0.084-0.798c-0.42-1.596-1.989-2.394-4.704-2.394c-0.309,0-0.7,0-1.176,0
		c-0.532,0.028-0.896,0.042-1.092,0.042c-1.428,0-3.207,0.183-5.334,0.546c-2.884,0.477-4.641,0.742-5.271,0.798
		c-0.63,0.057-1.036,0.378-1.218,0.966s-0.343,1.162-0.483,1.723c-0.28,1.092-0.784,1.834-1.512,2.226
		c-0.225,0.111-0.435,0.168-0.63,0.168c-0.588,0-0.91-0.462-0.966-1.386c-0.084-1.624,0.378-3.934,1.386-6.93v-0.085
		c-0.028-0.447,0.153-0.867,0.546-1.26c2.127-5.544,5.208-10.136,9.24-13.775c0.252-0.225,0.756-0.868,1.512-1.933
		c0.504-0.728,1.12-1.203,1.848-1.428c0.699-0.084,1.567-0.224,2.604-0.42c0.84-0.252,1.315-0.378,1.428-0.378
		c1.064,0,2.576,3.346,4.536,10.038C205.581,27.72,206.562,32.158,206.729,34.817z M200.682,25.536c0-0.757-0.364-2.065-1.092-3.928
		c-0.729-1.861-1.33-3.072-1.806-3.633c-0.336-0.392-0.7-0.588-1.092-0.588c-1.176,0-3.094,1.414-5.754,4.242
		c-2.661,2.828-3.962,4.83-3.906,6.006c0.028,0.616,0.896,0.924,2.604,0.924c1.68,0,3.57-0.126,5.67-0.378
		c2.688-0.363,4.354-0.84,4.998-1.428C200.583,26.446,200.709,26.04,200.682,25.536z"/>
	<path d="M236.758,25.031c0,1.429-0.259,3.06-0.777,4.894c-0.519,1.834-1.169,3.381-1.953,4.641
		c-2.016,3.333-6.188,4.998-12.516,4.998c-6.692,0-11.298-1.791-13.818-5.376c-1.176-1.68-1.764-3.43-1.764-5.25
		c0-2.743,1.232-5.586,3.696-8.525c2.268-2.66,5.103-4.907,8.505-6.741s6.475-2.751,9.219-2.751c1.512,0,3.108,0.385,4.788,1.154
		c1.68,0.771,2.982,1.729,3.906,2.878c0.252,0.336,0.378,0.742,0.378,1.218c0,0.532-0.154,1.092-0.462,1.68
		c-0.364,0.729-0.84,1.092-1.428,1.092c-0.28,0-0.574-0.111-0.882-0.336c-0.812-0.588-1.4-0.993-1.764-1.218
		c-0.672-0.392-1.358-0.672-2.058-0.84c-0.953-0.224-1.974-0.336-3.066-0.336c-0.476,0-0.966,0.015-1.47,0.042
		c-2.409,0.28-4.606,0.896-6.594,1.848c-1.512,0.729-3.43,1.96-5.754,3.696c-2.324,1.736-3.486,3.388-3.486,4.956
		c0,1.176,0.63,2.408,1.89,3.695c2.548,2.577,6.37,3.864,11.466,3.864c1.512,0,3.135-0.14,4.872-0.42
		c2.211-0.363,3.625-0.867,4.242-1.512c0.728-0.784,1.092-1.891,1.092-3.318c0-0.308-0.042-0.588-0.126-0.84
		c-0.225-0.672-2.016-1.008-5.376-1.008c-1.708,0-3.542-0.069-5.502-0.21c-0.141,0-0.372,0.021-0.693,0.062
		c-0.322,0.042-0.539,0.063-0.651,0.063c-0.42,0-0.868-0.363-1.344-1.092c-0.504-0.616-0.756-1.106-0.756-1.471
		c0-1.68,3.948-2.52,11.844-2.52c3.892,0,5.964,0.532,6.216,1.596C236.716,23.926,236.758,24.388,236.758,25.031z"/>
	<path d="M270.905,23.226c0,4.509-2.084,8.4-6.251,11.676c-3.832,3.053-8.041,4.578-12.627,4.578c-3.244,0-6.18-0.889-8.809-2.667
		c-2.629-1.777-4.586-4.179-5.873-7.203c-0.392-0.867-0.587-1.722-0.587-2.562c0-1.12,0.322-2.338,0.965-3.654
		c1.594-3.444,4.489-6.384,8.684-8.82c4.027-2.295,8.012-3.443,11.956-3.443c3.188,0,6.075,1.218,8.662,3.653
		C269.61,17.22,270.905,20.033,270.905,23.226z M267.544,25.325c0-1.119-0.518-2.394-1.553-3.821
		c-2.493-3.332-5.531-4.998-9.115-4.998c-2.997,0-6.216,0.868-9.66,2.604c-4.592,2.297-6.888,4.341-6.888,6.132
		c0,0.812,0.447,1.737,1.344,2.772c3.584,4.116,7.378,6.174,11.382,6.174c3.08,0,6.132-0.728,9.156-2.184
		C265.767,30.212,267.544,27.986,267.544,25.325z"/>
</g>
</svg>
