<?xml version="1.0" encoding="utf-8"?>
<!-- Generator: Adobe Illustrator 15.0.2, SVG Export Plug-In . SVG Version: 6.00 Build 0)  -->
<!DOCTYPE svg PUBLIC "-//W3C//DTD SVG 1.1//EN" "http://www.w3.org/Graphics/SVG/1.1/DTD/svg11.dtd">
<svg version="1.1" id="Layer_1" xmlns="http://www.w3.org/2000/svg" xmlns:xlink="http://www.w3.org/1999/xlink" x="0px" y="0px"
	 width="434.5px" height="43px" viewBox="0 0 434.5 43" enable-background="new 0 0 434.5 43" xml:space="preserve">
<g>
	<path d="M35.001,7.513c0,0.624-0.243,1.335-0.728,2.132c-0.556,0.937-1.162,1.404-1.82,1.404c-0.383,0-0.928-0.043-1.639-0.13
		s-1.239-0.13-1.586-0.13c-2.461,0-5.199,0.398-8.216,1.195c-3.016,0.798-6.396,1.474-10.14,2.028
		c-0.729,0.139-1.248,0.26-1.561,0.364c-0.623,0.242-1.022,0.59-1.195,1.04c-0.383,1.144-0.572,2.322-0.572,3.535
		c0,1.526,0.381,2.288,1.145,2.288c0.068,0,0.155-0.017,0.26-0.052c5.928-1.456,11.162-2.184,15.703-2.184
		c5.755,0,8.633,0.728,8.633,2.184c0,0.555-0.227,1.248-0.676,2.08c-0.555,0.971-1.127,1.456-1.717,1.456
		c-0.381,0-0.928-0.052-1.638-0.156c-0.711-0.104-1.257-0.155-1.638-0.155c-1.803,0-4.057,0.295-6.76,0.884
		c-2.254,0.485-4.49,0.936-6.709,1.352c-2.357,0.416-3.64,0.676-3.848,0.78c-0.832,0.451-1.318,1.595-1.456,3.432
		c-0.034,1.11-0.174,2.809-0.416,5.097c-0.278,2.045-0.728,3.067-1.353,3.067c-0.623,0-1.282-0.226-1.975-0.676
		c-0.867-0.52-1.301-1.092-1.301-1.716c0-0.312,0.025-0.763,0.078-1.353c0.052-0.589,0.078-1.021,0.078-1.3
		c0-6.933-0.122-11.89-0.364-14.872c-0.382-4.68-0.571-7.4-0.571-8.164c0-0.624-0.053-1.291-0.156-2.002
		C2.761,8.232,2.709,7.79,2.709,7.616c0-0.728,0.572-1.768,1.716-3.119c0.832-0.347,1.265-0.521,1.3-0.521
		c0.174,0,0.33,0.087,0.469,0.26l0.26,0.312C7.701,6.316,8.758,7.2,9.625,7.2c0.277,0,0.676-0.052,1.195-0.155
		c6.102-1.109,11.545-1.664,16.328-1.664C32.383,5.381,35.001,6.092,35.001,7.513z"/>
	<path d="M66.635,22.489c0,4.509-2.084,8.4-6.25,11.676c-3.832,3.053-8.041,4.578-12.627,4.578c-3.244,0-6.18-0.889-8.809-2.667
		c-2.629-1.777-4.586-4.179-5.873-7.203c-0.392-0.867-0.588-1.722-0.588-2.562c0-1.12,0.322-2.338,0.965-3.654
		c1.595-3.444,4.489-6.384,8.684-8.82c4.027-2.295,8.013-3.443,11.956-3.443c3.188,0,6.075,1.218,8.661,3.653
		C65.342,16.483,66.635,19.297,66.635,22.489z M63.275,24.589c0-1.119-0.52-2.394-1.555-3.821c-2.492-3.332-5.529-4.998-9.113-4.998
		c-2.997,0-6.217,0.868-9.66,2.604c-4.593,2.297-6.889,4.341-6.889,6.132c0,0.812,0.447,1.737,1.344,2.772
		c3.584,4.116,7.379,6.174,11.383,6.174c3.08,0,6.132-0.728,9.156-2.184C61.496,29.476,63.275,27.25,63.275,24.589z"/>
	<path d="M94.187,13.801c0,4.116-3.472,8.373-10.416,12.769l-1.386,0.882c-0.28,0.196-0.42,0.351-0.42,0.462
		c0,0.141,0.378,0.477,1.134,1.008c1.399,0.924,3.416,2.423,6.048,4.494c0.309,0.225,0.637,0.47,0.987,0.735
		c0.35,0.267,0.524,0.581,0.524,0.944c0,0.112-0.084,0.421-0.252,0.925c-1.176,0.252-2.142,0.378-2.897,0.378
		c-1.036,0-2.101-0.252-3.192-0.756c-0.336-0.141-1.33-0.673-2.981-1.597c-2.185-1.26-4.522-2.155-7.015-2.688
		c-0.561-0.14-1.021-0.21-1.386-0.21c-0.532,0-0.826,0.154-0.882,0.462c-0.057,0.168-0.099,0.658-0.126,1.47
		c-0.196,3.809-0.714,5.712-1.554,5.712c-0.084,0-0.547-0.141-1.387-0.42c-0.84-0.28-1.357-0.672-1.554-1.176
		c-0.112-0.224-0.168-0.825-0.168-1.806c0-0.7,0.028-1.75,0.084-3.15c0.056-1.399,0.084-2.437,0.084-3.108
		c0-1.903-0.084-3.653-0.252-5.25c-0.364-3.331-0.546-5.306-0.546-5.922c0-0.279,0.021-0.741,0.062-1.386
		c0.043-0.644,0.063-1.134,0.063-1.47c0-0.561,0.321-1.372,0.966-2.437c0.645-1.063,1.246-1.638,1.807-1.722
		c3.275-0.56,8.147-0.84,14.615-0.84c2.94,0,4.941,0.112,6.006,0.336C92.843,10.918,94.187,12.037,94.187,13.801z M89.734,16.783
		c0-0.027-0.014-0.056-0.041-0.084c-0.477-0.867-2.562-1.302-6.259-1.302c-2.464,0-5.74,0.141-9.827,0.42
		c-0.533,0.028-0.939,0.07-1.219,0.126c-0.477,0.112-0.784,0.309-0.924,0.588c-0.504,0.868-0.756,2.562-0.756,5.082
		c0,2.939,0.378,4.41,1.134,4.41c0.224,0,0.616-0.056,1.176-0.168c5.937-1.288,10.948-3.654,15.036-7.099
		C89.174,17.833,89.734,17.176,89.734,16.783z"/>
	<path d="M125.178,34.254c0,0.588-0.238,1.358-0.713,2.311c-0.588,1.064-1.191,1.596-1.807,1.596c-0.867,0-2.086-2.086-3.654-6.258
		c-1.008-2.744-1.834-5.348-2.479-7.812c-0.727-2.771-1.287-4.157-1.68-4.157c-0.504,0-2.057,2.981-4.662,8.945
		c-0.309,0.896-0.797,2.227-1.469,3.99c-0.084,0.896-0.49,1.988-1.219,3.276c-0.812,1.456-1.639,2.184-2.479,2.184
		c-1.176,0-2.52-2.155-4.031-6.468c-0.84-2.744-1.68-5.516-2.52-8.316c-0.309-0.84-0.504-1.26-0.588-1.26c0,0.028,0,0.057,0,0.084
		c-0.588,0.868-1.33,3.417-2.227,7.645c-0.111,0.924-0.378,2.268-0.798,4.031c-0.28,0.756-0.672,1.61-1.176,2.562
		c-0.673,1.26-1.204,1.89-1.597,1.89c-0.309,0-0.729-0.301-1.26-0.903c-0.531-0.602-0.798-1.084-0.798-1.448
		c0-0.252,0.056-0.519,0.168-0.798c0.252-0.477,0.378-0.729,0.378-0.757c0.336-1.063,0.812-2.659,1.428-4.788
		c0.532-1.596,1.246-4.003,2.143-7.224c0.308-1.147,0.615-2.31,0.924-3.486c0.309-1.371,0.462-2.562,0.462-3.569
		c0-0.868,0.069-1.498,0.21-1.891c0.111-0.308,0.658-0.714,1.639-1.218c0.924-0.447,1.539-0.672,1.848-0.672
		c0.476,0,0.783,0.322,0.924,0.966c0.056,0.477,0.111,0.952,0.168,1.429c0.111,1.092,0.756,3.584,1.932,7.476
		c1.148,3.809,1.988,6.328,2.52,7.56c0.252,0.532,0.477,0.799,0.672,0.799c0.281,0,1.639-2.632,4.074-7.896l2.814-6.048
		c0.951-2.017,1.568-3.255,1.848-3.717s1.287-1.085,3.025-1.869c0.643,0.057,1.328,1.876,2.057,5.46
		c0.336,1.876,0.729,4.018,1.176,6.426c1.092,3.612,1.666,5.502,1.723,5.67c0.783,2.296,1.666,4.019,2.646,5.166
		C125.053,33.471,125.178,33.834,125.178,34.254z"/>
	<path d="M151.229,34.003c0.027,0.756-0.168,1.568-0.588,2.437c-0.447,1.036-1.008,1.554-1.68,1.554
		c-0.699,0-1.133-1.008-1.301-3.024c-0.029-0.447-0.057-0.714-0.084-0.798c-0.422-1.596-1.99-2.394-4.705-2.394
		c-0.309,0-0.699,0-1.176,0c-0.533,0.028-0.896,0.042-1.092,0.042c-1.428,0-3.207,0.183-5.334,0.546
		c-2.885,0.477-4.641,0.742-5.271,0.798c-0.629,0.057-1.035,0.378-1.219,0.966c-0.182,0.588-0.342,1.162-0.482,1.723
		c-0.279,1.092-0.783,1.834-1.512,2.226c-0.225,0.111-0.434,0.168-0.631,0.168c-0.588,0-0.91-0.462-0.965-1.386
		c-0.084-1.624,0.377-3.934,1.387-6.93v-0.085c-0.029-0.447,0.152-0.867,0.545-1.26c2.127-5.544,5.209-10.136,9.24-13.775
		c0.252-0.225,0.756-0.868,1.512-1.933c0.504-0.728,1.119-1.203,1.848-1.428c0.699-0.084,1.568-0.224,2.605-0.42
		c0.84-0.252,1.314-0.378,1.428-0.378c1.062,0,2.574,3.346,4.535,10.038C150.08,26.905,151.061,31.344,151.229,34.003z
		 M145.182,24.722c0-0.757-0.365-2.065-1.092-3.928c-0.729-1.861-1.33-3.072-1.807-3.633c-0.336-0.392-0.699-0.588-1.092-0.588
		c-1.176,0-3.094,1.414-5.754,4.242s-3.963,4.83-3.906,6.006c0.027,0.616,0.896,0.924,2.604,0.924c1.68,0,3.57-0.126,5.67-0.378
		c2.689-0.363,4.354-0.84,4.998-1.428C145.082,25.632,145.209,25.226,145.182,24.722z"/>
	<path d="M176.707,29.802c0,0.812-0.309,1.695-0.924,2.646c-1.344,2.156-3.852,3.963-7.52,5.418
		c-3.248,1.315-6.299,1.974-9.154,1.974c-1.514,0-2.898-0.448-4.158-1.344c-1.4-1.008-2.1-2.239-2.1-3.696
		c0-0.476,0.098-1.021,0.293-1.638c0.252-0.812,0.561-1.218,0.924-1.218c0.225,0,0.602,0.351,1.135,1.05
		c1.035,1.232,2.365,1.848,3.99,1.848c1.848,0,3.92-0.321,6.215-0.966c2.465-0.615,4.396-1.399,5.797-2.352
		c0.195-0.14,0.293-0.252,0.293-0.336c0-0.196-0.434-0.462-1.301-0.798c-1.904-0.7-4.145-1.246-6.721-1.639
		c-0.98-0.14-3.291-0.405-6.93-0.798c-4.061-0.42-6.51-0.966-7.35-1.638c-0.309-0.224-0.463-0.588-0.463-1.092
		s0.168-1.135,0.504-1.891s0.699-1.315,1.092-1.68c1.625-1.288,4.018-3.248,7.182-5.88c1.682-1.456,3.809-2.884,6.385-4.284
		c3.051-1.651,5.445-2.478,7.182-2.478c1.148,0,2.289,0.539,3.424,1.616c1.133,1.078,1.701,2.233,1.701,3.465
		c0,0.393-0.127,0.953-0.379,1.681c-0.309,0.84-0.629,1.26-0.965,1.26c-0.113,0-0.352-0.153-0.715-0.462
		c-1.484-1.287-3.094-1.932-4.83-1.932c-2.996,0-7.07,2.086-12.223,6.258c-0.812,0.616-1.217,1.008-1.217,1.176
		c0,0.196,1.049,0.448,3.15,0.756c0.699,0.084,2.084,0.238,4.158,0.462c3.162,0.336,5.838,0.854,8.021,1.555
		C174.873,26.079,176.707,27.73,176.707,29.802z"/>
	<path d="M212.365,14.683c0,0.476-0.043,0.924-0.127,1.344c-0.756,3.528-2.66,7.028-5.711,10.5c-2.633,2.968-5.74,5.53-9.324,7.686
		c-1.428,0.868-3.137,1.723-5.125,2.562c-2.436,1.008-4.256,1.512-5.459,1.512c-0.645,0-0.994-0.812-1.051-2.436
		c0-0.448,0-0.98,0-1.597l0.043-1.092c0-4.844-0.084-8.26-0.252-10.248c-0.336-3.416-0.504-5.432-0.504-6.048
		c0-0.308,0.014-0.763,0.041-1.365c0.027-0.602,0.043-1.057,0.043-1.364c0-0.589,0.258-1.288,0.777-2.101
		c0.518-0.812,1.057-1.287,1.617-1.428c2.715-0.672,6.914-1.008,12.6-1.008c4.508,0,7.797,0.378,9.869,1.134
		C211.51,11.406,212.365,12.723,212.365,14.683z M208.754,17.202c0-0.896-0.994-1.539-2.982-1.932
		c-1.232-0.252-2.604-0.378-4.117-0.378c-6.271,0-10.135,0.336-11.592,1.008c-0.756,0.364-1.232,1.092-1.428,2.184
		c-0.057,0.364-0.084,1.288-0.084,2.772c0,1.372,0.07,3.29,0.211,5.754c0.195,3.107,0.391,4.887,0.588,5.334
		c0.139,0.225,0.404,0.336,0.797,0.336c0.363,0,0.883-0.111,1.555-0.336c4.984-1.624,9.449-4.563,13.398-8.82
		C207.535,20.521,208.754,18.546,208.754,17.202z"/>
	<path d="M239.119,21.766c0,0.5-0.197,1.068-0.588,1.706c-0.449,0.776-0.939,1.165-1.471,1.165c-0.309,0-0.783-0.043-1.428-0.127
		s-1.135-0.126-1.471-0.126c-1.736,0-3.82,0.253-6.258,0.757c-2.828,0.616-5.543,1.092-8.146,1.428
		c-2.045,0.309-3.066,1.092-3.066,2.352c0,2.493,0.504,3.738,1.512,3.738c0.252,0,0.645-0.069,1.176-0.21
		c5.881-1.68,10.57-2.52,14.07-2.52c0.699,0,1.441,0.111,2.227,0.336c1.092,0.308,1.637,0.728,1.637,1.26
		c0,0.252-0.09,0.672-0.273,1.26c-0.182,0.588-0.371,0.98-0.566,1.176c-0.252,0.28-0.629,0.42-1.133,0.42
		c-0.113,0-0.289-0.014-0.525-0.042c-0.238-0.027-0.414-0.042-0.525-0.042c-2.1,0-4.451,0.504-7.057,1.513
		c-2.492,0.924-4.941,1.68-7.35,2.268c-0.309,0.084-0.734,0.287-1.281,0.609c-0.545,0.321-1.002,0.51-1.365,0.566
		c-0.309,0-0.965-0.225-1.973-0.672c-1.092-0.532-1.723-0.951-1.891-1.26v0.042c-0.113-0.195-0.168-0.434-0.168-0.714
		c0-0.252,0.021-0.616,0.062-1.092c0.043-0.477,0.062-0.826,0.062-1.051c0-5.571-0.111-9.575-0.336-12.012
		c-0.279-3.78-0.42-5.978-0.42-6.594c0-0.476-0.035-1.001-0.104-1.575c-0.07-0.573-0.105-0.931-0.105-1.071
		c0-0.672,0.475-1.567,1.428-2.688c0.531-0.224,0.84-0.336,0.924-0.336c0.393,0,1.371,0.435,2.939,1.302
		c3.977-1.147,8.512-1.722,13.609-1.722c1.623,0,2.953,0.056,3.99,0.168c2.268,0.252,3.4,0.784,3.4,1.596
		c0,0.532-0.209,1.106-0.629,1.722c-0.477,0.756-0.967,1.135-1.471,1.135c-0.279,0-0.713-0.042-1.301-0.126
		c-0.59-0.084-1.023-0.126-1.303-0.126c-1.652,0-3.695,0.296-6.133,0.888c-3.639,0.847-5.67,1.312-6.09,1.396
		c-0.812,0.141-1.609,0.268-2.393,0.381c-0.869,0.197-1.639,0.465-2.311,0.804c-0.504,0.254-0.756,0.847-0.756,1.776
		c0,0.871,0.084,1.447,0.252,1.727c0.223,0.393,0.672,0.588,1.344,0.588c0.391,0,0.881-0.098,1.471-0.294
		c0.811-0.224,1.273-0.35,1.385-0.378c3.164-0.7,6.818-1.05,10.963-1.05c1.65,0,2.98,0.056,3.99,0.168
		C237.971,20.435,239.119,20.961,239.119,21.766z"/>
	<path d="M279.996,17.962c0,0.619-0.244,1.322-0.729,2.112c-0.555,0.962-1.162,1.442-1.82,1.442c-0.381,0-0.971-0.053-1.768-0.156
		c-0.797-0.104-1.404-0.156-1.82-0.156c-2.15,0-4.732,0.312-7.748,0.937c-3.502,0.763-6.863,1.352-10.088,1.768
		c-2.531,0.382-3.795,1.352-3.795,2.912c0,3.086,0.623,4.628,1.871,4.628c0.312,0,0.797-0.086,1.457-0.26
		c7.279-2.08,13.086-3.12,17.42-3.12c0.865,0,1.785,0.139,2.756,0.416c1.352,0.382,2.027,0.901,2.027,1.56
		c0,0.312-0.113,0.832-0.338,1.561c-0.227,0.728-0.461,1.214-0.703,1.456c-0.311,0.347-0.779,0.52-1.402,0.52
		c-0.139,0-0.357-0.017-0.65-0.052c-0.295-0.034-0.512-0.052-0.65-0.052c-2.6,0-5.512,0.624-8.736,1.872
		c-3.086,1.144-6.119,2.08-9.1,2.808c-0.383,0.104-0.91,0.355-1.586,0.754s-1.24,0.632-1.689,0.702
		c-0.383,0-1.197-0.278-2.445-0.832c-1.352-0.659-2.131-1.178-2.34-1.56v0.052c-0.139-0.242-0.207-0.537-0.207-0.884
		c0-0.312,0.025-0.763,0.078-1.353c0.051-0.589,0.078-1.022,0.078-1.3c0-6.898-0.139-11.856-0.416-14.872
		c-0.348-4.68-0.521-7.401-0.521-8.164c0-0.589-0.043-1.239-0.129-1.95c-0.088-0.71-0.131-1.152-0.131-1.326
		c0-0.832,0.59-1.94,1.77-3.327c0.656-0.277,1.039-0.416,1.143-0.416c0.486,0,1.699,0.537,3.641,1.611
		c4.922-1.421,10.537-2.132,16.848-2.132c2.01,0,3.658,0.07,4.939,0.208c2.809,0.312,4.213,0.971,4.213,1.976
		c0,0.659-0.26,1.37-0.779,2.133c-0.59,0.936-1.197,1.403-1.82,1.403c-0.348,0-0.885-0.052-1.613-0.155
		c-0.727-0.104-1.266-0.156-1.611-0.156c-2.045,0-4.576,0.367-7.592,1.1c-4.508,1.049-7.02,1.625-7.541,1.729
		c-1.006,0.175-1.992,0.332-2.963,0.472c-1.074,0.244-2.027,0.576-2.859,0.995c-0.625,0.314-0.938,1.048-0.938,2.2
		c0,1.078,0.105,1.791,0.312,2.137c0.277,0.486,0.832,0.729,1.664,0.729c0.484,0,1.092-0.121,1.82-0.364
		c1.004-0.277,1.576-0.434,1.715-0.468c3.918-0.866,8.441-1.301,13.572-1.301c2.045,0,3.693,0.07,4.941,0.208
		C278.574,16.313,279.996,16.966,279.996,17.962z"/>
	<path d="M306.1,33.33c0,0.729-0.084,1.484-0.252,2.269c-0.225,1.148-0.531,1.75-0.924,1.806c-1.062,0.196-1.902,0.084-2.516-0.336
		c-0.307-0.224-0.775-0.588-1.404-1.092s-1.361-1.204-2.201-2.101c-1.09-1.176-1.773-1.903-2.053-2.184
		c-1.51-1.372-3.312-3.15-5.408-5.334c-1.312-1.428-3.381-3.556-6.201-6.384c-0.336-0.309-0.588-0.462-0.754-0.462
		c-0.309,0-0.463,0.854-0.463,2.562c0,1.596,0.098,3.711,0.295,6.342c0.051,0.336,0.154,0.952,0.311,1.849
		c0.156,0.756,0.234,1.358,0.234,1.806c0,0.7-0.141,1.666-0.42,2.897c-0.279,1.513-0.615,2.269-1.008,2.269
		c-0.477,0-0.994-0.168-1.553-0.504c-0.701-0.42-1.051-0.896-1.051-1.428c0-0.168,0.021-0.463,0.062-0.883
		c0.043-0.42,0.064-0.741,0.064-0.966c0-0.14-0.016-0.756-0.043-1.848c0-2.101-0.084-5.208-0.252-9.324
		c-0.309-3.136-0.463-5.151-0.463-6.048c0-0.168-0.027-0.644-0.084-1.428c-0.027-0.616-0.027-1.078,0-1.387
		c0.084-0.644,0.604-1.455,1.555-2.436c0.141-0.056,0.393-0.084,0.756-0.084s0.867,0.175,1.512,0.524
		c0.645,0.351,1.105,0.666,1.387,0.945c2.771,2.997,5.529,5.979,8.273,8.946c4.537,4.761,7.238,7.14,8.105,7.14
		c0.141,0,0.211-0.35,0.211-1.05c0-1.876-0.287-4.802-0.861-8.778c-0.574-3.976-0.861-7.014-0.861-9.113
		c0-1.429,0.406-2.143,1.219-2.143c0.783,0,1.471,0.504,2.059,1.513c0.531,0.84,0.797,1.652,0.797,2.436
		c0,0.252-0.027,0.645-0.084,1.176C304.027,13.03,304,13.437,304,13.716c0,3.137,0.35,7.085,1.051,11.845
		c0.195,1.288,0.42,2.576,0.672,3.863C305.975,30.937,306.1,32.238,306.1,33.33z"/>
	<path d="M325.375,11.616c0,0.252-0.113,0.729-0.336,1.428c-0.393,0.952-0.855,1.429-1.387,1.429c-0.111,0-0.293-0.015-0.545-0.042
		c-0.252-0.028-0.463-0.042-0.631-0.042c-0.477,0-1.625,0.111-3.443,0.336c-1.652,0.224-2.479,2.17-2.479,5.838
		c0,2.744,0.168,5.979,0.504,9.702c0.027,0.336,0.127,0.952,0.295,1.848c0.139,0.784,0.209,1.4,0.209,1.848
		c0,0.7-0.125,1.666-0.377,2.898c-0.309,1.483-0.645,2.211-1.01,2.184L316.051,39c-1.037-0.196-1.736-0.524-2.1-0.986
		c-0.365-0.463-0.547-1.197-0.547-2.205c0-0.588,0.027-1.471,0.084-2.646s0.084-2.058,0.084-2.646c0-2.101-0.084-4.605-0.252-7.519
		c-0.252-4.116-0.574-6.397-0.965-6.846c-0.197-0.195-0.406-0.294-0.631-0.294c-0.447,0-1.33,0.252-2.646,0.756
		c-1.428,0.504-2.408,0.756-2.939,0.756c-0.336,0-0.783-0.476-1.344-1.428c-0.477-0.84-0.715-1.414-0.715-1.722
		c0-0.589,0.371-1.177,1.113-1.765s1.477-0.882,2.205-0.882c0.141,0,0.266,0.015,0.379,0.042c3.416-1.176,7.363-1.764,11.844-1.764
		C323.457,9.853,325.375,10.44,325.375,11.616z"/>
	<path d="M352.094,13.8c0,4.116-3.473,8.373-10.416,12.769l-1.387,0.882c-0.279,0.196-0.42,0.351-0.42,0.462
		c0,0.141,0.377,0.477,1.135,1.008c1.398,0.924,3.414,2.423,6.047,4.494c0.309,0.225,0.637,0.47,0.986,0.735
		c0.352,0.267,0.525,0.581,0.525,0.944c0,0.112-0.084,0.421-0.252,0.925c-1.176,0.252-2.141,0.378-2.898,0.378
		c-1.035,0-2.1-0.252-3.191-0.756c-0.336-0.141-1.33-0.673-2.982-1.597c-2.184-1.26-4.521-2.155-7.014-2.688
		c-0.561-0.14-1.021-0.21-1.385-0.21c-0.533,0-0.826,0.154-0.883,0.462c-0.057,0.168-0.098,0.658-0.127,1.47
		c-0.195,3.809-0.713,5.712-1.553,5.712c-0.084,0-0.547-0.141-1.387-0.42c-0.84-0.28-1.357-0.672-1.553-1.176
		c-0.113-0.224-0.168-0.825-0.168-1.806c0-0.7,0.027-1.75,0.084-3.15c0.055-1.399,0.084-2.437,0.084-3.108
		c0-1.903-0.084-3.653-0.252-5.25c-0.365-3.331-0.547-5.306-0.547-5.922c0-0.279,0.021-0.741,0.062-1.386
		c0.043-0.644,0.062-1.134,0.062-1.47c0-0.561,0.322-1.372,0.967-2.437c0.645-1.063,1.246-1.638,1.807-1.722
		c3.275-0.56,8.148-0.84,14.615-0.84c2.939,0,4.941,0.112,6.006,0.336C350.748,10.917,352.094,12.036,352.094,13.8z M347.641,16.782
		c0-0.027-0.014-0.056-0.041-0.084c-0.477-0.867-2.562-1.302-6.258-1.302c-2.465,0-5.74,0.141-9.828,0.42
		c-0.533,0.028-0.939,0.07-1.219,0.126c-0.477,0.112-0.783,0.309-0.924,0.588c-0.504,0.868-0.756,2.562-0.756,5.082
		c0,2.939,0.377,4.41,1.133,4.41c0.225,0,0.617-0.056,1.178-0.168c5.936-1.288,10.947-3.654,15.035-7.099
		C347.08,17.832,347.641,17.175,347.641,16.782z"/>
	<path d="M378.848,21.661c0,0.5-0.195,1.068-0.588,1.706c-0.449,0.776-0.939,1.165-1.471,1.165c-0.309,0-0.783-0.043-1.428-0.127
		s-1.133-0.126-1.469-0.126c-1.738,0-3.822,0.253-6.26,0.757c-2.828,0.616-5.543,1.092-8.146,1.428
		c-2.045,0.309-3.066,1.092-3.066,2.352c0,2.493,0.504,3.738,1.512,3.738c0.252,0,0.645-0.069,1.176-0.21
		c5.881-1.68,10.57-2.52,14.07-2.52c0.699,0,1.441,0.111,2.227,0.336c1.092,0.308,1.637,0.728,1.637,1.26
		c0,0.252-0.09,0.672-0.271,1.26c-0.184,0.588-0.373,0.98-0.568,1.176c-0.252,0.28-0.629,0.42-1.133,0.42
		c-0.113,0-0.289-0.014-0.525-0.042c-0.238-0.027-0.414-0.042-0.525-0.042c-2.1,0-4.451,0.504-7.057,1.513
		c-2.492,0.924-4.941,1.68-7.35,2.268c-0.309,0.084-0.734,0.287-1.281,0.609c-0.545,0.321-1,0.51-1.365,0.566
		c-0.307,0-0.965-0.225-1.973-0.672c-1.092-0.532-1.723-0.951-1.891-1.26v0.042c-0.111-0.195-0.168-0.434-0.168-0.714
		c0-0.252,0.021-0.616,0.062-1.092c0.043-0.477,0.064-0.826,0.064-1.051c0-5.571-0.113-9.575-0.336-12.012
		c-0.281-3.78-0.422-5.978-0.422-6.594c0-0.476-0.035-1.001-0.104-1.575c-0.07-0.573-0.105-0.931-0.105-1.071
		c0-0.672,0.477-1.567,1.428-2.688c0.531-0.224,0.84-0.336,0.924-0.336c0.393,0,1.371,0.435,2.939,1.302
		c3.977-1.147,8.512-1.722,13.609-1.722c1.623,0,2.953,0.056,3.99,0.168c2.268,0.252,3.4,0.784,3.4,1.596
		c0,0.532-0.209,1.106-0.629,1.722c-0.477,0.756-0.967,1.135-1.471,1.135c-0.279,0-0.713-0.042-1.301-0.126
		s-1.023-0.126-1.303-0.126c-1.652,0-3.695,0.296-6.133,0.888c-3.639,0.847-5.67,1.312-6.09,1.396
		c-0.812,0.141-1.609,0.268-2.393,0.381c-0.869,0.197-1.639,0.465-2.311,0.804C356.252,17.797,356,18.39,356,19.319
		c0,0.871,0.084,1.447,0.252,1.727c0.223,0.393,0.672,0.588,1.344,0.588c0.393,0,0.883-0.098,1.471-0.294
		c0.811-0.224,1.273-0.35,1.385-0.378c3.164-0.7,6.818-1.05,10.963-1.05c1.652,0,2.982,0.056,3.99,0.168
		C377.699,20.33,378.848,20.856,378.848,21.661z"/>
	<path d="M408.193,24.111c0,1.429-0.258,3.06-0.777,4.894c-0.518,1.834-1.168,3.381-1.951,4.641
		c-2.018,3.333-6.189,4.998-12.518,4.998c-6.691,0-11.297-1.791-13.816-5.376c-1.178-1.68-1.766-3.43-1.766-5.25
		c0-2.743,1.232-5.586,3.697-8.525c2.268-2.66,5.102-4.907,8.504-6.741S396.041,10,398.785,10c1.514,0,3.109,0.385,4.789,1.154
		c1.68,0.771,2.982,1.729,3.906,2.878c0.252,0.336,0.377,0.742,0.377,1.218c0,0.532-0.154,1.092-0.461,1.68
		c-0.365,0.729-0.84,1.092-1.428,1.092c-0.281,0-0.574-0.111-0.883-0.336c-0.812-0.588-1.4-0.993-1.764-1.218
		c-0.672-0.392-1.359-0.672-2.059-0.84c-0.951-0.224-1.975-0.336-3.066-0.336c-0.477,0-0.965,0.015-1.469,0.042
		c-2.408,0.28-4.607,0.896-6.594,1.848c-1.514,0.729-3.432,1.96-5.754,3.696c-2.326,1.736-3.486,3.388-3.486,4.956
		c0,1.176,0.629,2.408,1.889,3.695c2.549,2.577,6.371,3.864,11.467,3.864c1.512,0,3.135-0.14,4.871-0.42
		c2.213-0.363,3.627-0.867,4.242-1.512c0.729-0.784,1.092-1.891,1.092-3.318c0-0.308-0.041-0.588-0.125-0.84
		c-0.225-0.672-2.016-1.008-5.377-1.008c-1.707,0-3.541-0.069-5.502-0.21c-0.141,0-0.371,0.021-0.691,0.062
		c-0.322,0.042-0.541,0.063-0.652,0.063c-0.42,0-0.867-0.363-1.344-1.092c-0.504-0.616-0.756-1.106-0.756-1.471
		c0-1.68,3.947-2.52,11.844-2.52c3.893,0,5.965,0.532,6.217,1.596C408.152,23.006,408.193,23.468,408.193,24.111z"/>
	<path d="M432.074,33.897c0.027,0.756-0.168,1.568-0.588,2.437c-0.447,1.036-1.008,1.554-1.68,1.554
		c-0.699,0-1.135-1.008-1.303-3.024c-0.027-0.447-0.055-0.714-0.084-0.798c-0.42-1.596-1.988-2.394-4.703-2.394
		c-0.309,0-0.701,0-1.176,0c-0.533,0.028-0.896,0.042-1.092,0.042c-1.428,0-3.207,0.183-5.334,0.546
		c-2.885,0.477-4.641,0.742-5.271,0.798c-0.631,0.057-1.037,0.378-1.219,0.966s-0.342,1.162-0.482,1.723
		c-0.279,1.092-0.783,1.834-1.512,2.226c-0.225,0.111-0.436,0.168-0.631,0.168c-0.588,0-0.91-0.462-0.965-1.386
		c-0.084-1.624,0.377-3.934,1.385-6.93v-0.085c-0.027-0.447,0.154-0.867,0.547-1.26c2.127-5.544,5.207-10.136,9.24-13.775
		c0.252-0.225,0.756-0.868,1.512-1.933c0.504-0.728,1.119-1.203,1.848-1.428c0.699-0.084,1.568-0.224,2.604-0.42
		c0.84-0.252,1.316-0.378,1.43-0.378c1.062,0,2.574,3.346,4.535,10.038C430.926,26.8,431.906,31.238,432.074,33.897z
		 M426.027,24.616c0-0.757-0.365-2.065-1.092-3.928c-0.729-1.861-1.332-3.072-1.807-3.633c-0.336-0.392-0.701-0.588-1.092-0.588
		c-1.176,0-3.094,1.414-5.754,4.242s-3.963,4.83-3.906,6.006c0.027,0.616,0.896,0.924,2.604,0.924c1.68,0,3.57-0.126,5.67-0.378
		c2.688-0.363,4.354-0.84,4.998-1.428C425.928,25.526,426.055,25.12,426.027,24.616z"/>
</g>
</svg>
