<?xml version="1.0" encoding="utf-8"?>
<!-- Generator: Adobe Illustrator 15.0.2, SVG Export Plug-In . SVG Version: 6.00 Build 0)  -->
<!DOCTYPE svg PUBLIC "-//W3C//DTD SVG 1.1//EN" "http://www.w3.org/Graphics/SVG/1.1/DTD/svg11.dtd">
<svg version="1.1" id="Layer_1" xmlns="http://www.w3.org/2000/svg" xmlns:xlink="http://www.w3.org/1999/xlink" x="0px" y="0px"
	 width="494px" height="41px" viewBox="0 0 494 41" enable-background="new 0 0 494 41" xml:space="preserve">
<path d="M42.706,18.547c0,5.262-2.375,9.952-7.124,14.071C31.04,36.6,26.1,38.59,20.762,38.59c-3.571,0-6.83-1.074-9.776-3.22
	c-2.67-1.938-4.888-4.62-6.656-8.048c-0.694-1.28-1.04-2.562-1.04-3.842c0-1.005,0.208-2.112,0.624-3.324
	c1.49-4.534,4.506-8.342,9.048-11.423c4.125-2.803,8.701-4.552,13.728-5.244c0.693-0.069,1.369-0.104,2.028-0.104
	c3.709,0,6.985,1.609,9.828,4.829C41.318,11.33,42.706,14.774,42.706,18.547z M38.545,21.014c0-1.353-0.555-2.86-1.664-4.524
	c-2.774-4.298-6.344-6.448-10.712-6.448c-4.438,0-9.776,2.184-16.016,6.552c-1.664,1.179-2.496,2.426-2.496,3.745
	c0,1.352,0.728,2.946,2.184,4.783c1.178,1.525,2.53,2.86,4.056,4.004c2.565,1.872,5.39,2.809,8.476,2.809
	c3.605,0,7.072-0.918,10.4-2.756C36.622,26.959,38.545,24.237,38.545,21.014z"/>
<path d="M63.811,30.29c0,0.227-0.084,0.645-0.252,1.252s-0.322,0.996-0.462,1.166c-0.224,0.254-0.742,0.382-1.554,0.382
	c-1.708,0-3.767,0.476-6.174,1.428c-3.92,1.54-5.937,2.323-6.048,2.353c-0.532,0.279-1.358,0.629-2.478,1.049
	c-0.112,0.057-0.225,0.084-0.336,0.084c-0.42,0-0.931-0.217-1.533-0.65c-0.602-0.435-0.945-0.861-1.029-1.281
	c-0.112-0.168-0.168-0.392-0.168-0.672c0-0.252,0.021-0.609,0.063-1.07c0.042-0.463,0.063-0.819,0.063-1.071
	c0-5.544-0.099-9.548-0.294-12.013c-0.336-3.779-0.504-5.963-0.504-6.551c0-1.736,0.042-2.73,0.126-2.982
	c0.14-0.615,0.714-1.498,1.722-2.646c0.112-0.056,0.224-0.084,0.336-0.084c0.42,0,0.854,0.587,1.302,1.76
	c0.392,1.006,0.588,1.788,0.588,2.348l-0.042,0.251c-0.224,2.543-0.336,4.136-0.336,4.778c0,3.996,0.266,8.174,0.798,12.535
	c0.056,0.365,0.294,0.547,0.714,0.547c0.336,0,0.84-0.112,1.512-0.336c4.647-1.429,8.274-2.143,10.878-2.143
	C62.774,28.722,63.811,29.245,63.811,30.29z"/>
<path d="M83.76,9.696c0.112,1.512-0.098,2.716-0.63,3.612c-1.512,2.548-2.871,5.572-4.074,9.072c-0.7,2.016-1.652,5.207-2.856,9.576
	c-0.28,1.035-0.7,2.114-1.26,3.233c-0.812,1.513-1.554,2.296-2.226,2.353c-0.672,0.056-1.4-0.547-2.184-1.807
	c-0.532-0.867-0.98-1.777-1.344-2.729c-0.616-1.792-1.583-4.479-2.898-8.064c-0.393-0.896-1.064-2.45-2.016-4.661
	c-1.092-2.464-1.652-3.892-1.68-4.285c-0.056-0.672,0.126-1.47,0.546-2.394c0.504-1.036,1.092-1.582,1.764-1.638
	c0.336-0.056,0.616,0.182,0.84,0.714c0.084,0.14,0.532,1.386,1.344,3.738c0.728,1.989,1.428,3.99,2.1,6.006
	c0.867,2.296,1.75,4.241,2.646,5.838c0.392,0.672,0.63,1.008,0.714,1.008c0.224,0,0.532-0.518,0.924-1.554
	c0.728-1.652,1.722-4.186,2.982-7.602c0.476-1.624,0.98-3.249,1.512-4.873c0.588-1.82,1.218-3.374,1.89-4.662
	c0.252-0.476,1.189-1.19,2.814-2.142C83.312,8.324,83.676,8.744,83.76,9.696z"/>
<path d="M88.578,31.493c0,0.672-0.126,1.625-0.378,2.856c-0.309,1.568-0.658,2.353-1.05,2.353c-0.252,0-0.679-0.141-1.281-0.42
	c-0.603-0.28-0.987-0.547-1.155-0.799c-0.056-0.111-0.084-0.84-0.084-2.184v-2.268c0-2.072-0.098-5.166-0.294-9.283
	c-0.364-3.919-0.546-6.607-0.546-8.063c0-0.979,0.532-2.043,1.596-3.192c0.224-0.084,0.447-0.126,0.672-0.126
	c0.448,0,0.882,0.546,1.302,1.638c0.42,0.98,0.616,1.722,0.588,2.226c-0.252,2.913-0.378,4.522-0.378,4.83
	c0,2.633,0.153,5.572,0.462,8.82c0.027,0.336,0.14,0.938,0.336,1.806C88.507,30.416,88.578,31.019,88.578,31.493z"/>
<path d="M116.087,13.728c0,0.477-0.042,0.924-0.126,1.344c-0.756,3.528-2.66,7.029-5.712,10.5c-2.632,2.969-5.74,5.531-9.324,7.687
	c-1.428,0.868-3.136,1.722-5.124,2.562c-2.436,1.008-4.256,1.512-5.46,1.512c-0.644,0-0.994-0.811-1.05-2.436
	c0-0.447,0-0.979,0-1.596l0.042-1.092c0-4.844-0.084-8.26-0.252-10.248c-0.336-3.416-0.504-5.432-0.504-6.048
	c0-0.308,0.014-0.763,0.042-1.365c0.027-0.602,0.042-1.057,0.042-1.365c0-0.588,0.258-1.288,0.777-2.1
	c0.518-0.812,1.057-1.288,1.617-1.428c2.715-0.672,6.916-1.008,12.6-1.008c4.508,0,7.798,0.378,9.87,1.134
	C115.233,10.452,116.087,11.768,116.087,13.728z M112.476,16.248c0-0.896-0.994-1.54-2.982-1.932
	c-1.232-0.252-2.604-0.378-4.116-0.378c-6.272,0-10.136,0.336-11.592,1.008c-0.756,0.364-1.232,1.092-1.428,2.184
	c-0.056,0.364-0.084,1.288-0.084,2.771c0,1.373,0.07,3.291,0.21,5.754c0.196,3.108,0.392,4.887,0.588,5.334
	c0.14,0.225,0.406,0.336,0.798,0.336c0.363,0,0.882-0.111,1.554-0.336c4.984-1.623,9.45-4.562,13.398-8.82
	C111.257,19.565,112.476,17.592,112.476,16.248z"/>
<path d="M136.15,33.048c0.027,0.756-0.168,1.568-0.588,2.436c-0.448,1.037-1.008,1.555-1.68,1.555c-0.7,0-1.134-1.008-1.302-3.024
	c-0.028-0.448-0.057-0.714-0.084-0.798c-0.42-1.596-1.989-2.395-4.704-2.395c-0.309,0-0.7,0-1.176,0
	c-0.532,0.029-0.896,0.043-1.092,0.043c-1.428,0-3.207,0.182-5.334,0.545c-2.884,0.477-4.641,0.742-5.271,0.799
	s-1.036,0.377-1.218,0.966c-0.182,0.588-0.343,1.162-0.483,1.722c-0.28,1.092-0.784,1.834-1.512,2.227
	c-0.225,0.111-0.435,0.168-0.63,0.168c-0.588,0-0.91-0.463-0.966-1.387c-0.084-1.623,0.378-3.934,1.386-6.93V28.89
	c-0.028-0.447,0.153-0.867,0.546-1.26c2.127-5.545,5.208-10.136,9.24-13.776c0.252-0.224,0.756-0.868,1.512-1.932
	c0.504-0.728,1.12-1.204,1.848-1.428c0.699-0.084,1.567-0.224,2.604-0.42c0.84-0.252,1.315-0.378,1.428-0.378
	c1.064,0,2.576,3.346,4.536,10.038C135.001,25.95,135.982,30.388,136.15,33.048z M130.102,23.766c0-0.756-0.364-2.064-1.092-3.927
	c-0.729-1.862-1.33-3.073-1.806-3.633c-0.336-0.392-0.7-0.588-1.092-0.588c-1.176,0-3.094,1.414-5.754,4.243
	c-2.661,2.828-3.962,4.829-3.906,6.006c0.028,0.615,0.896,0.924,2.604,0.924c1.68,0,3.57-0.127,5.67-0.379
	c2.688-0.363,4.354-0.84,4.998-1.428C130.003,24.676,130.129,24.27,130.102,23.766z"/>
<path d="M164.125,28.848c0,0.812-0.309,1.694-0.924,2.646c-1.344,2.156-3.85,3.963-7.518,5.418c-3.248,1.316-6.3,1.975-9.156,1.975
	c-1.512,0-2.898-0.448-4.158-1.344c-1.4-1.008-2.1-2.24-2.1-3.696c0-0.476,0.098-1.022,0.294-1.638
	c0.252-0.812,0.56-1.219,0.924-1.219c0.224,0,0.602,0.351,1.134,1.051c1.036,1.232,2.366,1.848,3.99,1.848
	c1.848,0,3.92-0.322,6.216-0.966c2.464-0.616,4.396-1.399,5.796-2.353c0.195-0.14,0.294-0.252,0.294-0.336
	c0-0.195-0.435-0.462-1.302-0.798c-1.904-0.7-4.144-1.245-6.72-1.638c-0.98-0.141-3.291-0.406-6.93-0.799
	c-4.06-0.42-6.51-0.965-7.35-1.637c-0.308-0.225-0.462-0.589-0.462-1.093s0.168-1.134,0.504-1.89s0.7-1.316,1.092-1.68
	c1.624-1.288,4.018-3.249,7.182-5.88c1.68-1.456,3.808-2.884,6.384-4.284c3.051-1.652,5.445-2.478,7.182-2.478
	c1.147,0,2.289,0.54,3.423,1.617c1.134,1.078,1.701,2.233,1.701,3.465c0,0.393-0.126,0.952-0.378,1.68
	c-0.308,0.84-0.63,1.26-0.966,1.26c-0.112,0-0.351-0.153-0.714-0.462c-1.484-1.288-3.094-1.932-4.83-1.932
	c-2.997,0-7.07,2.086-12.222,6.259c-0.812,0.615-1.218,1.008-1.218,1.176c0,0.195,1.05,0.447,3.15,0.756
	c0.7,0.084,2.085,0.238,4.158,0.461c3.164,0.337,5.838,0.855,8.022,1.555C162.29,25.124,164.125,26.776,164.125,28.848z"/>
<path d="M185.418,10.662c0,0.252-0.112,0.729-0.336,1.428c-0.392,0.952-0.854,1.428-1.386,1.428c-0.112,0-0.294-0.014-0.546-0.042
	c-0.252-0.027-0.462-0.042-0.63-0.042c-0.476,0-1.624,0.112-3.444,0.336c-1.652,0.225-2.478,2.17-2.478,5.838
	c0,2.745,0.168,5.979,0.504,9.702c0.028,0.336,0.126,0.952,0.294,1.848c0.14,0.785,0.21,1.4,0.21,1.849
	c0,0.7-0.126,1.666-0.378,2.897c-0.308,1.484-0.645,2.212-1.008,2.184l-0.126-0.041c-1.036-0.196-1.736-0.525-2.1-0.987
	c-0.364-0.462-0.546-1.196-0.546-2.205c0-0.588,0.027-1.47,0.084-2.646c0.056-1.176,0.084-2.059,0.084-2.646
	c0-2.1-0.084-4.605-0.252-7.518c-0.252-4.116-0.574-6.398-0.966-6.846c-0.196-0.196-0.406-0.294-0.63-0.294
	c-0.448,0-1.33,0.252-2.646,0.756c-1.428,0.504-2.408,0.756-2.94,0.756c-0.336,0-0.784-0.476-1.344-1.428
	c-0.477-0.84-0.714-1.414-0.714-1.722c0-0.588,0.371-1.176,1.113-1.764c0.741-0.588,1.477-0.882,2.205-0.882
	c0.14,0,0.266,0.015,0.378,0.042c3.416-1.176,7.364-1.764,11.844-1.764C183.5,8.897,185.418,9.486,185.418,10.662z"/>
<path d="M212.172,20.811c0,0.5-0.196,1.068-0.588,1.706c-0.448,0.777-0.938,1.165-1.47,1.165c-0.308,0-0.784-0.042-1.428-0.126
	c-0.645-0.084-1.134-0.126-1.47-0.126c-1.736,0-3.822,0.252-6.258,0.756c-2.829,0.616-5.544,1.093-8.148,1.429
	c-2.044,0.308-3.066,1.092-3.066,2.352c0,2.492,0.504,3.738,1.512,3.738c0.252,0,0.644-0.07,1.176-0.211
	c5.88-1.68,10.569-2.52,14.07-2.52c0.7,0,1.442,0.112,2.226,0.336c1.092,0.309,1.638,0.729,1.638,1.26
	c0,0.252-0.091,0.672-0.273,1.26s-0.371,0.98-0.567,1.177c-0.252,0.28-0.63,0.42-1.134,0.42c-0.112,0-0.288-0.015-0.525-0.042
	s-0.413-0.042-0.525-0.042c-2.1,0-4.452,0.504-7.056,1.512c-2.493,0.925-4.942,1.681-7.35,2.269
	c-0.309,0.084-0.735,0.286-1.281,0.608c-0.546,0.321-1.001,0.511-1.365,0.567c-0.309,0-0.966-0.225-1.974-0.672
	c-1.092-0.533-1.722-0.951-1.89-1.26v0.041c-0.112-0.195-0.168-0.434-0.168-0.713c0-0.253,0.021-0.616,0.063-1.093
	c0.042-0.476,0.063-0.825,0.063-1.05c0-5.572-0.112-9.576-0.336-12.012c-0.28-3.78-0.42-5.978-0.42-6.594
	c0-0.476-0.036-1.001-0.105-1.575c-0.07-0.574-0.105-0.931-0.105-1.071c0-0.672,0.476-1.568,1.428-2.688
	c0.532-0.224,0.84-0.336,0.924-0.336c0.392,0,1.372,0.434,2.94,1.302c3.976-1.148,8.512-1.722,13.608-1.722
	c1.624,0,2.954,0.057,3.99,0.168c2.268,0.252,3.402,0.785,3.402,1.596c0,0.532-0.21,1.106-0.63,1.722
	c-0.477,0.756-0.966,1.134-1.47,1.134c-0.28,0-0.714-0.042-1.302-0.126c-0.588-0.084-1.022-0.126-1.302-0.126
	c-1.652,0-3.696,0.297-6.132,0.889c-3.64,0.847-5.67,1.312-6.09,1.396c-0.812,0.141-1.61,0.268-2.394,0.381
	c-0.869,0.198-1.638,0.465-2.31,0.804c-0.504,0.254-0.756,0.847-0.756,1.777c0,0.871,0.084,1.446,0.252,1.727
	c0.224,0.392,0.672,0.588,1.344,0.588c0.392,0,0.882-0.098,1.47-0.295c0.812-0.224,1.273-0.35,1.386-0.377
	c3.164-0.7,6.818-1.051,10.962-1.051c1.652,0,2.982,0.057,3.99,0.168C211.024,19.479,212.172,20.007,212.172,20.811z"/>
<path d="M240.398,10.662c0,0.252-0.112,0.729-0.336,1.428c-0.392,0.952-0.854,1.428-1.386,1.428c-0.112,0-0.294-0.014-0.546-0.042
	c-0.252-0.027-0.462-0.042-0.63-0.042c-0.476,0-1.624,0.112-3.444,0.336c-1.652,0.225-2.478,2.17-2.478,5.838
	c0,2.745,0.168,5.979,0.504,9.702c0.028,0.336,0.126,0.952,0.294,1.848c0.14,0.785,0.21,1.4,0.21,1.849
	c0,0.7-0.126,1.666-0.378,2.897c-0.308,1.484-0.645,2.212-1.008,2.184l-0.126-0.041c-1.036-0.196-1.736-0.525-2.1-0.987
	c-0.364-0.462-0.546-1.196-0.546-2.205c0-0.588,0.027-1.47,0.084-2.646c0.056-1.176,0.084-2.059,0.084-2.646
	c0-2.1-0.084-4.605-0.252-7.518c-0.252-4.116-0.574-6.398-0.966-6.846c-0.196-0.196-0.406-0.294-0.63-0.294
	c-0.448,0-1.33,0.252-2.646,0.756c-1.428,0.504-2.408,0.756-2.94,0.756c-0.336,0-0.784-0.476-1.344-1.428
	c-0.477-0.84-0.714-1.414-0.714-1.722c0-0.588,0.371-1.176,1.113-1.764c0.741-0.588,1.477-0.882,2.205-0.882
	c0.14,0,0.266,0.015,0.378,0.042c3.416-1.176,7.364-1.764,11.844-1.764C238.48,8.897,240.398,9.486,240.398,10.662z"/>
<path d="M263.009,33.092c0,0.7-0.084,1.582-0.253,2.646c-0.224,1.456-0.49,2.198-0.797,2.227h-0.043
	c-0.447,0-0.931-0.127-1.448-0.379c-0.519-0.252-0.861-0.574-1.029-0.965c-0.14-0.309-0.21-1.162-0.21-2.562
	c0-0.672-0.077-1.127-0.23-1.365c-0.154-0.237-0.54-0.357-1.155-0.357c-1.737,0-4.69,0.757-8.862,2.269
	c-2.968,1.148-5.95,2.282-8.946,3.402c-1.428-0.7-2.142-1.288-2.142-1.765c0-0.531,0.084-1.231,0.252-2.1
	c0.252-1.176,0.392-1.861,0.42-2.059c0.364-2.071,0.784-5.15,1.26-9.239c0.195-2.8,0.308-4.27,0.336-4.41
	c0.168-1.652,0.42-3.094,0.756-4.326c0.14-0.504,0.868-1.231,2.184-2.184c0.476-0.084,0.882,0.364,1.218,1.344
	c0.252,0.784,0.378,1.442,0.378,1.974c0,0.42-0.042,0.771-0.126,1.05c-0.532,1.457-1.008,3.71-1.428,6.762
	c-0.448,2.855-0.672,5.152-0.672,6.888c0,0.616,0.027,0.995,0.084,1.134c0.084,0.281,0.279,0.42,0.588,0.42
	c0.42,0,1.05-0.152,1.89-0.461c2.688-0.98,4.578-1.652,5.67-2.017c2.127-0.7,4.059-1.231,5.795-1.597
	c0.924-0.223,1.498-0.468,1.723-0.734c0.224-0.266,0.336-0.916,0.336-1.953c0-1.203-0.154-2.715-0.462-4.535
	c-0.477-2.66-0.742-4.144-0.798-4.453c-0.112-1.092-0.168-2.45-0.168-4.074c0-0.476,0.531-1.441,1.596-2.898
	c0.111-0.084,0.224-0.126,0.336-0.126c0.476,0,0.966,0.616,1.471,1.848c0.42,1.064,0.629,1.876,0.629,2.436
	c0,0.225-0.021,0.588-0.062,1.092c-0.042,0.504-0.062,0.882-0.062,1.134c0,5.937,0.559,11.214,1.68,15.833
	C262.91,31.747,263.009,32.448,263.009,33.092z"/>
<path d="M299.573,8.166c0,1.491-0.556,3.103-1.664,4.836c-2.496,3.814-5.235,6.916-8.216,9.308
	c-2.878,2.184-6.535,4.143-10.973,5.876c-1.248,0.451-1.871,1.144-1.871,2.08c0,0.243,0.043,0.581,0.129,1.015
	c0.087,0.434,0.131,0.771,0.131,1.014c0,0.728-0.139,1.803-0.416,3.224c-0.348,1.802-0.729,2.704-1.145,2.704h-0.104
	c-1.352,0-2.271-0.486-2.756-1.456c-0.243-0.658-0.364-1.698-0.364-3.12c0-0.797,0.034-2.02,0.104-3.666
	c0.068-1.646,0.104-2.886,0.104-3.718c0-1.595-0.139-3.995-0.416-7.202c-0.277-3.206-0.416-5.607-0.416-7.202
	c0-4.922,1.021-7.609,3.068-8.06c3.258-0.693,7.713-1.04,13.363-1.04c6.137,0,9.689,0.815,10.66,2.444
	C299.312,6.104,299.573,7.091,299.573,8.166z M294.945,10.87c0-1.04-2.375-1.56-7.124-1.56c-6.864,0-10.53,0.347-10.998,1.04
	c-0.468,0.694-0.702,1.734-0.702,3.12c0,0.278,0.018,0.746,0.052,1.404c0.034,0.659,0.052,1.127,0.052,1.404
	c0,0.208-0.025,0.824-0.078,1.846c-0.051,1.022-0.078,1.793-0.078,2.313c0.035,0.832,0.113,1.37,0.234,1.612s0.338,0.363,0.65,0.363
	c0.277,0,0.641-0.033,1.092-0.104c6.448-1.768,11.96-5.356,16.536-10.764C294.823,11.304,294.945,11.078,294.945,10.87z"/>
<path d="M316.748,32.903c0.027,0.756-0.168,1.568-0.588,2.436c-0.447,1.037-1.008,1.555-1.68,1.555c-0.7,0-1.134-1.008-1.302-3.024
	c-0.028-0.448-0.057-0.714-0.084-0.798c-0.421-1.596-1.989-2.395-4.704-2.395c-0.309,0-0.7,0-1.176,0
	c-0.533,0.029-0.896,0.043-1.092,0.043c-1.429,0-3.207,0.182-5.334,0.545c-2.885,0.477-4.642,0.742-5.271,0.799
	s-1.036,0.377-1.219,0.966c-0.182,0.588-0.342,1.162-0.482,1.722c-0.28,1.092-0.784,1.834-1.512,2.227
	c-0.225,0.111-0.435,0.168-0.631,0.168c-0.588,0-0.91-0.463-0.965-1.387c-0.084-1.623,0.377-3.934,1.386-6.93v-0.084
	c-0.028-0.447,0.153-0.867,0.546-1.26c2.127-5.545,5.208-10.136,9.24-13.776c0.252-0.224,0.756-0.868,1.512-1.932
	c0.504-0.728,1.119-1.204,1.848-1.428c0.699-0.084,1.568-0.224,2.604-0.42c0.84-0.252,1.315-0.378,1.428-0.378
	c1.063,0,2.575,3.346,4.536,10.038C315.6,25.806,316.58,30.243,316.748,32.903z M310.701,23.621c0-0.756-0.365-2.064-1.093-3.927
	c-0.729-1.862-1.33-3.073-1.806-3.633c-0.336-0.392-0.7-0.588-1.092-0.588c-1.176,0-3.095,1.414-5.754,4.243
	c-2.661,2.828-3.963,4.829-3.906,6.006c0.027,0.615,0.896,0.924,2.604,0.924c1.68,0,3.57-0.127,5.67-0.379
	c2.688-0.363,4.354-0.84,4.998-1.428C310.602,24.531,310.729,24.125,310.701,23.621z"/>
<path d="M344.594,28.703c0,0.812-0.309,1.694-0.925,2.646c-1.344,2.156-3.851,3.963-7.519,5.418
	c-3.248,1.316-6.299,1.975-9.155,1.975c-1.513,0-2.897-0.448-4.158-1.344c-1.4-1.008-2.1-2.24-2.1-3.696
	c0-0.476,0.098-1.022,0.294-1.638c0.252-0.812,0.56-1.219,0.924-1.219c0.224,0,0.602,0.351,1.134,1.051
	c1.036,1.232,2.366,1.848,3.99,1.848c1.849,0,3.92-0.322,6.216-0.966c2.464-0.616,4.396-1.399,5.797-2.353
	c0.195-0.14,0.293-0.252,0.293-0.336c0-0.195-0.434-0.462-1.302-0.798c-1.904-0.7-4.144-1.245-6.72-1.638
	c-0.98-0.141-3.291-0.406-6.93-0.799c-4.061-0.42-6.51-0.965-7.351-1.637c-0.308-0.225-0.462-0.589-0.462-1.093
	s0.168-1.134,0.504-1.89s0.699-1.316,1.092-1.68c1.624-1.288,4.018-3.249,7.182-5.88c1.681-1.456,3.809-2.884,6.385-4.284
	c3.051-1.652,5.445-2.478,7.182-2.478c1.148,0,2.289,0.54,3.424,1.617c1.133,1.078,1.7,2.233,1.7,3.465
	c0,0.393-0.126,0.952-0.378,1.68c-0.309,0.84-0.63,1.26-0.966,1.26c-0.112,0-0.351-0.153-0.714-0.462
	c-1.484-1.288-3.094-1.932-4.83-1.932c-2.996,0-7.07,2.086-12.223,6.259c-0.812,0.615-1.217,1.008-1.217,1.176
	c0,0.195,1.049,0.447,3.149,0.756c0.7,0.084,2.085,0.238,4.158,0.461c3.163,0.337,5.838,0.855,8.022,1.555
	C342.759,24.979,344.594,26.632,344.594,28.703z"/>
<path d="M372.565,28.703c0,0.812-0.309,1.694-0.925,2.646c-1.344,2.156-3.85,3.963-7.518,5.418c-3.248,1.316-6.3,1.975-9.156,1.975
	c-1.512,0-2.897-0.448-4.158-1.344c-1.4-1.008-2.1-2.24-2.1-3.696c0-0.476,0.098-1.022,0.295-1.638
	c0.252-0.812,0.559-1.219,0.924-1.219c0.223,0,0.602,0.351,1.133,1.051c1.036,1.232,2.367,1.848,3.99,1.848
	c1.849,0,3.92-0.322,6.217-0.966c2.463-0.616,4.395-1.399,5.796-2.353c0.195-0.14,0.294-0.252,0.294-0.336
	c0-0.195-0.435-0.462-1.303-0.798c-1.904-0.7-4.144-1.245-6.719-1.638c-0.98-0.141-3.291-0.406-6.931-0.799
	c-4.06-0.42-6.51-0.965-7.351-1.637c-0.308-0.225-0.461-0.589-0.461-1.093s0.168-1.134,0.504-1.89s0.699-1.316,1.092-1.68
	c1.623-1.288,4.018-3.249,7.182-5.88c1.68-1.456,3.808-2.884,6.385-4.284c3.051-1.652,5.445-2.478,7.182-2.478
	c1.147,0,2.289,0.54,3.423,1.617c1.134,1.078,1.7,2.233,1.7,3.465c0,0.393-0.125,0.952-0.377,1.68
	c-0.309,0.84-0.631,1.26-0.967,1.26c-0.111,0-0.35-0.153-0.713-0.462c-1.484-1.288-3.095-1.932-4.83-1.932
	c-2.997,0-7.07,2.086-12.223,6.259c-0.812,0.615-1.218,1.008-1.218,1.176c0,0.195,1.05,0.447,3.149,0.756
	c0.7,0.084,2.086,0.238,4.158,0.461c3.164,0.337,5.838,0.855,8.022,1.555C370.73,24.979,372.565,26.632,372.565,28.703z"/>
<path d="M405.535,11.756c0,0.924-0.154,1.848-0.461,2.772c-0.057,0.196-0.336,0.672-0.841,1.428
	c-0.224,0.364-0.546,1.12-0.966,2.268c-0.477,1.26-0.742,1.946-0.798,2.059c-0.588,1.148-1.078,2.422-1.47,3.821
	c-0.393,1.652-0.799,2.954-1.219,3.906c-0.588,1.372-1.148,2.758-1.68,4.157c-0.7,1.597-1.372,2.898-2.016,3.906
	c-0.561,0.896-1.121,1.344-1.68,1.344c-1.457,0-3.305-3.961-5.545-11.885c-0.195-0.784-0.393-1.568-0.588-2.353
	c-0.28-0.952-0.63-1.694-1.05-2.226c-0.309,0.225-1.078,2.954-2.31,8.189c-0.084,0.924-0.336,2.268-0.756,4.032
	c-0.309,0.784-0.688,1.638-1.135,2.562c-0.7,1.26-1.26,1.891-1.68,1.891c-0.196,0-0.631-0.322-1.303-0.967
	c-0.531-0.531-0.91-0.951-1.133-1.26c-0.729-1.119-1.429-2.912-2.101-5.376c-0.504-1.903-1.008-3.821-1.513-5.754
	c-0.308-0.896-0.826-2.45-1.553-4.662c-0.785-2.547-1.177-4.018-1.177-4.41c0-0.644,0.237-1.4,0.714-2.268
	c0.588-1.008,1.232-1.512,1.932-1.512c0.336,0,0.603,0.267,0.799,0.798c0.224,1.036,0.615,2.576,1.176,4.62
	c0.84,3.249,1.357,5.195,1.555,5.838c0.672,2.24,1.357,4.116,2.057,5.628c0.112,0.252,0.238,0.378,0.379,0.378
	c0.027,0,0.14-0.237,0.336-0.714c0.699-1.428,1.33-3.318,1.89-5.67c0.448-1.96,0.882-3.92,1.302-5.88
	c0.057-0.812,0.238-2.001,0.547-3.57c0.195-0.532,0.594-0.98,1.197-1.344c0.602-0.363,1.182-0.546,1.742-0.546
	c0.672,0,1.148,0.42,1.428,1.26c0.447,1.82,1.288,4.97,2.521,9.449c1.399,4.93,2.366,7.393,2.897,7.393
	c0.111,0,0.406-0.462,0.883-1.387c0.699-1.314,1.539-3.695,2.52-7.139c0.561-2.101,0.967-3.487,1.219-4.159
	c0.504-1.344,1.146-2.66,1.932-3.948c0.252-0.42,1.231-1.022,2.939-1.806C405.199,10.539,405.535,10.917,405.535,11.756z"/>
<path d="M436.316,21.543c0,4.508-2.083,8.399-6.25,11.676c-3.831,3.053-8.041,4.578-12.627,4.578c-3.243,0-6.18-0.89-8.809-2.668
	c-2.629-1.777-4.586-4.178-5.873-7.202c-0.391-0.868-0.587-1.722-0.587-2.562c0-1.12,0.321-2.338,0.965-3.654
	c1.595-3.444,4.489-6.384,8.684-8.82c4.026-2.295,8.013-3.444,11.956-3.444c3.188,0,6.074,1.218,8.661,3.654
	S436.316,18.351,436.316,21.543z M432.957,23.643c0-1.119-0.519-2.395-1.554-3.822c-2.493-3.332-5.53-4.998-9.114-4.998
	c-2.996,0-6.216,0.868-9.66,2.604c-4.592,2.296-6.888,4.341-6.888,6.132c0,0.812,0.447,1.736,1.344,2.771
	c3.584,4.117,7.378,6.174,11.382,6.174c3.08,0,6.133-0.727,9.156-2.184C431.179,28.529,432.957,26.303,432.957,23.643z"/>
<path d="M463.784,12.933c0,4.116-3.474,8.372-10.416,12.769l-1.387,0.881c-0.279,0.197-0.42,0.352-0.42,0.463
	c0,0.141,0.377,0.477,1.135,1.008c1.398,0.924,3.414,2.422,6.047,4.494c0.309,0.225,0.637,0.469,0.985,0.734
	c0.352,0.267,0.525,0.582,0.525,0.945c0,0.112-0.084,0.42-0.252,0.924c-1.175,0.252-2.14,0.378-2.897,0.378
	c-1.035,0-2.1-0.252-3.191-0.756c-0.336-0.14-1.33-0.672-2.982-1.596c-2.184-1.261-4.521-2.155-7.014-2.688
	c-0.561-0.14-1.021-0.21-1.385-0.21c-0.534,0-0.827,0.154-0.884,0.462c-0.057,0.168-0.098,0.658-0.125,1.471
	c-0.197,3.808-0.715,5.711-1.555,5.711c-0.084,0-0.546-0.14-1.386-0.42c-0.841-0.279-1.358-0.672-1.554-1.176
	c-0.113-0.224-0.168-0.825-0.168-1.806c0-0.7,0.027-1.749,0.084-3.149c0.055-1.4,0.084-2.437,0.084-3.108
	c0-1.903-0.084-3.654-0.252-5.25c-0.365-3.332-0.547-5.306-0.547-5.922c0-0.279,0.021-0.741,0.063-1.386
	c0.042-0.644,0.063-1.134,0.063-1.47c0-0.56,0.321-1.372,0.965-2.436c0.645-1.063,1.246-1.638,1.807-1.722
	c3.275-0.56,8.149-0.84,14.616-0.84c2.939,0,4.941,0.112,6.005,0.336C462.438,10.049,463.784,11.168,463.784,12.933z
	 M459.331,15.915c0-0.027-0.014-0.056-0.041-0.084c-0.477-0.868-2.562-1.302-6.258-1.302c-2.465,0-5.74,0.141-9.828,0.42
	c-0.533,0.028-0.94,0.07-1.22,0.126c-0.477,0.112-0.783,0.308-0.924,0.588c-0.504,0.868-0.756,2.562-0.756,5.082
	c0,2.94,0.379,4.41,1.135,4.41c0.223,0,0.615-0.056,1.177-0.168c5.936-1.287,10.947-3.654,15.035-7.098
	C458.771,16.964,459.331,16.307,459.331,15.915z"/>
<path d="M491.296,13.814c0,0.477-0.043,0.924-0.127,1.344c-0.756,3.528-2.66,7.029-5.713,10.5c-2.631,2.969-5.74,5.531-9.322,7.687
	c-1.43,0.868-3.137,1.722-5.125,2.562c-2.436,1.008-4.256,1.512-5.459,1.512c-0.645,0-0.994-0.811-1.051-2.436
	c0-0.447,0-0.979,0-1.596l0.041-1.092c0-4.844-0.084-8.26-0.252-10.248c-0.336-3.416-0.504-5.432-0.504-6.048
	c0-0.308,0.014-0.763,0.043-1.365c0.027-0.602,0.041-1.057,0.041-1.365c0-0.588,0.26-1.288,0.777-2.1
	c0.518-0.812,1.057-1.288,1.617-1.428c2.717-0.672,6.916-1.008,12.6-1.008c4.508,0,7.799,0.378,9.871,1.134
	C490.44,10.539,491.296,11.855,491.296,13.814z M487.683,16.334c0-0.896-0.994-1.54-2.982-1.932
	c-1.232-0.252-2.604-0.378-4.115-0.378c-6.271,0-10.137,0.336-11.592,1.008c-0.756,0.364-1.232,1.092-1.428,2.184
	c-0.057,0.364-0.084,1.288-0.084,2.771c0,1.373,0.068,3.291,0.209,5.754c0.195,3.108,0.393,4.887,0.588,5.334
	c0.141,0.225,0.406,0.336,0.799,0.336c0.363,0,0.883-0.111,1.555-0.336c4.982-1.623,9.449-4.562,13.396-8.82
	C486.466,19.652,487.683,17.679,487.683,16.334z"/>
</svg>
