<?xml version="1.0" encoding="utf-8"?>
<!-- Generator: Adobe Illustrator 15.0.2, SVG Export Plug-In . SVG Version: 6.00 Build 0)  -->
<!DOCTYPE svg PUBLIC "-//W3C//DTD SVG 1.1//EN" "http://www.w3.org/Graphics/SVG/1.1/DTD/svg11.dtd">
<svg version="1.1" id="Layer_1" xmlns="http://www.w3.org/2000/svg" xmlns:xlink="http://www.w3.org/1999/xlink" x="0px" y="0px"
	 width="357.576px" height="57.263px" viewBox="0 0 357.576 57.263" enable-background="new 0 0 357.576 57.263"
	 xml:space="preserve">
<g>
	<path d="M77.716,15.706c-0.455,0.155-1.146,0.244-2.073,0.26c-1.176,0.035-1.836-0.159-1.983-0.583
		c-0.094-0.272-0.16-0.766-0.196-1.481c-0.037-0.718,0-1.196,0.106-1.437c0.055-0.086,0.537-0.287,1.445-0.603l1.534-0.532
		c1.401-0.486,3.456-1.316,6.166-2.493c2.513-1.312,4.262-2.139,5.246-2.48c0.663-0.23,1.582,0.095,2.756,0.976
		c0.141,0.223,0.252,0.453,0.336,0.697c0.168,0.484-0.038,1.082-0.62,1.79c-0.505,0.683-0.934,1.07-1.284,1.158
		c-2.064,0.409-3.198,0.652-3.408,0.724c-1.779,0.617-3.709,1.472-5.789,2.566c-0.217,0.109-0.582,0.372-1.095,0.786
		C78.417,15.376,78.038,15.593,77.716,15.706z"/>
	<path d="M33.88,15.388c0,1.705-0.635,3.548-1.903,5.529c-2.854,4.361-5.985,7.908-9.394,10.644
		c-3.291,2.496-7.472,4.736-12.545,6.719c-1.427,0.516-2.141,1.308-2.141,2.377c0,0.279,0.049,0.665,0.148,1.161
		c0.099,0.495,0.148,0.882,0.148,1.158c0,0.832-0.158,2.062-0.476,3.687c-0.396,2.06-0.832,3.092-1.307,3.092H6.292
		c-1.545,0-2.596-0.557-3.151-1.665c-0.277-0.753-0.416-1.942-0.416-3.567c0-0.91,0.039-2.309,0.119-4.191
		c0.079-1.883,0.119-3.3,0.119-4.251c0-1.823-0.159-4.568-0.476-8.235c-0.318-3.665-0.476-6.411-0.476-8.234
		c0-5.628,1.168-8.7,3.507-9.216c3.726-0.792,8.819-1.189,15.281-1.189c7.016,0,11.079,0.932,12.188,2.794
		C33.582,13.031,33.88,14.16,33.88,15.388z M28.588,18.48c0-1.189-2.716-1.783-8.146-1.783c-7.848,0-12.04,0.396-12.575,1.188
		c-0.535,0.793-0.803,1.983-0.803,3.568c0,0.317,0.02,0.853,0.06,1.605c0.039,0.754,0.06,1.289,0.06,1.605
		c0,0.238-0.03,0.942-0.09,2.111c-0.059,1.169-0.089,2.051-0.089,2.645c0.039,0.952,0.128,1.567,0.268,1.844
		c0.139,0.277,0.387,0.416,0.743,0.416c0.316,0,0.733-0.039,1.249-0.118c7.373-2.021,13.675-6.125,18.907-12.308
		C28.448,18.977,28.588,18.718,28.588,18.48z"/>
	<path d="M63.842,20.36c0,4.706-3.97,9.572-11.91,14.6l-1.584,1.007c-0.32,0.226-0.48,0.402-0.48,0.529
		c0,0.161,0.432,0.546,1.297,1.152c1.6,1.057,3.905,2.77,6.915,5.14c0.352,0.257,0.728,0.535,1.128,0.839
		c0.4,0.306,0.6,0.666,0.6,1.081c0,0.128-0.096,0.48-0.288,1.056c-1.344,0.289-2.449,0.433-3.313,0.433
		c-1.185,0-2.401-0.288-3.649-0.864c-0.384-0.159-1.521-0.768-3.41-1.824c-2.498-1.441-5.171-2.465-8.02-3.074
		c-0.641-0.16-1.169-0.239-1.585-0.239c-0.608,0-0.945,0.176-1.008,0.527c-0.065,0.191-0.113,0.752-0.144,1.682
		c-0.225,4.354-0.816,6.529-1.777,6.529c-0.096,0-0.624-0.159-1.584-0.479c-0.96-0.319-1.553-0.769-1.776-1.345
		c-0.128-0.256-0.192-0.943-0.192-2.064c0-0.8,0.032-1.999,0.096-3.601c0.063-1.602,0.096-2.786,0.096-3.555
		c0-2.176-0.096-4.179-0.288-6.003c-0.417-3.811-0.625-6.067-0.625-6.771c0-0.32,0.024-0.848,0.072-1.585
		c0.048-0.736,0.072-1.296,0.072-1.681c0-0.64,0.368-1.568,1.104-2.785c0.736-1.216,1.424-1.872,2.065-1.968
		c3.746-0.641,9.316-0.961,16.712-0.961c3.361,0,5.65,0.128,6.867,0.385C62.306,17.063,63.842,18.343,63.842,20.36z M58.752,23.77
		c0-0.032-0.017-0.064-0.048-0.096c-0.545-0.992-2.929-1.489-7.156-1.489c-2.816,0-6.563,0.161-11.237,0.481
		c-0.608,0.032-1.073,0.08-1.393,0.145c-0.545,0.128-0.896,0.352-1.056,0.672c-0.577,0.993-0.865,2.93-0.865,5.81
		c0,3.362,0.433,5.042,1.297,5.042c0.256,0,0.705-0.063,1.344-0.191c6.788-1.472,12.518-4.178,17.192-8.115
		C58.112,24.97,58.752,24.218,58.752,23.77z"/>
	<path d="M99.258,30.206c0,5.153-2.382,9.604-7.146,13.349c-4.381,3.491-9.194,5.236-14.437,5.236
		c-3.709,0-7.066-1.018-10.072-3.051c-3.006-2.033-5.244-4.777-6.715-8.235c-0.447-0.993-0.671-1.969-0.671-2.929
		c0-1.281,0.368-2.674,1.103-4.179c1.823-3.938,5.133-7.299,9.929-10.085c4.604-2.625,9.161-3.938,13.67-3.938
		c3.646,0,6.946,1.393,9.904,4.178C97.779,23.337,99.258,26.555,99.258,30.206z M95.417,32.606c0-1.28-0.593-2.738-1.776-4.37
		c-2.85-3.81-6.323-5.715-10.421-5.715c-3.427,0-7.107,0.993-11.046,2.978c-5.251,2.625-7.875,4.964-7.875,7.011
		c0,0.93,0.511,1.985,1.536,3.169c4.098,4.708,8.436,7.06,13.015,7.06c3.521,0,7.011-0.83,10.468-2.497
		C93.383,38.193,95.417,35.648,95.417,32.606z"/>
	<path d="M125.319,42.691c0,0.991-0.24,1.952-0.72,2.881c-0.641,1.152-1.458,1.729-2.45,1.729c-1.28,0-3.538-2-6.771-6.003
		c-0.769-0.991-1.857-2.354-3.266-4.082c-0.96-1.119-1.569-1.68-1.825-1.68c-0.705,0-2.322,2.16-4.851,6.483
		c-0.576,1.025-0.992,1.697-1.248,2.017c-2.626,3.106-4.499,4.674-5.619,4.705l-0.433-0.143c-0.769-1.152-1.137-2.162-1.105-3.026
		l0.048-0.288c0.064-0.352,0.272-0.72,0.625-1.104l0.288-0.289c0.736-0.832,2.417-3.042,5.042-6.627
		c0.224-0.319,1.328-1.697,3.313-4.131c0.544-0.672,0.817-1.231,0.817-1.68c0-0.576-1.025-2.241-3.074-4.995
		c-2.178-2.882-3.266-4.69-3.266-5.427c0-0.608,0.288-1.472,0.864-2.593c0.672-1.248,1.344-1.873,2.017-1.873
		c0.416,0,1.632,1.537,3.649,4.61s3.233,4.61,3.65,4.61c0.256,0,1.04-0.928,2.353-2.785c0.832-1.121,1.633-2.225,2.401-3.313
		c0.511-0.641,1.296-1.457,2.353-2.45c0.32-0.192,1.393-0.512,3.217-0.96c0.577,0.16,0.865,0.528,0.865,1.104
		c0,1.025-0.513,2.465-1.537,4.322c-0.353,0.608-0.896,1.249-1.632,1.921c-0.577,0.576-1.145,1.137-1.705,1.681
		c-0.561,0.544-1.161,1.249-1.801,2.113c-0.833,1.152-1.249,1.953-1.249,2.401c0,0.929,2.048,3.618,6.147,8.067
		c0.224,0.256,1.056,0.93,2.497,2.017c0.704,0.545,1.44,1.153,2.209,1.825C125.254,42.019,125.319,42.338,125.319,42.691z"/>
	<path d="M130.794,41.681c0,0.769-0.144,1.858-0.432,3.266c-0.353,1.794-0.752,2.69-1.201,2.69c-0.288,0-0.776-0.161-1.464-0.479
		c-0.689-0.32-1.129-0.626-1.321-0.914c-0.064-0.127-0.096-0.96-0.096-2.497v-2.592c0-2.37-0.112-5.907-0.336-10.615
		c-0.417-4.48-0.624-7.554-0.624-9.219c0-1.12,0.608-2.336,1.825-3.65c0.256-0.096,0.512-0.144,0.769-0.144
		c0.512,0,1.008,0.624,1.489,1.873c0.48,1.12,0.704,1.968,0.672,2.544c-0.288,3.331-0.432,5.171-0.432,5.523
		c0,3.011,0.175,6.371,0.528,10.086c0.031,0.383,0.16,1.072,0.384,2.063C130.713,40.45,130.794,41.139,130.794,41.681z"/>
	<path d="M171.949,43.747c0,0.673-0.272,1.554-0.817,2.643c-0.672,1.217-1.36,1.824-2.064,1.824c-0.992,0-2.386-2.385-4.178-7.155
		c-1.153-3.137-2.098-6.114-2.834-8.933c-0.832-3.168-1.472-4.754-1.92-4.754c-0.577,0-2.354,3.41-5.331,10.229
		c-0.353,1.025-0.912,2.545-1.681,4.562c-0.096,1.024-0.561,2.272-1.392,3.746c-0.929,1.665-1.873,2.498-2.833,2.498
		c-1.344,0-2.881-2.465-4.61-7.396c-0.961-3.138-1.921-6.306-2.882-9.508c-0.352-0.962-0.576-1.441-0.672-1.441
		c0,0.033,0,0.064,0,0.096c-0.672,0.994-1.521,3.907-2.545,8.74c-0.128,1.057-0.432,2.594-0.912,4.611
		c-0.321,0.864-0.768,1.841-1.344,2.929c-0.769,1.44-1.377,2.162-1.825,2.162c-0.353,0-0.833-0.346-1.44-1.033
		c-0.609-0.688-0.913-1.24-0.913-1.657c0-0.288,0.064-0.592,0.192-0.912c0.288-0.544,0.432-0.832,0.432-0.864
		c0.384-1.217,0.928-3.042,1.633-5.475c0.607-1.825,1.424-4.579,2.449-8.26c0.352-1.312,0.704-2.642,1.057-3.986
		c0.353-1.569,0.528-2.93,0.528-4.082c0-0.992,0.08-1.712,0.241-2.161c0.127-0.353,0.751-0.816,1.873-1.393
		c1.057-0.511,1.76-0.768,2.113-0.768c0.544,0,0.896,0.368,1.056,1.104c0.064,0.545,0.128,1.089,0.192,1.633
		c0.127,1.249,0.864,4.098,2.209,8.547c1.312,4.354,2.273,7.236,2.881,8.645c0.289,0.609,0.544,0.913,0.769,0.913
		c0.32,0,1.873-3.01,4.659-9.028l3.217-6.916c1.088-2.305,1.793-3.722,2.113-4.25c0.319-0.528,1.472-1.24,3.458-2.136
		c0.735,0.064,1.52,2.145,2.352,6.243c0.386,2.145,0.833,4.595,1.346,7.348c1.248,4.13,1.904,6.291,1.969,6.483
		c0.896,2.625,1.904,4.594,3.026,5.906C171.805,42.852,171.949,43.267,171.949,43.747z"/>
	<path d="M200.984,43.459c0.031,0.863-0.191,1.793-0.672,2.784c-0.512,1.186-1.152,1.778-1.92,1.778
		c-0.802,0-1.297-1.153-1.489-3.458c-0.032-0.513-0.064-0.817-0.096-0.913c-0.481-1.824-2.275-2.738-5.379-2.738
		c-0.354,0-0.801,0-1.345,0c-0.609,0.034-1.025,0.05-1.248,0.05c-1.633,0-3.667,0.207-6.1,0.623
		c-3.297,0.545-5.307,0.849-6.026,0.913c-0.721,0.064-1.185,0.431-1.394,1.104c-0.208,0.672-0.393,1.329-0.552,1.969
		c-0.32,1.249-0.896,2.097-1.729,2.546c-0.257,0.127-0.497,0.191-0.721,0.191c-0.673,0-1.041-0.528-1.104-1.585
		c-0.096-1.855,0.432-4.497,1.585-7.923v-0.097c-0.032-0.512,0.176-0.991,0.624-1.44c2.433-6.34,5.955-11.59,10.565-15.752
		c0.288-0.255,0.864-0.992,1.729-2.208c0.576-0.833,1.28-1.376,2.113-1.633c0.799-0.096,1.792-0.255,2.978-0.479
		c0.96-0.289,1.504-0.433,1.633-0.433c1.215,0,2.943,3.826,5.187,11.478C199.671,35.344,200.793,40.417,200.984,43.459z
		 M194.07,32.846c0-0.864-0.418-2.361-1.249-4.49c-0.833-2.128-1.521-3.514-2.065-4.154c-0.383-0.448-0.8-0.672-1.248-0.672
		c-1.344,0-3.538,1.617-6.579,4.85c-3.043,3.235-4.53,5.522-4.467,6.868c0.031,0.704,1.025,1.056,2.978,1.056
		c1.92,0,4.082-0.145,6.482-0.433c3.075-0.415,4.979-0.96,5.716-1.632C193.957,33.887,194.102,33.422,194.07,32.846z"/>
	<path d="M241.184,43.747c0,0.673-0.272,1.554-0.816,2.643c-0.673,1.217-1.362,1.824-2.066,1.824c-0.991,0-2.385-2.385-4.178-7.155
		c-1.153-3.137-2.098-6.114-2.833-8.933c-0.832-3.168-1.473-4.754-1.92-4.754c-0.576,0-2.353,3.41-5.331,10.229
		c-0.354,1.025-0.913,2.545-1.68,4.562c-0.097,1.024-0.562,2.272-1.394,3.746c-0.93,1.665-1.874,2.498-2.834,2.498
		c-1.344,0-2.882-2.465-4.61-7.396c-0.96-3.138-1.92-6.306-2.881-9.508c-0.353-0.962-0.576-1.441-0.672-1.441
		c0,0.033,0,0.064,0,0.096c-0.673,0.994-1.521,3.907-2.546,8.74c-0.127,1.057-0.432,2.594-0.913,4.611
		c-0.32,0.864-0.767,1.841-1.344,2.929c-0.769,1.44-1.377,2.162-1.825,2.162c-0.354,0-0.833-0.346-1.441-1.033
		c-0.606-0.688-0.911-1.24-0.911-1.657c0-0.288,0.063-0.592,0.191-0.912c0.288-0.544,0.433-0.832,0.433-0.864
		c0.384-1.217,0.929-3.042,1.632-5.475c0.608-1.825,1.425-4.579,2.45-8.26c0.353-1.312,0.703-2.642,1.057-3.986
		c0.353-1.569,0.527-2.93,0.527-4.082c0-0.992,0.08-1.712,0.24-2.161c0.127-0.353,0.753-0.816,1.874-1.393
		c1.057-0.511,1.76-0.768,2.112-0.768c0.544,0,0.896,0.368,1.057,1.104c0.064,0.545,0.128,1.089,0.192,1.633
		c0.126,1.249,0.864,4.098,2.209,8.547c1.312,4.354,2.273,7.236,2.881,8.645c0.288,0.609,0.544,0.913,0.769,0.913
		c0.32,0,1.872-3.01,4.658-9.028l3.217-6.916c1.089-2.305,1.794-3.722,2.114-4.25c0.319-0.528,1.471-1.24,3.458-2.136
		c0.734,0.064,1.52,2.145,2.352,6.243c0.386,2.145,0.833,4.595,1.346,7.348c1.248,4.13,1.903,6.291,1.968,6.483
		c0.896,2.625,1.905,4.594,3.027,5.906C241.039,42.852,241.184,43.267,241.184,43.747z"/>
	<path d="M271.773,29.466c0,0.572-0.225,1.223-0.672,1.951c-0.513,0.889-1.073,1.332-1.681,1.332c-0.353,0-0.897-0.048-1.632-0.144
		c-0.737-0.097-1.298-0.145-1.683-0.145c-1.984,0-4.37,0.288-7.155,0.864c-3.232,0.704-6.338,1.25-9.316,1.634
		c-2.337,0.352-3.505,1.249-3.505,2.688c0,2.85,0.576,4.274,1.729,4.274c0.288,0,0.735-0.08,1.346-0.241
		c6.722-1.921,12.083-2.88,16.087-2.88c0.8,0,1.648,0.128,2.545,0.384c1.248,0.353,1.873,0.833,1.873,1.44
		c0,0.287-0.104,0.769-0.312,1.44s-0.424,1.12-0.648,1.346c-0.287,0.32-0.721,0.479-1.297,0.479c-0.127,0-0.328-0.017-0.601-0.048
		c-0.271-0.032-0.471-0.048-0.6-0.048c-2.401,0-5.091,0.576-8.067,1.728c-2.85,1.059-5.651,1.923-8.403,2.595
		c-0.354,0.096-0.842,0.327-1.465,0.695c-0.625,0.367-1.146,0.584-1.562,0.649c-0.353,0-1.105-0.257-2.258-0.769
		c-1.248-0.609-1.969-1.088-2.161-1.44V47.3c-0.128-0.224-0.191-0.496-0.191-0.815c0-0.289,0.023-0.705,0.072-1.249
		c0.047-0.544,0.071-0.943,0.071-1.2c0-6.371-0.128-10.95-0.384-13.735c-0.32-4.322-0.479-6.834-0.479-7.539
		c0-0.544-0.041-1.145-0.121-1.801c-0.08-0.656-0.119-1.064-0.119-1.224c0-0.769,0.544-1.792,1.633-3.074
		c0.607-0.256,0.961-0.384,1.057-0.384c0.447,0,1.567,0.497,3.361,1.488c4.546-1.312,9.732-1.969,15.558-1.969
		c1.857,0,3.379,0.064,4.563,0.192c2.593,0.289,3.891,0.897,3.891,1.825c0,0.608-0.24,1.265-0.721,1.969
		c-0.545,0.864-1.104,1.296-1.681,1.296c-0.321,0-0.817-0.048-1.489-0.144c-0.672-0.096-1.168-0.144-1.488-0.144
		c-1.89,0-4.227,0.339-7.012,1.016c-4.162,0.968-6.482,1.5-6.963,1.596c-0.929,0.161-1.843,0.306-2.738,0.435
		c-0.992,0.227-1.872,0.533-2.641,0.919c-0.577,0.291-0.865,0.968-0.865,2.032c0,0.996,0.096,1.655,0.288,1.974
		c0.257,0.448,0.77,0.673,1.538,0.673c0.447,0,1.008-0.111,1.68-0.338c0.93-0.256,1.456-0.398,1.586-0.431
		c3.617-0.801,7.795-1.201,12.533-1.201c1.889,0,3.41,0.064,4.562,0.191C270.461,27.945,271.773,28.548,271.773,29.466z"/>
	<path d="M301.676,43.026c0,0.833-0.096,1.697-0.287,2.593c-0.257,1.313-0.609,2.002-1.059,2.065
		c-1.214,0.226-2.175,0.097-2.876-0.384c-0.352-0.257-0.886-0.672-1.605-1.248c-0.719-0.576-1.558-1.377-2.516-2.401
		c-1.247-1.346-2.029-2.178-2.348-2.498c-1.728-1.568-3.788-3.602-6.184-6.099c-1.502-1.633-3.865-4.065-7.093-7.3
		c-0.383-0.352-0.67-0.528-0.861-0.528c-0.352,0-0.528,0.978-0.528,2.93c0,1.825,0.113,4.243,0.337,7.252
		c0.06,0.384,0.179,1.09,0.356,2.112c0.179,0.863,0.268,1.555,0.268,2.065c0,0.801-0.16,1.904-0.48,3.313
		c-0.319,1.729-0.704,2.593-1.152,2.593c-0.545,0-1.137-0.191-1.777-0.576c-0.8-0.479-1.2-1.024-1.2-1.632
		c0-0.192,0.025-0.529,0.072-1.01c0.049-0.479,0.072-0.848,0.072-1.104c0-0.159-0.017-0.864-0.048-2.112
		c0-2.401-0.097-5.955-0.289-10.661c-0.352-3.586-0.527-5.89-0.527-6.915c0-0.192-0.032-0.736-0.097-1.633
		c-0.031-0.704-0.031-1.232,0-1.584c0.097-0.736,0.688-1.664,1.777-2.785c0.161-0.064,0.448-0.096,0.863-0.096
		c0.416,0,0.993,0.201,1.729,0.6c0.736,0.401,1.265,0.761,1.585,1.081c3.17,3.426,6.322,6.836,9.46,10.229
		c5.188,5.442,8.276,8.164,9.269,8.164c0.16,0,0.241-0.4,0.241-1.201c0-2.144-0.329-5.49-0.985-10.036
		c-0.656-4.545-0.984-8.02-0.984-10.421c0-1.632,0.464-2.449,1.394-2.449c0.896,0,1.68,0.577,2.354,1.729
		c0.607,0.96,0.911,1.89,0.911,2.785c0,0.289-0.031,0.737-0.096,1.345c-0.065,0.608-0.097,1.073-0.097,1.393
		c0,3.586,0.4,8.101,1.201,13.543c0.224,1.473,0.48,2.946,0.769,4.417C301.532,40.288,301.676,41.778,301.676,43.026z"/>
	<path d="M324.918,18.199c0,0.288-0.127,0.833-0.384,1.633c-0.448,1.088-0.976,1.632-1.584,1.632c-0.129,0-0.336-0.016-0.625-0.048
		c-0.287-0.031-0.527-0.048-0.72-0.048c-0.544,0-1.857,0.128-3.938,0.384c-1.889,0.257-2.833,2.481-2.833,6.674
		c0,3.139,0.192,6.837,0.577,11.094c0.031,0.384,0.143,1.09,0.335,2.113c0.161,0.897,0.241,1.602,0.241,2.113
		c0,0.801-0.145,1.905-0.434,3.313c-0.352,1.696-0.736,2.529-1.151,2.496l-0.145-0.048c-1.185-0.223-1.985-0.6-2.401-1.127
		c-0.415-0.53-0.623-1.369-0.623-2.521c0-0.672,0.03-1.683,0.096-3.025c0.062-1.345,0.097-2.354,0.097-3.026
		c0-2.4-0.097-5.267-0.289-8.596c-0.287-4.706-0.656-7.315-1.104-7.828c-0.225-0.224-0.465-0.336-0.721-0.336
		c-0.513,0-1.521,0.288-3.025,0.864c-1.632,0.576-2.753,0.864-3.362,0.864c-0.384,0-0.896-0.544-1.535-1.632
		c-0.546-0.961-0.816-1.617-0.816-1.97c0-0.672,0.424-1.344,1.273-2.017c0.846-0.672,1.688-1.008,2.521-1.008
		c0.158,0,0.304,0.017,0.432,0.048c3.905-1.345,8.419-2.018,13.541-2.018C322.726,16.181,324.918,16.854,324.918,18.199z"/>
	<path d="M355.509,29.803c0,0.571-0.223,1.221-0.672,1.95c-0.512,0.889-1.072,1.332-1.681,1.332c-0.352,0-0.897-0.049-1.633-0.146
		c-0.736-0.095-1.296-0.142-1.68-0.142c-1.986,0-4.371,0.287-7.156,0.863c-3.234,0.704-6.34,1.249-9.317,1.633
		c-2.338,0.354-3.505,1.248-3.505,2.689c0,2.849,0.576,4.273,1.728,4.273c0.289,0,0.737-0.079,1.346-0.239
		c6.724-1.922,12.085-2.883,16.088-2.883c0.8,0,1.648,0.13,2.545,0.385c1.249,0.353,1.873,0.833,1.873,1.44
		c0,0.289-0.104,0.769-0.312,1.441c-0.209,0.672-0.425,1.121-0.648,1.345c-0.289,0.319-0.721,0.48-1.297,0.48
		c-0.129,0-0.328-0.017-0.601-0.05c-0.272-0.03-0.473-0.046-0.602-0.046c-2.4,0-5.089,0.576-8.065,1.729
		c-2.852,1.056-5.653,1.921-8.405,2.593c-0.353,0.096-0.841,0.328-1.465,0.696s-1.145,0.583-1.56,0.648
		c-0.353,0-1.106-0.257-2.258-0.769c-1.249-0.609-1.97-1.088-2.162-1.44v0.048c-0.127-0.225-0.191-0.496-0.191-0.815
		c0-0.289,0.024-0.704,0.072-1.249s0.073-0.945,0.073-1.202c0-6.37-0.13-10.948-0.385-13.733c-0.321-4.322-0.48-6.835-0.48-7.54
		c0-0.544-0.041-1.144-0.12-1.801c-0.08-0.656-0.121-1.064-0.121-1.224c0-0.769,0.546-1.792,1.633-3.073
		c0.609-0.256,0.961-0.384,1.058-0.384c0.448,0,1.568,0.496,3.362,1.488c4.544-1.312,9.731-1.969,15.559-1.969
		c1.855,0,3.377,0.064,4.562,0.192c2.593,0.289,3.89,0.897,3.89,1.825c0,0.608-0.241,1.265-0.721,1.969
		c-0.546,0.864-1.104,1.296-1.682,1.296c-0.32,0-0.815-0.048-1.487-0.145s-1.17-0.144-1.49-0.144c-1.89,0-4.226,0.339-7.009,1.016
		c-4.164,0.968-6.484,1.5-6.965,1.596c-0.929,0.161-1.841,0.306-2.737,0.435c-0.993,0.226-1.873,0.532-2.642,0.919
		c-0.576,0.291-0.865,0.968-0.865,2.032c0,0.995,0.097,1.654,0.289,1.974c0.257,0.449,0.769,0.673,1.537,0.673
		c0.447,0,1.009-0.112,1.681-0.336c0.928-0.256,1.456-0.401,1.585-0.433c3.618-0.8,7.794-1.201,12.534-1.201
		c1.889,0,3.41,0.064,4.562,0.192C354.196,28.28,355.509,28.883,355.509,29.803z"/>
</g>
</svg>
