<?xml version="1.0" encoding="utf-8"?>
<!-- Generator: Adobe Illustrator 15.0.2, SVG Export Plug-In . SVG Version: 6.00 Build 0)  -->
<!DOCTYPE svg PUBLIC "-//W3C//DTD SVG 1.1//EN" "http://www.w3.org/Graphics/SVG/1.1/DTD/svg11.dtd">
<svg version="1.1" id="Layer_1" xmlns="http://www.w3.org/2000/svg" xmlns:xlink="http://www.w3.org/1999/xlink" x="0px" y="0px"
	 width="205px" height="43px" viewBox="0 0 205 43" enable-background="new 0 0 205 43" xml:space="preserve">
<g>
	<path d="M38.063,7.918c0,5.096-4.3,10.365-12.896,15.808l-1.717,1.092c-0.346,0.243-0.52,0.435-0.52,0.572
		c0,0.174,0.469,0.59,1.404,1.248c1.732,1.144,4.229,2.999,7.488,5.563c0.381,0.278,0.787,0.581,1.222,0.91
		c0.433,0.33,0.649,0.72,0.649,1.17c0,0.14-0.104,0.521-0.312,1.145c-1.456,0.312-2.651,0.468-3.588,0.468
		c-1.283,0-2.601-0.312-3.952-0.936c-0.416-0.174-1.646-0.832-3.691-1.977c-2.705-1.56-5.6-2.669-8.685-3.328
		c-0.694-0.173-1.266-0.26-1.716-0.26c-0.659,0-1.023,0.191-1.092,0.572c-0.07,0.208-0.122,0.814-0.156,1.819
		c-0.243,4.716-0.885,7.072-1.924,7.072c-0.104,0-0.676-0.174-1.717-0.52c-1.039-0.348-1.682-0.832-1.924-1.456
		c-0.139-0.277-0.207-1.022-0.207-2.236c0-0.866,0.033-2.166,0.104-3.899c0.068-1.733,0.104-3.017,0.104-3.849
		c0-2.356-0.104-4.523-0.312-6.5c-0.451-4.125-0.677-6.569-0.677-7.332c0-0.346,0.027-0.918,0.078-1.716
		c0.053-0.797,0.078-1.404,0.078-1.82c0-0.692,0.398-1.698,1.196-3.016s1.542-2.028,2.235-2.132
		c4.057-0.693,10.089-1.04,18.097-1.04c3.64,0,6.118,0.139,7.437,0.416C36.399,4.348,38.063,5.734,38.063,7.918z M32.55,11.61
		c0-0.034-0.019-0.068-0.052-0.104c-0.59-1.074-3.172-1.612-7.748-1.612c-3.051,0-7.107,0.174-12.168,0.521
		c-0.659,0.034-1.162,0.087-1.508,0.155c-0.59,0.14-0.971,0.382-1.145,0.729c-0.624,1.074-0.936,3.172-0.936,6.292
		c0,3.64,0.468,5.46,1.404,5.46c0.276,0,0.762-0.069,1.455-0.208c7.35-1.595,13.555-4.524,18.616-8.788
		C31.856,12.91,32.55,12.096,32.55,11.61z"/>
	<path d="M63.625,21.583c0,0.5-0.195,1.068-0.588,1.706c-0.447,0.776-0.938,1.165-1.47,1.165c-0.308,0-0.784-0.043-1.428-0.127
		c-0.645-0.084-1.134-0.126-1.47-0.126c-1.736,0-3.822,0.253-6.258,0.757c-2.829,0.616-5.545,1.092-8.148,1.428
		c-2.045,0.309-3.066,1.092-3.066,2.352c0,2.493,0.504,3.738,1.512,3.738c0.252,0,0.645-0.069,1.177-0.21
		c5.88-1.68,10.569-2.52,14.069-2.52c0.7,0,1.442,0.111,2.227,0.336c1.092,0.308,1.638,0.728,1.638,1.26
		c0,0.252-0.091,0.672-0.272,1.26c-0.183,0.588-0.371,0.98-0.567,1.176c-0.252,0.28-0.63,0.42-1.134,0.42
		c-0.112,0-0.287-0.014-0.525-0.042c-0.238-0.027-0.413-0.042-0.525-0.042c-2.1,0-4.451,0.504-7.055,1.513
		c-2.493,0.924-4.943,1.68-7.351,2.268c-0.309,0.084-0.735,0.287-1.281,0.609c-0.546,0.321-1.001,0.51-1.364,0.566
		c-0.309,0-0.967-0.225-1.975-0.672c-1.092-0.532-1.723-0.951-1.891-1.26v0.042c-0.111-0.195-0.168-0.434-0.168-0.714
		c0-0.252,0.021-0.616,0.063-1.092c0.042-0.477,0.063-0.826,0.063-1.051c0-5.571-0.113-9.575-0.336-12.012
		c-0.281-3.78-0.42-5.978-0.42-6.594c0-0.476-0.036-1.001-0.105-1.575c-0.07-0.573-0.105-0.931-0.105-1.071
		c0-0.672,0.477-1.567,1.428-2.688c0.532-0.224,0.841-0.336,0.925-0.336c0.392,0,1.372,0.435,2.94,1.302
		c3.975-1.147,8.512-1.722,13.607-1.722c1.623,0,2.953,0.056,3.99,0.168c2.268,0.252,3.402,0.784,3.402,1.596
		c0,0.532-0.211,1.106-0.631,1.722c-0.477,0.756-0.966,1.135-1.47,1.135c-0.28,0-0.714-0.042-1.302-0.126s-1.022-0.126-1.303-0.126
		c-1.652,0-3.695,0.296-6.131,0.888c-3.641,0.847-5.67,1.312-6.091,1.396c-0.812,0.141-1.61,0.268-2.394,0.381
		c-0.869,0.197-1.639,0.465-2.311,0.804c-0.504,0.254-0.756,0.847-0.756,1.776c0,0.871,0.084,1.447,0.252,1.727
		c0.225,0.393,0.672,0.588,1.344,0.588c0.393,0,0.883-0.098,1.471-0.294c0.812-0.224,1.273-0.35,1.386-0.378
		c3.164-0.7,6.817-1.05,10.962-1.05c1.652,0,2.982,0.056,3.99,0.168C62.477,20.252,63.625,20.779,63.625,21.583z"/>
	<path d="M93.137,24.034c0,1.429-0.259,3.06-0.776,4.894c-0.519,1.834-1.169,3.381-1.953,4.641
		c-2.017,3.333-6.188,4.998-12.517,4.998c-6.691,0-11.297-1.791-13.817-5.376c-1.176-1.68-1.765-3.43-1.765-5.25
		c0-2.743,1.232-5.586,3.697-8.525c2.268-2.66,5.103-4.907,8.504-6.741c3.402-1.834,6.475-2.751,9.22-2.751
		c1.512,0,3.108,0.385,4.788,1.154c1.68,0.771,2.982,1.729,3.906,2.878c0.252,0.336,0.377,0.742,0.377,1.218
		c0,0.532-0.154,1.092-0.461,1.68c-0.365,0.729-0.84,1.092-1.429,1.092c-0.28,0-0.574-0.111-0.882-0.336
		c-0.812-0.588-1.4-0.993-1.764-1.218c-0.672-0.392-1.359-0.672-2.059-0.84c-0.952-0.224-1.974-0.336-3.066-0.336
		c-0.476,0-0.965,0.015-1.469,0.042c-2.409,0.28-4.607,0.896-6.595,1.848c-1.512,0.729-3.431,1.96-5.754,3.696
		c-2.324,1.736-3.485,3.388-3.485,4.956c0,1.176,0.629,2.408,1.889,3.695c2.549,2.577,6.37,3.864,11.467,3.864
		c1.512,0,3.135-0.14,4.872-0.42c2.212-0.363,3.626-0.867,4.241-1.512c0.729-0.784,1.093-1.891,1.093-3.318
		c0-0.308-0.042-0.588-0.126-0.84c-0.225-0.672-2.016-1.008-5.376-1.008c-1.708,0-3.542-0.069-5.502-0.21
		c-0.141,0-0.372,0.021-0.693,0.062c-0.322,0.042-0.539,0.063-0.651,0.063c-0.42,0-0.867-0.363-1.344-1.092
		c-0.504-0.616-0.756-1.106-0.756-1.471c0-1.68,3.948-2.52,11.844-2.52c3.893,0,5.965,0.532,6.217,1.596
		C93.096,22.928,93.137,23.39,93.137,24.034z"/>
	<path d="M97.926,32.266c0,0.672-0.127,1.624-0.379,2.856c-0.309,1.568-0.658,2.352-1.05,2.352c-0.252,0-0.679-0.14-1.28-0.42
		c-0.604-0.279-0.987-0.546-1.156-0.798c-0.056-0.111-0.084-0.84-0.084-2.185v-2.268c0-2.072-0.098-5.166-0.293-9.282
		c-0.365-3.92-0.547-6.607-0.547-8.063c0-0.98,0.532-2.044,1.597-3.192c0.224-0.084,0.447-0.126,0.672-0.126
		c0.448,0,0.882,0.546,1.302,1.638c0.42,0.98,0.615,1.723,0.588,2.227c-0.252,2.912-0.377,4.521-0.377,4.83
		c0,2.632,0.152,5.572,0.461,8.819c0.027,0.336,0.141,0.938,0.336,1.807C97.856,31.189,97.926,31.791,97.926,32.266z"/>
	<path d="M125.898,29.62c0,0.812-0.309,1.695-0.925,2.646c-1.344,2.156-3.85,3.963-7.518,5.418c-3.248,1.315-6.3,1.974-9.156,1.974
		c-1.512,0-2.897-0.448-4.158-1.344c-1.4-1.008-2.1-2.239-2.1-3.696c0-0.476,0.098-1.021,0.295-1.638
		c0.252-0.812,0.559-1.218,0.924-1.218c0.223,0,0.602,0.351,1.133,1.05c1.036,1.232,2.367,1.848,3.99,1.848
		c1.849,0,3.92-0.321,6.217-0.966c2.463-0.615,4.395-1.399,5.796-2.352c0.195-0.14,0.294-0.252,0.294-0.336
		c0-0.196-0.435-0.462-1.303-0.798c-1.904-0.7-4.144-1.246-6.719-1.639c-0.98-0.14-3.291-0.405-6.931-0.798
		c-4.06-0.42-6.51-0.966-7.351-1.638c-0.308-0.224-0.461-0.588-0.461-1.092s0.168-1.135,0.504-1.891s0.699-1.315,1.092-1.68
		c1.623-1.288,4.018-3.248,7.182-5.88c1.68-1.456,3.808-2.884,6.385-4.284c3.051-1.651,5.445-2.478,7.182-2.478
		c1.147,0,2.289,0.539,3.423,1.616c1.134,1.078,1.7,2.233,1.7,3.465c0,0.393-0.125,0.953-0.377,1.681
		c-0.309,0.84-0.631,1.26-0.967,1.26c-0.111,0-0.35-0.153-0.713-0.462c-1.484-1.287-3.095-1.932-4.83-1.932
		c-2.997,0-7.07,2.086-12.223,6.258c-0.812,0.616-1.218,1.008-1.218,1.176c0,0.196,1.05,0.448,3.149,0.756
		c0.7,0.084,2.086,0.238,4.158,0.462c3.164,0.336,5.838,0.854,8.022,1.555C124.063,25.897,125.898,27.548,125.898,29.62z"/>
	<path d="M147.192,11.434c0,0.252-0.111,0.729-0.336,1.428c-0.393,0.952-0.854,1.429-1.386,1.429c-0.112,0-0.294-0.015-0.546-0.042
		c-0.252-0.028-0.463-0.042-0.631-0.042c-0.476,0-1.623,0.111-3.443,0.336c-1.652,0.224-2.479,2.17-2.479,5.838
		c0,2.744,0.168,5.979,0.504,9.702c0.028,0.336,0.127,0.952,0.295,1.848c0.14,0.784,0.209,1.4,0.209,1.848
		c0,0.7-0.125,1.666-0.377,2.898c-0.309,1.483-0.645,2.211-1.008,2.184l-0.127-0.042c-1.035-0.196-1.736-0.524-2.1-0.986
		c-0.364-0.463-0.546-1.197-0.546-2.205c0-0.588,0.027-1.471,0.084-2.646c0.056-1.176,0.084-2.058,0.084-2.646
		c0-2.101-0.084-4.605-0.252-7.519c-0.252-4.116-0.574-6.397-0.966-6.846c-0.196-0.195-0.406-0.294-0.631-0.294
		c-0.447,0-1.33,0.252-2.646,0.756c-1.428,0.504-2.408,0.756-2.94,0.756c-0.336,0-0.783-0.476-1.344-1.428
		c-0.477-0.84-0.714-1.414-0.714-1.722c0-0.589,0.371-1.177,1.113-1.765c0.741-0.588,1.477-0.882,2.205-0.882
		c0.14,0,0.266,0.015,0.378,0.042c3.416-1.176,7.363-1.764,11.844-1.764C145.274,9.67,147.192,10.258,147.192,11.434z"/>
	<path d="M173.243,13.596c0,4.116-3.472,8.373-10.416,12.769l-1.385,0.882c-0.281,0.196-0.42,0.351-0.42,0.462
		c0,0.141,0.377,0.477,1.133,1.008c1.4,0.924,3.416,2.423,6.049,4.494c0.308,0.225,0.637,0.47,0.986,0.735
		c0.35,0.267,0.525,0.581,0.525,0.944c0,0.112-0.084,0.421-0.252,0.925c-1.176,0.252-2.143,0.378-2.898,0.378
		c-1.035,0-2.1-0.252-3.191-0.756c-0.336-0.141-1.33-0.673-2.982-1.597c-2.184-1.26-4.521-2.155-7.014-2.688
		c-0.561-0.14-1.022-0.21-1.387-0.21c-0.531,0-0.826,0.154-0.881,0.462c-0.057,0.168-0.1,0.658-0.127,1.47
		c-0.195,3.809-0.713,5.712-1.554,5.712c-0.084,0-0.546-0.141-1.386-0.42c-0.84-0.28-1.358-0.672-1.555-1.176
		c-0.111-0.224-0.168-0.825-0.168-1.806c0-0.7,0.028-1.75,0.084-3.15c0.057-1.399,0.084-2.437,0.084-3.108
		c0-1.903-0.084-3.653-0.252-5.25c-0.363-3.331-0.545-5.306-0.545-5.922c0-0.279,0.021-0.741,0.062-1.386
		c0.042-0.644,0.062-1.134,0.062-1.47c0-0.561,0.322-1.372,0.967-2.437c0.644-1.063,1.245-1.638,1.806-1.722
		c3.276-0.56,8.147-0.84,14.616-0.84c2.939,0,4.941,0.112,6.006,0.336C171.899,10.713,173.243,11.833,173.243,13.596z
		 M168.792,16.579c0-0.027-0.015-0.056-0.042-0.084c-0.477-0.867-2.562-1.302-6.259-1.302c-2.463,0-5.74,0.141-9.827,0.42
		c-0.532,0.028-0.938,0.07-1.218,0.126c-0.477,0.112-0.785,0.309-0.924,0.588c-0.504,0.868-0.757,2.562-0.757,5.082
		c0,2.939,0.378,4.41,1.134,4.41c0.225,0,0.616-0.056,1.176-0.168c5.937-1.288,10.948-3.654,15.037-7.099
		C168.231,17.628,168.792,16.971,168.792,16.579z"/>
	<path d="M202.56,22.165c0,4.509-2.083,8.4-6.25,11.676c-3.831,3.053-8.041,4.578-12.627,4.578c-3.243,0-6.18-0.889-8.809-2.667
		c-2.629-1.777-4.587-4.179-5.873-7.203c-0.392-0.867-0.587-1.722-0.587-2.562c0-1.12,0.321-2.338,0.965-3.654
		c1.594-3.444,4.488-6.384,8.684-8.82c4.026-2.295,8.012-3.443,11.955-3.443c3.188,0,6.074,1.218,8.662,3.653
		C201.266,16.159,202.56,18.972,202.56,22.165z M199.2,24.264c0-1.119-0.518-2.394-1.553-3.821
		c-2.493-3.332-5.531-4.998-9.115-4.998c-2.996,0-6.215,0.868-9.66,2.604c-4.592,2.297-6.887,4.341-6.887,6.132
		c0,0.812,0.447,1.737,1.344,2.772c3.584,4.116,7.377,6.174,11.382,6.174c3.079,0,6.132-0.728,9.155-2.184
		C197.422,29.151,199.2,26.925,199.2,24.264z"/>
</g>
</svg>
